<?xml version="1.0" encoding="utf-8" standalone="no"?>
<!DOCTYPE svg PUBLIC "-//W3C//DTD SVG 1.1//EN"
  "http://www.w3.org/Graphics/SVG/1.1/DTD/svg11.dtd">
<!-- Created with matplotlib (http://matplotlib.org/) -->
<svg height="345pt" version="1.1" viewBox="0 0 460 345" width="460pt" xmlns="http://www.w3.org/2000/svg" xmlns:xlink="http://www.w3.org/1999/xlink">
 <defs>
  <style type="text/css">
*{stroke-linecap:butt;stroke-linejoin:round;}
  </style>
 </defs>
 <g id="figure_1">
  <g id="patch_1">
   <path d="M 0 345.6 
L 460.8 345.6 
L 460.8 0 
L 0 0 
z
" style="fill:#ffffff;"/>
  </g>
  <g id="axes_1">
   <g id="patch_2">
    <path d="M 57.6 307.584 
L 414.72 307.584 
L 414.72 41.472 
L 57.6 41.472 
z
" style="fill:#ffffff;"/>
   </g>
   <g id="matplotlib.axis_1">
    <g id="xtick_1">
     <g id="line2d_1">
      <defs>
       <path d="M 0 0 
L 0 -1 
" id="m03814e0f6b" style="stroke:#000000;stroke-width:0.2;"/>
      </defs>
      <g>
       <use style="stroke:#000000;stroke-width:0.2;" x="123.177098" xlink:href="#m03814e0f6b" y="307.584"/>
      </g>
     </g>
     <g id="text_1">
      <!-- 80000 -->
      <defs>
       <path d="M 31.78125 34.625 
Q 24.75 34.625 20.71875 30.859375 
Q 16.703125 27.09375 16.703125 20.515625 
Q 16.703125 13.921875 20.71875 10.15625 
Q 24.75 6.390625 31.78125 6.390625 
Q 38.8125 6.390625 42.859375 10.171875 
Q 46.921875 13.96875 46.921875 20.515625 
Q 46.921875 27.09375 42.890625 30.859375 
Q 38.875 34.625 31.78125 34.625 
z
M 21.921875 38.8125 
Q 15.578125 40.375 12.03125 44.71875 
Q 8.5 49.078125 8.5 55.328125 
Q 8.5 64.0625 14.71875 69.140625 
Q 20.953125 74.21875 31.78125 74.21875 
Q 42.671875 74.21875 48.875 69.140625 
Q 55.078125 64.0625 55.078125 55.328125 
Q 55.078125 49.078125 51.53125 44.71875 
Q 48 40.375 41.703125 38.8125 
Q 48.828125 37.15625 52.796875 32.3125 
Q 56.78125 27.484375 56.78125 20.515625 
Q 56.78125 9.90625 50.3125 4.234375 
Q 43.84375 -1.421875 31.78125 -1.421875 
Q 19.734375 -1.421875 13.25 4.234375 
Q 6.78125 9.90625 6.78125 20.515625 
Q 6.78125 27.484375 10.78125 32.3125 
Q 14.796875 37.15625 21.921875 38.8125 
z
M 18.3125 54.390625 
Q 18.3125 48.734375 21.84375 45.5625 
Q 25.390625 42.390625 31.78125 42.390625 
Q 38.140625 42.390625 41.71875 45.5625 
Q 45.3125 48.734375 45.3125 54.390625 
Q 45.3125 60.0625 41.71875 63.234375 
Q 38.140625 66.40625 31.78125 66.40625 
Q 25.390625 66.40625 21.84375 63.234375 
Q 18.3125 60.0625 18.3125 54.390625 
z
" id="DejaVuSans-38"/>
       <path d="M 31.78125 66.40625 
Q 24.171875 66.40625 20.328125 58.90625 
Q 16.5 51.421875 16.5 36.375 
Q 16.5 21.390625 20.328125 13.890625 
Q 24.171875 6.390625 31.78125 6.390625 
Q 39.453125 6.390625 43.28125 13.890625 
Q 47.125 21.390625 47.125 36.375 
Q 47.125 51.421875 43.28125 58.90625 
Q 39.453125 66.40625 31.78125 66.40625 
z
M 31.78125 74.21875 
Q 44.046875 74.21875 50.515625 64.515625 
Q 56.984375 54.828125 56.984375 36.375 
Q 56.984375 17.96875 50.515625 8.265625 
Q 44.046875 -1.421875 31.78125 -1.421875 
Q 19.53125 -1.421875 13.0625 8.265625 
Q 6.59375 17.96875 6.59375 36.375 
Q 6.59375 54.828125 13.0625 64.515625 
Q 19.53125 74.21875 31.78125 74.21875 
z
" id="DejaVuSans-30"/>
      </defs>
      <g transform="translate(115.223973 305.383219)scale(0.05 -0.05)">
       <use xlink:href="#DejaVuSans-38"/>
       <use x="63.623047" xlink:href="#DejaVuSans-30"/>
       <use x="127.246094" xlink:href="#DejaVuSans-30"/>
       <use x="190.869141" xlink:href="#DejaVuSans-30"/>
       <use x="254.492188" xlink:href="#DejaVuSans-30"/>
      </g>
     </g>
    </g>
    <g id="xtick_2">
     <g id="line2d_2">
      <g>
       <use style="stroke:#000000;stroke-width:0.2;" x="196.062824" xlink:href="#m03814e0f6b" y="307.584"/>
      </g>
     </g>
     <g id="text_2">
      <!-- 60000 -->
      <defs>
       <path d="M 33.015625 40.375 
Q 26.375 40.375 22.484375 35.828125 
Q 18.609375 31.296875 18.609375 23.390625 
Q 18.609375 15.53125 22.484375 10.953125 
Q 26.375 6.390625 33.015625 6.390625 
Q 39.65625 6.390625 43.53125 10.953125 
Q 47.40625 15.53125 47.40625 23.390625 
Q 47.40625 31.296875 43.53125 35.828125 
Q 39.65625 40.375 33.015625 40.375 
z
M 52.59375 71.296875 
L 52.59375 62.3125 
Q 48.875 64.0625 45.09375 64.984375 
Q 41.3125 65.921875 37.59375 65.921875 
Q 27.828125 65.921875 22.671875 59.328125 
Q 17.53125 52.734375 16.796875 39.40625 
Q 19.671875 43.65625 24.015625 45.921875 
Q 28.375 48.1875 33.59375 48.1875 
Q 44.578125 48.1875 50.953125 41.515625 
Q 57.328125 34.859375 57.328125 23.390625 
Q 57.328125 12.15625 50.6875 5.359375 
Q 44.046875 -1.421875 33.015625 -1.421875 
Q 20.359375 -1.421875 13.671875 8.265625 
Q 6.984375 17.96875 6.984375 36.375 
Q 6.984375 53.65625 15.1875 63.9375 
Q 23.390625 74.21875 37.203125 74.21875 
Q 40.921875 74.21875 44.703125 73.484375 
Q 48.484375 72.75 52.59375 71.296875 
z
" id="DejaVuSans-36"/>
      </defs>
      <g transform="translate(188.109699 305.383219)scale(0.05 -0.05)">
       <use xlink:href="#DejaVuSans-36"/>
       <use x="63.623047" xlink:href="#DejaVuSans-30"/>
       <use x="127.246094" xlink:href="#DejaVuSans-30"/>
       <use x="190.869141" xlink:href="#DejaVuSans-30"/>
       <use x="254.492188" xlink:href="#DejaVuSans-30"/>
      </g>
     </g>
    </g>
    <g id="xtick_3">
     <g id="line2d_3">
      <g>
       <use style="stroke:#000000;stroke-width:0.2;" x="268.948549" xlink:href="#m03814e0f6b" y="307.584"/>
      </g>
     </g>
     <g id="text_3">
      <!-- 40000 -->
      <defs>
       <path d="M 37.796875 64.3125 
L 12.890625 25.390625 
L 37.796875 25.390625 
z
M 35.203125 72.90625 
L 47.609375 72.90625 
L 47.609375 25.390625 
L 58.015625 25.390625 
L 58.015625 17.1875 
L 47.609375 17.1875 
L 47.609375 0 
L 37.796875 0 
L 37.796875 17.1875 
L 4.890625 17.1875 
L 4.890625 26.703125 
z
" id="DejaVuSans-34"/>
      </defs>
      <g transform="translate(260.995424 305.383219)scale(0.05 -0.05)">
       <use xlink:href="#DejaVuSans-34"/>
       <use x="63.623047" xlink:href="#DejaVuSans-30"/>
       <use x="127.246094" xlink:href="#DejaVuSans-30"/>
       <use x="190.869141" xlink:href="#DejaVuSans-30"/>
       <use x="254.492188" xlink:href="#DejaVuSans-30"/>
      </g>
     </g>
    </g>
    <g id="xtick_4">
     <g id="line2d_4">
      <g>
       <use style="stroke:#000000;stroke-width:0.2;" x="341.834275" xlink:href="#m03814e0f6b" y="307.584"/>
      </g>
     </g>
     <g id="text_4">
      <!-- 20000 -->
      <defs>
       <path d="M 19.1875 8.296875 
L 53.609375 8.296875 
L 53.609375 0 
L 7.328125 0 
L 7.328125 8.296875 
Q 12.9375 14.109375 22.625 23.890625 
Q 32.328125 33.6875 34.8125 36.53125 
Q 39.546875 41.84375 41.421875 45.53125 
Q 43.3125 49.21875 43.3125 52.78125 
Q 43.3125 58.59375 39.234375 62.25 
Q 35.15625 65.921875 28.609375 65.921875 
Q 23.96875 65.921875 18.8125 64.3125 
Q 13.671875 62.703125 7.8125 59.421875 
L 7.8125 69.390625 
Q 13.765625 71.78125 18.9375 73 
Q 24.125 74.21875 28.421875 74.21875 
Q 39.75 74.21875 46.484375 68.546875 
Q 53.21875 62.890625 53.21875 53.421875 
Q 53.21875 48.921875 51.53125 44.890625 
Q 49.859375 40.875 45.40625 35.40625 
Q 44.1875 33.984375 37.640625 27.21875 
Q 31.109375 20.453125 19.1875 8.296875 
z
" id="DejaVuSans-32"/>
      </defs>
      <g transform="translate(333.88115 305.383219)scale(0.05 -0.05)">
       <use xlink:href="#DejaVuSans-32"/>
       <use x="63.623047" xlink:href="#DejaVuSans-30"/>
       <use x="127.246094" xlink:href="#DejaVuSans-30"/>
       <use x="190.869141" xlink:href="#DejaVuSans-30"/>
       <use x="254.492188" xlink:href="#DejaVuSans-30"/>
      </g>
     </g>
    </g>
    <g id="xtick_5">
     <g id="line2d_5">
      <defs>
       <path d="M 0 0 
L 0 -0.5 
" id="mcb7d8492d1" style="stroke:#000000;stroke-width:0.2;"/>
      </defs>
      <g>
       <use style="stroke:#000000;stroke-width:0.2;" x="414.72" xlink:href="#mcb7d8492d1" y="307.584"/>
      </g>
     </g>
    </g>
    <g id="xtick_6">
     <g id="line2d_6">
      <g>
       <use style="stroke:#000000;stroke-width:0.2;" x="411.075714" xlink:href="#mcb7d8492d1" y="307.584"/>
      </g>
     </g>
    </g>
    <g id="xtick_7">
     <g id="line2d_7">
      <g>
       <use style="stroke:#000000;stroke-width:0.2;" x="407.431427" xlink:href="#mcb7d8492d1" y="307.584"/>
      </g>
     </g>
    </g>
    <g id="xtick_8">
     <g id="line2d_8">
      <g>
       <use style="stroke:#000000;stroke-width:0.2;" x="403.787141" xlink:href="#mcb7d8492d1" y="307.584"/>
      </g>
     </g>
    </g>
    <g id="xtick_9">
     <g id="line2d_9">
      <g>
       <use style="stroke:#000000;stroke-width:0.2;" x="400.142855" xlink:href="#mcb7d8492d1" y="307.584"/>
      </g>
     </g>
    </g>
    <g id="xtick_10">
     <g id="line2d_10">
      <g>
       <use style="stroke:#000000;stroke-width:0.2;" x="396.498569" xlink:href="#mcb7d8492d1" y="307.584"/>
      </g>
     </g>
    </g>
    <g id="xtick_11">
     <g id="line2d_11">
      <g>
       <use style="stroke:#000000;stroke-width:0.2;" x="392.854282" xlink:href="#mcb7d8492d1" y="307.584"/>
      </g>
     </g>
    </g>
    <g id="xtick_12">
     <g id="line2d_12">
      <g>
       <use style="stroke:#000000;stroke-width:0.2;" x="389.209996" xlink:href="#mcb7d8492d1" y="307.584"/>
      </g>
     </g>
    </g>
    <g id="xtick_13">
     <g id="line2d_13">
      <g>
       <use style="stroke:#000000;stroke-width:0.2;" x="385.56571" xlink:href="#mcb7d8492d1" y="307.584"/>
      </g>
     </g>
    </g>
    <g id="xtick_14">
     <g id="line2d_14">
      <g>
       <use style="stroke:#000000;stroke-width:0.2;" x="381.921424" xlink:href="#mcb7d8492d1" y="307.584"/>
      </g>
     </g>
    </g>
    <g id="xtick_15">
     <g id="line2d_15">
      <g>
       <use style="stroke:#000000;stroke-width:0.2;" x="378.277137" xlink:href="#mcb7d8492d1" y="307.584"/>
      </g>
     </g>
    </g>
    <g id="xtick_16">
     <g id="line2d_16">
      <g>
       <use style="stroke:#000000;stroke-width:0.2;" x="374.632851" xlink:href="#mcb7d8492d1" y="307.584"/>
      </g>
     </g>
    </g>
    <g id="xtick_17">
     <g id="line2d_17">
      <g>
       <use style="stroke:#000000;stroke-width:0.2;" x="370.988565" xlink:href="#mcb7d8492d1" y="307.584"/>
      </g>
     </g>
    </g>
    <g id="xtick_18">
     <g id="line2d_18">
      <g>
       <use style="stroke:#000000;stroke-width:0.2;" x="367.344278" xlink:href="#mcb7d8492d1" y="307.584"/>
      </g>
     </g>
    </g>
    <g id="xtick_19">
     <g id="line2d_19">
      <g>
       <use style="stroke:#000000;stroke-width:0.2;" x="363.699992" xlink:href="#mcb7d8492d1" y="307.584"/>
      </g>
     </g>
    </g>
    <g id="xtick_20">
     <g id="line2d_20">
      <g>
       <use style="stroke:#000000;stroke-width:0.2;" x="360.055706" xlink:href="#mcb7d8492d1" y="307.584"/>
      </g>
     </g>
    </g>
    <g id="xtick_21">
     <g id="line2d_21">
      <g>
       <use style="stroke:#000000;stroke-width:0.2;" x="356.41142" xlink:href="#mcb7d8492d1" y="307.584"/>
      </g>
     </g>
    </g>
    <g id="xtick_22">
     <g id="line2d_22">
      <g>
       <use style="stroke:#000000;stroke-width:0.2;" x="352.767133" xlink:href="#mcb7d8492d1" y="307.584"/>
      </g>
     </g>
    </g>
    <g id="xtick_23">
     <g id="line2d_23">
      <g>
       <use style="stroke:#000000;stroke-width:0.2;" x="349.122847" xlink:href="#mcb7d8492d1" y="307.584"/>
      </g>
     </g>
    </g>
    <g id="xtick_24">
     <g id="line2d_24">
      <g>
       <use style="stroke:#000000;stroke-width:0.2;" x="345.478561" xlink:href="#mcb7d8492d1" y="307.584"/>
      </g>
     </g>
    </g>
    <g id="xtick_25">
     <g id="line2d_25">
      <g>
       <use style="stroke:#000000;stroke-width:0.2;" x="341.834275" xlink:href="#mcb7d8492d1" y="307.584"/>
      </g>
     </g>
    </g>
    <g id="xtick_26">
     <g id="line2d_26">
      <g>
       <use style="stroke:#000000;stroke-width:0.2;" x="338.189988" xlink:href="#mcb7d8492d1" y="307.584"/>
      </g>
     </g>
    </g>
    <g id="xtick_27">
     <g id="line2d_27">
      <g>
       <use style="stroke:#000000;stroke-width:0.2;" x="334.545702" xlink:href="#mcb7d8492d1" y="307.584"/>
      </g>
     </g>
    </g>
    <g id="xtick_28">
     <g id="line2d_28">
      <g>
       <use style="stroke:#000000;stroke-width:0.2;" x="330.901416" xlink:href="#mcb7d8492d1" y="307.584"/>
      </g>
     </g>
    </g>
    <g id="xtick_29">
     <g id="line2d_29">
      <g>
       <use style="stroke:#000000;stroke-width:0.2;" x="327.257129" xlink:href="#mcb7d8492d1" y="307.584"/>
      </g>
     </g>
    </g>
    <g id="xtick_30">
     <g id="line2d_30">
      <g>
       <use style="stroke:#000000;stroke-width:0.2;" x="323.612843" xlink:href="#mcb7d8492d1" y="307.584"/>
      </g>
     </g>
    </g>
    <g id="xtick_31">
     <g id="line2d_31">
      <g>
       <use style="stroke:#000000;stroke-width:0.2;" x="319.968557" xlink:href="#mcb7d8492d1" y="307.584"/>
      </g>
     </g>
    </g>
    <g id="xtick_32">
     <g id="line2d_32">
      <g>
       <use style="stroke:#000000;stroke-width:0.2;" x="316.324271" xlink:href="#mcb7d8492d1" y="307.584"/>
      </g>
     </g>
    </g>
    <g id="xtick_33">
     <g id="line2d_33">
      <g>
       <use style="stroke:#000000;stroke-width:0.2;" x="312.679984" xlink:href="#mcb7d8492d1" y="307.584"/>
      </g>
     </g>
    </g>
    <g id="xtick_34">
     <g id="line2d_34">
      <g>
       <use style="stroke:#000000;stroke-width:0.2;" x="309.035698" xlink:href="#mcb7d8492d1" y="307.584"/>
      </g>
     </g>
    </g>
    <g id="xtick_35">
     <g id="line2d_35">
      <g>
       <use style="stroke:#000000;stroke-width:0.2;" x="305.391412" xlink:href="#mcb7d8492d1" y="307.584"/>
      </g>
     </g>
    </g>
    <g id="xtick_36">
     <g id="line2d_36">
      <g>
       <use style="stroke:#000000;stroke-width:0.2;" x="301.747126" xlink:href="#mcb7d8492d1" y="307.584"/>
      </g>
     </g>
    </g>
    <g id="xtick_37">
     <g id="line2d_37">
      <g>
       <use style="stroke:#000000;stroke-width:0.2;" x="298.102839" xlink:href="#mcb7d8492d1" y="307.584"/>
      </g>
     </g>
    </g>
    <g id="xtick_38">
     <g id="line2d_38">
      <g>
       <use style="stroke:#000000;stroke-width:0.2;" x="294.458553" xlink:href="#mcb7d8492d1" y="307.584"/>
      </g>
     </g>
    </g>
    <g id="xtick_39">
     <g id="line2d_39">
      <g>
       <use style="stroke:#000000;stroke-width:0.2;" x="290.814267" xlink:href="#mcb7d8492d1" y="307.584"/>
      </g>
     </g>
    </g>
    <g id="xtick_40">
     <g id="line2d_40">
      <g>
       <use style="stroke:#000000;stroke-width:0.2;" x="287.16998" xlink:href="#mcb7d8492d1" y="307.584"/>
      </g>
     </g>
    </g>
    <g id="xtick_41">
     <g id="line2d_41">
      <g>
       <use style="stroke:#000000;stroke-width:0.2;" x="283.525694" xlink:href="#mcb7d8492d1" y="307.584"/>
      </g>
     </g>
    </g>
    <g id="xtick_42">
     <g id="line2d_42">
      <g>
       <use style="stroke:#000000;stroke-width:0.2;" x="279.881408" xlink:href="#mcb7d8492d1" y="307.584"/>
      </g>
     </g>
    </g>
    <g id="xtick_43">
     <g id="line2d_43">
      <g>
       <use style="stroke:#000000;stroke-width:0.2;" x="276.237122" xlink:href="#mcb7d8492d1" y="307.584"/>
      </g>
     </g>
    </g>
    <g id="xtick_44">
     <g id="line2d_44">
      <g>
       <use style="stroke:#000000;stroke-width:0.2;" x="272.592835" xlink:href="#mcb7d8492d1" y="307.584"/>
      </g>
     </g>
    </g>
    <g id="xtick_45">
     <g id="line2d_45">
      <g>
       <use style="stroke:#000000;stroke-width:0.2;" x="268.948549" xlink:href="#mcb7d8492d1" y="307.584"/>
      </g>
     </g>
    </g>
    <g id="xtick_46">
     <g id="line2d_46">
      <g>
       <use style="stroke:#000000;stroke-width:0.2;" x="265.304263" xlink:href="#mcb7d8492d1" y="307.584"/>
      </g>
     </g>
    </g>
    <g id="xtick_47">
     <g id="line2d_47">
      <g>
       <use style="stroke:#000000;stroke-width:0.2;" x="261.659977" xlink:href="#mcb7d8492d1" y="307.584"/>
      </g>
     </g>
    </g>
    <g id="xtick_48">
     <g id="line2d_48">
      <g>
       <use style="stroke:#000000;stroke-width:0.2;" x="258.01569" xlink:href="#mcb7d8492d1" y="307.584"/>
      </g>
     </g>
    </g>
    <g id="xtick_49">
     <g id="line2d_49">
      <g>
       <use style="stroke:#000000;stroke-width:0.2;" x="254.371404" xlink:href="#mcb7d8492d1" y="307.584"/>
      </g>
     </g>
    </g>
    <g id="xtick_50">
     <g id="line2d_50">
      <g>
       <use style="stroke:#000000;stroke-width:0.2;" x="250.727118" xlink:href="#mcb7d8492d1" y="307.584"/>
      </g>
     </g>
    </g>
    <g id="xtick_51">
     <g id="line2d_51">
      <g>
       <use style="stroke:#000000;stroke-width:0.2;" x="247.082831" xlink:href="#mcb7d8492d1" y="307.584"/>
      </g>
     </g>
    </g>
    <g id="xtick_52">
     <g id="line2d_52">
      <g>
       <use style="stroke:#000000;stroke-width:0.2;" x="243.438545" xlink:href="#mcb7d8492d1" y="307.584"/>
      </g>
     </g>
    </g>
    <g id="xtick_53">
     <g id="line2d_53">
      <g>
       <use style="stroke:#000000;stroke-width:0.2;" x="239.794259" xlink:href="#mcb7d8492d1" y="307.584"/>
      </g>
     </g>
    </g>
    <g id="xtick_54">
     <g id="line2d_54">
      <g>
       <use style="stroke:#000000;stroke-width:0.2;" x="236.149973" xlink:href="#mcb7d8492d1" y="307.584"/>
      </g>
     </g>
    </g>
    <g id="xtick_55">
     <g id="line2d_55">
      <g>
       <use style="stroke:#000000;stroke-width:0.2;" x="232.505686" xlink:href="#mcb7d8492d1" y="307.584"/>
      </g>
     </g>
    </g>
    <g id="xtick_56">
     <g id="line2d_56">
      <g>
       <use style="stroke:#000000;stroke-width:0.2;" x="228.8614" xlink:href="#mcb7d8492d1" y="307.584"/>
      </g>
     </g>
    </g>
    <g id="xtick_57">
     <g id="line2d_57">
      <g>
       <use style="stroke:#000000;stroke-width:0.2;" x="225.217114" xlink:href="#mcb7d8492d1" y="307.584"/>
      </g>
     </g>
    </g>
    <g id="xtick_58">
     <g id="line2d_58">
      <g>
       <use style="stroke:#000000;stroke-width:0.2;" x="221.572828" xlink:href="#mcb7d8492d1" y="307.584"/>
      </g>
     </g>
    </g>
    <g id="xtick_59">
     <g id="line2d_59">
      <g>
       <use style="stroke:#000000;stroke-width:0.2;" x="217.928541" xlink:href="#mcb7d8492d1" y="307.584"/>
      </g>
     </g>
    </g>
    <g id="xtick_60">
     <g id="line2d_60">
      <g>
       <use style="stroke:#000000;stroke-width:0.2;" x="214.284255" xlink:href="#mcb7d8492d1" y="307.584"/>
      </g>
     </g>
    </g>
    <g id="xtick_61">
     <g id="line2d_61">
      <g>
       <use style="stroke:#000000;stroke-width:0.2;" x="210.639969" xlink:href="#mcb7d8492d1" y="307.584"/>
      </g>
     </g>
    </g>
    <g id="xtick_62">
     <g id="line2d_62">
      <g>
       <use style="stroke:#000000;stroke-width:0.2;" x="206.995682" xlink:href="#mcb7d8492d1" y="307.584"/>
      </g>
     </g>
    </g>
    <g id="xtick_63">
     <g id="line2d_63">
      <g>
       <use style="stroke:#000000;stroke-width:0.2;" x="203.351396" xlink:href="#mcb7d8492d1" y="307.584"/>
      </g>
     </g>
    </g>
    <g id="xtick_64">
     <g id="line2d_64">
      <g>
       <use style="stroke:#000000;stroke-width:0.2;" x="199.70711" xlink:href="#mcb7d8492d1" y="307.584"/>
      </g>
     </g>
    </g>
    <g id="xtick_65">
     <g id="line2d_65">
      <g>
       <use style="stroke:#000000;stroke-width:0.2;" x="196.062824" xlink:href="#mcb7d8492d1" y="307.584"/>
      </g>
     </g>
    </g>
    <g id="xtick_66">
     <g id="line2d_66">
      <g>
       <use style="stroke:#000000;stroke-width:0.2;" x="192.418537" xlink:href="#mcb7d8492d1" y="307.584"/>
      </g>
     </g>
    </g>
    <g id="xtick_67">
     <g id="line2d_67">
      <g>
       <use style="stroke:#000000;stroke-width:0.2;" x="188.774251" xlink:href="#mcb7d8492d1" y="307.584"/>
      </g>
     </g>
    </g>
    <g id="xtick_68">
     <g id="line2d_68">
      <g>
       <use style="stroke:#000000;stroke-width:0.2;" x="185.129965" xlink:href="#mcb7d8492d1" y="307.584"/>
      </g>
     </g>
    </g>
    <g id="xtick_69">
     <g id="line2d_69">
      <g>
       <use style="stroke:#000000;stroke-width:0.2;" x="181.485678" xlink:href="#mcb7d8492d1" y="307.584"/>
      </g>
     </g>
    </g>
    <g id="xtick_70">
     <g id="line2d_70">
      <g>
       <use style="stroke:#000000;stroke-width:0.2;" x="177.841392" xlink:href="#mcb7d8492d1" y="307.584"/>
      </g>
     </g>
    </g>
    <g id="xtick_71">
     <g id="line2d_71">
      <g>
       <use style="stroke:#000000;stroke-width:0.2;" x="174.197106" xlink:href="#mcb7d8492d1" y="307.584"/>
      </g>
     </g>
    </g>
    <g id="xtick_72">
     <g id="line2d_72">
      <g>
       <use style="stroke:#000000;stroke-width:0.2;" x="170.55282" xlink:href="#mcb7d8492d1" y="307.584"/>
      </g>
     </g>
    </g>
    <g id="xtick_73">
     <g id="line2d_73">
      <g>
       <use style="stroke:#000000;stroke-width:0.2;" x="166.908533" xlink:href="#mcb7d8492d1" y="307.584"/>
      </g>
     </g>
    </g>
    <g id="xtick_74">
     <g id="line2d_74">
      <g>
       <use style="stroke:#000000;stroke-width:0.2;" x="163.264247" xlink:href="#mcb7d8492d1" y="307.584"/>
      </g>
     </g>
    </g>
    <g id="xtick_75">
     <g id="line2d_75">
      <g>
       <use style="stroke:#000000;stroke-width:0.2;" x="159.619961" xlink:href="#mcb7d8492d1" y="307.584"/>
      </g>
     </g>
    </g>
    <g id="xtick_76">
     <g id="line2d_76">
      <g>
       <use style="stroke:#000000;stroke-width:0.2;" x="155.975675" xlink:href="#mcb7d8492d1" y="307.584"/>
      </g>
     </g>
    </g>
    <g id="xtick_77">
     <g id="line2d_77">
      <g>
       <use style="stroke:#000000;stroke-width:0.2;" x="152.331388" xlink:href="#mcb7d8492d1" y="307.584"/>
      </g>
     </g>
    </g>
    <g id="xtick_78">
     <g id="line2d_78">
      <g>
       <use style="stroke:#000000;stroke-width:0.2;" x="148.687102" xlink:href="#mcb7d8492d1" y="307.584"/>
      </g>
     </g>
    </g>
    <g id="xtick_79">
     <g id="line2d_79">
      <g>
       <use style="stroke:#000000;stroke-width:0.2;" x="145.042816" xlink:href="#mcb7d8492d1" y="307.584"/>
      </g>
     </g>
    </g>
    <g id="xtick_80">
     <g id="line2d_80">
      <g>
       <use style="stroke:#000000;stroke-width:0.2;" x="141.398529" xlink:href="#mcb7d8492d1" y="307.584"/>
      </g>
     </g>
    </g>
    <g id="xtick_81">
     <g id="line2d_81">
      <g>
       <use style="stroke:#000000;stroke-width:0.2;" x="137.754243" xlink:href="#mcb7d8492d1" y="307.584"/>
      </g>
     </g>
    </g>
    <g id="xtick_82">
     <g id="line2d_82">
      <g>
       <use style="stroke:#000000;stroke-width:0.2;" x="134.109957" xlink:href="#mcb7d8492d1" y="307.584"/>
      </g>
     </g>
    </g>
    <g id="xtick_83">
     <g id="line2d_83">
      <g>
       <use style="stroke:#000000;stroke-width:0.2;" x="130.465671" xlink:href="#mcb7d8492d1" y="307.584"/>
      </g>
     </g>
    </g>
    <g id="xtick_84">
     <g id="line2d_84">
      <g>
       <use style="stroke:#000000;stroke-width:0.2;" x="126.821384" xlink:href="#mcb7d8492d1" y="307.584"/>
      </g>
     </g>
    </g>
    <g id="xtick_85">
     <g id="line2d_85">
      <g>
       <use style="stroke:#000000;stroke-width:0.2;" x="123.177098" xlink:href="#mcb7d8492d1" y="307.584"/>
      </g>
     </g>
    </g>
    <g id="xtick_86">
     <g id="line2d_86">
      <g>
       <use style="stroke:#000000;stroke-width:0.2;" x="119.532812" xlink:href="#mcb7d8492d1" y="307.584"/>
      </g>
     </g>
    </g>
    <g id="xtick_87">
     <g id="line2d_87">
      <g>
       <use style="stroke:#000000;stroke-width:0.2;" x="115.888526" xlink:href="#mcb7d8492d1" y="307.584"/>
      </g>
     </g>
    </g>
    <g id="xtick_88">
     <g id="line2d_88">
      <g>
       <use style="stroke:#000000;stroke-width:0.2;" x="112.244239" xlink:href="#mcb7d8492d1" y="307.584"/>
      </g>
     </g>
    </g>
    <g id="xtick_89">
     <g id="line2d_89">
      <g>
       <use style="stroke:#000000;stroke-width:0.2;" x="108.599953" xlink:href="#mcb7d8492d1" y="307.584"/>
      </g>
     </g>
    </g>
    <g id="xtick_90">
     <g id="line2d_90">
      <g>
       <use style="stroke:#000000;stroke-width:0.2;" x="104.955667" xlink:href="#mcb7d8492d1" y="307.584"/>
      </g>
     </g>
    </g>
    <g id="xtick_91">
     <g id="line2d_91">
      <g>
       <use style="stroke:#000000;stroke-width:0.2;" x="101.31138" xlink:href="#mcb7d8492d1" y="307.584"/>
      </g>
     </g>
    </g>
    <g id="xtick_92">
     <g id="line2d_92">
      <g>
       <use style="stroke:#000000;stroke-width:0.2;" x="97.667094" xlink:href="#mcb7d8492d1" y="307.584"/>
      </g>
     </g>
    </g>
    <g id="xtick_93">
     <g id="line2d_93">
      <g>
       <use style="stroke:#000000;stroke-width:0.2;" x="94.022808" xlink:href="#mcb7d8492d1" y="307.584"/>
      </g>
     </g>
    </g>
    <g id="xtick_94">
     <g id="line2d_94">
      <g>
       <use style="stroke:#000000;stroke-width:0.2;" x="90.378522" xlink:href="#mcb7d8492d1" y="307.584"/>
      </g>
     </g>
    </g>
    <g id="xtick_95">
     <g id="line2d_95">
      <g>
       <use style="stroke:#000000;stroke-width:0.2;" x="86.734235" xlink:href="#mcb7d8492d1" y="307.584"/>
      </g>
     </g>
    </g>
    <g id="xtick_96">
     <g id="line2d_96">
      <g>
       <use style="stroke:#000000;stroke-width:0.2;" x="83.089949" xlink:href="#mcb7d8492d1" y="307.584"/>
      </g>
     </g>
    </g>
    <g id="xtick_97">
     <g id="line2d_97">
      <g>
       <use style="stroke:#000000;stroke-width:0.2;" x="79.445663" xlink:href="#mcb7d8492d1" y="307.584"/>
      </g>
     </g>
    </g>
    <g id="xtick_98">
     <g id="line2d_98">
      <g>
       <use style="stroke:#000000;stroke-width:0.2;" x="75.801377" xlink:href="#mcb7d8492d1" y="307.584"/>
      </g>
     </g>
    </g>
    <g id="xtick_99">
     <g id="line2d_99">
      <g>
       <use style="stroke:#000000;stroke-width:0.2;" x="72.15709" xlink:href="#mcb7d8492d1" y="307.584"/>
      </g>
     </g>
    </g>
    <g id="xtick_100">
     <g id="line2d_100">
      <g>
       <use style="stroke:#000000;stroke-width:0.2;" x="68.512804" xlink:href="#mcb7d8492d1" y="307.584"/>
      </g>
     </g>
    </g>
    <g id="xtick_101">
     <g id="line2d_101">
      <g>
       <use style="stroke:#000000;stroke-width:0.2;" x="64.868518" xlink:href="#mcb7d8492d1" y="307.584"/>
      </g>
     </g>
    </g>
    <g id="xtick_102">
     <g id="line2d_102">
      <g>
       <use style="stroke:#000000;stroke-width:0.2;" x="61.224231" xlink:href="#mcb7d8492d1" y="307.584"/>
      </g>
     </g>
    </g>
   </g>
   <g id="matplotlib.axis_2">
    <g id="ytick_1">
     <g id="line2d_103">
      <defs>
       <path d="M 0 0 
L 1 0 
" id="m56ff2da7e1" style="stroke:#000000;stroke-width:0.2;"/>
      </defs>
      <g>
       <use style="stroke:#000000;stroke-width:0.2;" x="57.6" xlink:href="#m56ff2da7e1" y="289.8432"/>
      </g>
     </g>
     <g id="text_5">
      <!-- 100 -->
      <defs>
       <path d="M 12.40625 8.296875 
L 28.515625 8.296875 
L 28.515625 63.921875 
L 10.984375 60.40625 
L 10.984375 69.390625 
L 28.421875 72.90625 
L 38.28125 72.90625 
L 38.28125 8.296875 
L 54.390625 8.296875 
L 54.390625 0 
L 12.40625 0 
z
" id="DejaVuSans-31"/>
      </defs>
      <g transform="translate(62.05625 291.742809)scale(0.05 -0.05)">
       <use xlink:href="#DejaVuSans-31"/>
       <use x="63.623047" xlink:href="#DejaVuSans-30"/>
       <use x="127.246094" xlink:href="#DejaVuSans-30"/>
      </g>
     </g>
    </g>
    <g id="ytick_2">
     <g id="line2d_104">
      <g>
       <use style="stroke:#000000;stroke-width:0.2;" x="57.6" xlink:href="#m56ff2da7e1" y="272.1024"/>
      </g>
     </g>
     <g id="text_6">
      <!-- 200 -->
      <g transform="translate(62.05625 274.002009)scale(0.05 -0.05)">
       <use xlink:href="#DejaVuSans-32"/>
       <use x="63.623047" xlink:href="#DejaVuSans-30"/>
       <use x="127.246094" xlink:href="#DejaVuSans-30"/>
      </g>
     </g>
    </g>
    <g id="ytick_3">
     <g id="line2d_105">
      <g>
       <use style="stroke:#000000;stroke-width:0.2;" x="57.6" xlink:href="#m56ff2da7e1" y="254.3616"/>
      </g>
     </g>
     <g id="text_7">
      <!-- 300 -->
      <defs>
       <path d="M 40.578125 39.3125 
Q 47.65625 37.796875 51.625 33 
Q 55.609375 28.21875 55.609375 21.1875 
Q 55.609375 10.40625 48.1875 4.484375 
Q 40.765625 -1.421875 27.09375 -1.421875 
Q 22.515625 -1.421875 17.65625 -0.515625 
Q 12.796875 0.390625 7.625 2.203125 
L 7.625 11.71875 
Q 11.71875 9.328125 16.59375 8.109375 
Q 21.484375 6.890625 26.8125 6.890625 
Q 36.078125 6.890625 40.9375 10.546875 
Q 45.796875 14.203125 45.796875 21.1875 
Q 45.796875 27.640625 41.28125 31.265625 
Q 36.765625 34.90625 28.71875 34.90625 
L 20.21875 34.90625 
L 20.21875 43.015625 
L 29.109375 43.015625 
Q 36.375 43.015625 40.234375 45.921875 
Q 44.09375 48.828125 44.09375 54.296875 
Q 44.09375 59.90625 40.109375 62.90625 
Q 36.140625 65.921875 28.71875 65.921875 
Q 24.65625 65.921875 20.015625 65.03125 
Q 15.375 64.15625 9.8125 62.3125 
L 9.8125 71.09375 
Q 15.4375 72.65625 20.34375 73.4375 
Q 25.25 74.21875 29.59375 74.21875 
Q 40.828125 74.21875 47.359375 69.109375 
Q 53.90625 64.015625 53.90625 55.328125 
Q 53.90625 49.265625 50.4375 45.09375 
Q 46.96875 40.921875 40.578125 39.3125 
z
" id="DejaVuSans-33"/>
      </defs>
      <g transform="translate(62.05625 256.261209)scale(0.05 -0.05)">
       <use xlink:href="#DejaVuSans-33"/>
       <use x="63.623047" xlink:href="#DejaVuSans-30"/>
       <use x="127.246094" xlink:href="#DejaVuSans-30"/>
      </g>
     </g>
    </g>
    <g id="ytick_4">
     <g id="line2d_106">
      <g>
       <use style="stroke:#000000;stroke-width:0.2;" x="57.6" xlink:href="#m56ff2da7e1" y="236.6208"/>
      </g>
     </g>
     <g id="text_8">
      <!-- 400 -->
      <g transform="translate(62.05625 238.520409)scale(0.05 -0.05)">
       <use xlink:href="#DejaVuSans-34"/>
       <use x="63.623047" xlink:href="#DejaVuSans-30"/>
       <use x="127.246094" xlink:href="#DejaVuSans-30"/>
      </g>
     </g>
    </g>
    <g id="ytick_5">
     <g id="line2d_107">
      <g>
       <use style="stroke:#000000;stroke-width:0.2;" x="57.6" xlink:href="#m56ff2da7e1" y="218.88"/>
      </g>
     </g>
     <g id="text_9">
      <!-- 500 -->
      <defs>
       <path d="M 10.796875 72.90625 
L 49.515625 72.90625 
L 49.515625 64.59375 
L 19.828125 64.59375 
L 19.828125 46.734375 
Q 21.96875 47.46875 24.109375 47.828125 
Q 26.265625 48.1875 28.421875 48.1875 
Q 40.625 48.1875 47.75 41.5 
Q 54.890625 34.8125 54.890625 23.390625 
Q 54.890625 11.625 47.5625 5.09375 
Q 40.234375 -1.421875 26.90625 -1.421875 
Q 22.3125 -1.421875 17.546875 -0.640625 
Q 12.796875 0.140625 7.71875 1.703125 
L 7.71875 11.625 
Q 12.109375 9.234375 16.796875 8.0625 
Q 21.484375 6.890625 26.703125 6.890625 
Q 35.15625 6.890625 40.078125 11.328125 
Q 45.015625 15.765625 45.015625 23.390625 
Q 45.015625 31 40.078125 35.4375 
Q 35.15625 39.890625 26.703125 39.890625 
Q 22.75 39.890625 18.8125 39.015625 
Q 14.890625 38.140625 10.796875 36.28125 
z
" id="DejaVuSans-35"/>
      </defs>
      <g transform="translate(62.05625 220.779609)scale(0.05 -0.05)">
       <use xlink:href="#DejaVuSans-35"/>
       <use x="63.623047" xlink:href="#DejaVuSans-30"/>
       <use x="127.246094" xlink:href="#DejaVuSans-30"/>
      </g>
     </g>
    </g>
    <g id="ytick_6">
     <g id="line2d_108">
      <g>
       <use style="stroke:#000000;stroke-width:0.2;" x="57.6" xlink:href="#m56ff2da7e1" y="201.1392"/>
      </g>
     </g>
     <g id="text_10">
      <!-- 600 -->
      <g transform="translate(62.05625 203.038809)scale(0.05 -0.05)">
       <use xlink:href="#DejaVuSans-36"/>
       <use x="63.623047" xlink:href="#DejaVuSans-30"/>
       <use x="127.246094" xlink:href="#DejaVuSans-30"/>
      </g>
     </g>
    </g>
    <g id="ytick_7">
     <g id="line2d_109">
      <g>
       <use style="stroke:#000000;stroke-width:0.2;" x="57.6" xlink:href="#m56ff2da7e1" y="183.3984"/>
      </g>
     </g>
     <g id="text_11">
      <!-- 700 -->
      <defs>
       <path d="M 8.203125 72.90625 
L 55.078125 72.90625 
L 55.078125 68.703125 
L 28.609375 0 
L 18.3125 0 
L 43.21875 64.59375 
L 8.203125 64.59375 
z
" id="DejaVuSans-37"/>
      </defs>
      <g transform="translate(62.05625 185.298009)scale(0.05 -0.05)">
       <use xlink:href="#DejaVuSans-37"/>
       <use x="63.623047" xlink:href="#DejaVuSans-30"/>
       <use x="127.246094" xlink:href="#DejaVuSans-30"/>
      </g>
     </g>
    </g>
    <g id="ytick_8">
     <g id="line2d_110">
      <g>
       <use style="stroke:#000000;stroke-width:0.2;" x="57.6" xlink:href="#m56ff2da7e1" y="165.6576"/>
      </g>
     </g>
     <g id="text_12">
      <!-- 800 -->
      <g transform="translate(62.05625 167.557209)scale(0.05 -0.05)">
       <use xlink:href="#DejaVuSans-38"/>
       <use x="63.623047" xlink:href="#DejaVuSans-30"/>
       <use x="127.246094" xlink:href="#DejaVuSans-30"/>
      </g>
     </g>
    </g>
    <g id="ytick_9">
     <g id="line2d_111">
      <g>
       <use style="stroke:#000000;stroke-width:0.2;" x="57.6" xlink:href="#m56ff2da7e1" y="147.9168"/>
      </g>
     </g>
     <g id="text_13">
      <!-- 900 -->
      <defs>
       <path d="M 10.984375 1.515625 
L 10.984375 10.5 
Q 14.703125 8.734375 18.5 7.8125 
Q 22.3125 6.890625 25.984375 6.890625 
Q 35.75 6.890625 40.890625 13.453125 
Q 46.046875 20.015625 46.78125 33.40625 
Q 43.953125 29.203125 39.59375 26.953125 
Q 35.25 24.703125 29.984375 24.703125 
Q 19.046875 24.703125 12.671875 31.3125 
Q 6.296875 37.9375 6.296875 49.421875 
Q 6.296875 60.640625 12.9375 67.421875 
Q 19.578125 74.21875 30.609375 74.21875 
Q 43.265625 74.21875 49.921875 64.515625 
Q 56.59375 54.828125 56.59375 36.375 
Q 56.59375 19.140625 48.40625 8.859375 
Q 40.234375 -1.421875 26.421875 -1.421875 
Q 22.703125 -1.421875 18.890625 -0.6875 
Q 15.09375 0.046875 10.984375 1.515625 
z
M 30.609375 32.421875 
Q 37.25 32.421875 41.125 36.953125 
Q 45.015625 41.5 45.015625 49.421875 
Q 45.015625 57.28125 41.125 61.84375 
Q 37.25 66.40625 30.609375 66.40625 
Q 23.96875 66.40625 20.09375 61.84375 
Q 16.21875 57.28125 16.21875 49.421875 
Q 16.21875 41.5 20.09375 36.953125 
Q 23.96875 32.421875 30.609375 32.421875 
z
" id="DejaVuSans-39"/>
      </defs>
      <g transform="translate(62.05625 149.816409)scale(0.05 -0.05)">
       <use xlink:href="#DejaVuSans-39"/>
       <use x="63.623047" xlink:href="#DejaVuSans-30"/>
       <use x="127.246094" xlink:href="#DejaVuSans-30"/>
      </g>
     </g>
    </g>
    <g id="ytick_10">
     <g id="line2d_112">
      <g>
       <use style="stroke:#000000;stroke-width:0.2;" x="57.6" xlink:href="#m56ff2da7e1" y="130.176"/>
      </g>
     </g>
     <g id="text_14">
      <!-- 1000 -->
      <g transform="translate(58.875 132.075609)scale(0.05 -0.05)">
       <use xlink:href="#DejaVuSans-31"/>
       <use x="63.623047" xlink:href="#DejaVuSans-30"/>
       <use x="127.246094" xlink:href="#DejaVuSans-30"/>
       <use x="190.869141" xlink:href="#DejaVuSans-30"/>
      </g>
     </g>
    </g>
    <g id="ytick_11">
     <g id="line2d_113">
      <g>
       <use style="stroke:#000000;stroke-width:0.2;" x="57.6" xlink:href="#m56ff2da7e1" y="112.4352"/>
      </g>
     </g>
     <g id="text_15">
      <!-- 1100 -->
      <g transform="translate(58.875 114.334809)scale(0.05 -0.05)">
       <use xlink:href="#DejaVuSans-31"/>
       <use x="63.623047" xlink:href="#DejaVuSans-31"/>
       <use x="127.246094" xlink:href="#DejaVuSans-30"/>
       <use x="190.869141" xlink:href="#DejaVuSans-30"/>
      </g>
     </g>
    </g>
    <g id="ytick_12">
     <g id="line2d_114">
      <g>
       <use style="stroke:#000000;stroke-width:0.2;" x="57.6" xlink:href="#m56ff2da7e1" y="94.6944"/>
      </g>
     </g>
     <g id="text_16">
      <!-- 1200 -->
      <g transform="translate(58.875 96.594009)scale(0.05 -0.05)">
       <use xlink:href="#DejaVuSans-31"/>
       <use x="63.623047" xlink:href="#DejaVuSans-32"/>
       <use x="127.246094" xlink:href="#DejaVuSans-30"/>
       <use x="190.869141" xlink:href="#DejaVuSans-30"/>
      </g>
     </g>
    </g>
    <g id="ytick_13">
     <g id="line2d_115">
      <g>
       <use style="stroke:#000000;stroke-width:0.2;" x="57.6" xlink:href="#m56ff2da7e1" y="76.9536"/>
      </g>
     </g>
     <g id="text_17">
      <!-- 1300 -->
      <g transform="translate(58.875 78.853209)scale(0.05 -0.05)">
       <use xlink:href="#DejaVuSans-31"/>
       <use x="63.623047" xlink:href="#DejaVuSans-33"/>
       <use x="127.246094" xlink:href="#DejaVuSans-30"/>
       <use x="190.869141" xlink:href="#DejaVuSans-30"/>
      </g>
     </g>
    </g>
    <g id="ytick_14">
     <g id="line2d_116">
      <g>
       <use style="stroke:#000000;stroke-width:0.2;" x="57.6" xlink:href="#m56ff2da7e1" y="59.2128"/>
      </g>
     </g>
     <g id="text_18">
      <!-- 1400 -->
      <g transform="translate(58.875 61.112409)scale(0.05 -0.05)">
       <use xlink:href="#DejaVuSans-31"/>
       <use x="63.623047" xlink:href="#DejaVuSans-34"/>
       <use x="127.246094" xlink:href="#DejaVuSans-30"/>
       <use x="190.869141" xlink:href="#DejaVuSans-30"/>
      </g>
     </g>
    </g>
   </g>
   <g id="line2d_117">
    <path clip-path="url(#p8425fc6c5f)" d="M 414.72 300.808858 
L 398.648796 296.786727 
L 385.310792 293.676065 
L 374.487321 291.373319 
L 365.777511 289.736259 
L 359.072036 288.68619 
L 354.042914 288.105381 
L 353.095396 288.023483 
L 353.095396 288.023483 
" style="fill:none;stroke:#0000ff;stroke-linecap:square;stroke-width:0.2;"/>
   </g>
   <g id="line2d_118">
    <path clip-path="url(#p8425fc6c5f)" d="M 414.72 300.808858 
L 398.612357 296.753893 
L 385.20147 293.606019 
L 374.268673 291.262029 
L 365.413094 289.580325 
L 358.525407 288.484159 
L 353.350515 287.86844 
L 351.965681 287.746766 
L 351.965681 287.746766 
" style="fill:none;stroke:#0000ff;stroke-linecap:square;stroke-width:0.2;"/>
   </g>
   <g id="line2d_119">
    <path clip-path="url(#p8425fc6c5f)" d="M 414.72 300.808858 
L 398.61236 296.729872 
L 385.128591 293.543899 
L 374.086468 291.157525 
L 365.08512 289.429673 
L 358.088106 288.298026 
L 351.200397 287.493811 
L 350.763081 287.458383 
L 350.763081 287.458383 
" style="fill:none;stroke:#0000ff;stroke-linecap:square;stroke-width:0.2;"/>
   </g>
   <g id="line2d_120">
    <path clip-path="url(#p8425fc6c5f)" d="M 414.72 300.808858 
L 398.575921 296.696879 
L 385.019269 293.47326 
L 373.86782 291.044966 
L 364.720703 289.271428 
L 357.614363 288.104929 
L 351.819946 287.368145 
L 349.487596 287.158283 
L 349.487596 287.158283 
" style="fill:none;stroke:#0000ff;stroke-linecap:square;stroke-width:0.2;"/>
   </g>
   <g id="line2d_121">
    <path clip-path="url(#p8425fc6c5f)" d="M 414.72 300.808858 
L 398.575925 296.672807 
L 384.982832 293.419028 
L 373.685615 290.939324 
L 364.429172 289.125471 
L 355.646465 287.688158 
L 350.143589 287.019128 
L 348.175668 286.848922 
L 348.175668 286.848922 
" style="fill:none;stroke:#0000ff;stroke-linecap:square;stroke-width:0.2;"/>
   </g>
   <g id="line2d_122">
    <path clip-path="url(#p8425fc6c5f)" d="M 414.72 300.808858 
L 398.539486 296.639653 
L 384.87351 293.347853 
L 373.466967 290.825495 
L 364.101198 288.972996 
L 355.865136 287.586406 
L 349.997836 286.819988 
L 346.790855 286.527187 
L 346.790855 286.527187 
" style="fill:none;stroke:#0000ff;stroke-linecap:square;stroke-width:0.2;"/>
   </g>
   <g id="line2d_123">
    <path clip-path="url(#p8425fc6c5f)" d="M 414.72 300.808858 
L 398.539489 296.61553 
L 384.800631 293.284835 
L 373.284762 290.718712 
L 363.773224 288.818524 
L 355.755821 287.439585 
L 349.596982 286.596217 
L 345.296714 286.190004 
L 345.296714 286.190004 
" style="fill:none;stroke:#0000ff;stroke-linecap:square;stroke-width:0.2;"/>
   </g>
   <g id="line2d_124">
    <path clip-path="url(#p8425fc6c5f)" d="M 414.72 300.808858 
L 398.50305 296.582216 
L 384.691309 293.213066 
L 373.066115 290.603613 
L 363.408808 288.655696 
L 355.427849 287.259475 
L 349.013913 286.350822 
L 344.057674 285.862892 
L 343.76613 285.842231 
L 343.76613 285.842231 
" style="fill:none;stroke:#0000ff;stroke-linecap:square;stroke-width:0.2;"/>
   </g>
   <g id="line2d_125">
    <path clip-path="url(#p8425fc6c5f)" d="M 414.72 300.808858 
L 398.503053 296.558042 
L 384.654873 293.158167 
L 372.920352 290.503535 
L 363.080834 288.498509 
L 354.954107 287.055198 
L 348.285073 286.085347 
L 343.146623 285.552206 
L 342.126219 285.478046 
L 342.126219 285.478046 
" style="fill:none;stroke:#0000ff;stroke-linecap:square;stroke-width:0.2;"/>
   </g>
   <g id="line2d_126">
    <path clip-path="url(#p8425fc6c5f)" d="M 414.72 300.808858 
L 398.466614 296.524568 
L 384.545551 293.085862 
L 372.701705 290.387229 
L 362.716418 288.33327 
L 354.371036 286.831355 
L 347.483348 285.807345 
L 342.126242 285.226471 
L 340.376979 285.09691 
L 340.376979 285.09691 
" style="fill:none;stroke:#0000ff;stroke-linecap:square;stroke-width:0.2;"/>
   </g>
   <g id="line2d_127">
    <path clip-path="url(#p8425fc6c5f)" d="M 414.72 300.808858 
L 398.430175 296.490987 
L 384.436229 293.013231 
L 372.483057 290.270265 
L 362.279116 288.152695 
L 353.71508 286.593171 
L 346.64518 285.520905 
L 341.069419 284.890763 
L 338.518411 284.69818 
L 338.518411 284.69818 
" style="fill:none;stroke:#0000ff;stroke-linecap:square;stroke-width:0.2;"/>
   </g>
   <g id="line2d_128">
    <path clip-path="url(#p8425fc6c5f)" d="M 414.72 300.808858 
L 398.430179 296.466708 
L 384.36335 292.949044 
L 372.300853 290.160617 
L 362.024028 288.0067 
L 353.204895 286.377327 
L 345.879898 285.240696 
L 340.049039 284.551927 
L 336.550515 284.280862 
L 336.550515 284.280862 
" style="fill:none;stroke:#0000ff;stroke-linecap:square;stroke-width:0.2;"/>
   </g>
   <g id="line2d_129">
    <path clip-path="url(#p8425fc6c5f)" d="M 414.72 300.808858 
L 398.393739 296.432966 
L 384.290471 292.884647 
L 372.118648 290.05037 
L 361.732498 287.852762 
L 352.69471 286.159814 
L 345.114616 284.957399 
L 339.02866 284.207263 
L 334.436848 283.841696 
L 334.436848 283.841696 
" style="fill:none;stroke:#0000ff;stroke-linecap:square;stroke-width:0.2;"/>
   </g>
   <g id="line2d_130">
    <path clip-path="url(#p8425fc6c5f)" d="M 414.72 300.808858 
L 398.393743 296.408637 
L 384.217592 292.820039 
L 371.936443 289.939557 
L 361.404524 287.690615 
L 352.184525 285.940642 
L 344.349334 284.671109 
L 337.971838 283.853274 
L 332.942714 283.422261 
L 332.140968 283.377604 
L 332.140968 283.377604 
" style="fill:none;stroke:#0000ff;stroke-linecap:square;stroke-width:0.2;"/>
   </g>
   <g id="line2d_131">
    <path clip-path="url(#p8425fc6c5f)" d="M 414.72 300.808858 
L 398.357304 296.374734 
L 384.108271 292.746276 
L 371.717796 289.819965 
L 360.967223 287.505148 
L 351.52857 285.693729 
L 343.438281 284.360113 
L 336.769245 283.477348 
L 331.485023 282.991704 
L 329.62643 282.885442 
L 329.62643 282.885442 
" style="fill:none;stroke:#0000ff;stroke-linecap:square;stroke-width:0.2;"/>
   </g>
   <g id="line2d_132">
    <path clip-path="url(#p8425fc6c5f)" d="M 414.72 300.808858 
L 398.357307 296.350354 
L 384.071834 292.69019 
L 371.535592 289.708019 
L 360.602807 287.333251 
L 350.981942 285.464244 
L 342.636556 284.061904 
L 335.639538 283.10338 
L 330.027333 282.549111 
L 326.893237 282.363694 
L 326.893237 282.363694 
" style="fill:none;stroke:#0000ff;stroke-linecap:square;stroke-width:0.2;"/>
   </g>
   <g id="line2d_133">
    <path clip-path="url(#p8425fc6c5f)" d="M 414.72 300.808858 
L 398.320868 296.316291 
L 383.962513 292.61589 
L 371.316944 289.5872 
L 360.165506 287.145049 
L 350.325987 285.212815 
L 341.689061 283.737826 
L 334.36406 282.70582 
L 328.423871 282.083763 
L 323.904944 281.808437 
L 323.904944 281.808437 
" style="fill:none;stroke:#0000ff;stroke-linecap:square;stroke-width:0.2;"/>
   </g>
   <g id="line2d_134">
    <path clip-path="url(#p8425fc6c5f)" d="M 414.72 300.808858 
L 398.320872 296.291858 
L 383.889634 292.550381 
L 371.13474 289.47416 
L 359.801091 286.970712 
L 349.742917 284.972611 
L 340.850894 283.427208 
L 333.19791 282.315581 
L 326.856853 281.609903 
L 321.754842 281.257514 
L 320.588666 281.214118 
L 320.588666 281.214118 
" style="fill:none;stroke:#0000ff;stroke-linecap:square;stroke-width:0.2;"/>
   </g>
   <g id="line2d_135">
    <path clip-path="url(#p8425fc6c5f)" d="M 414.72 300.808858 
L 398.284433 296.257635 
L 383.780313 292.475487 
L 370.916093 289.352129 
L 359.36379 286.77979 
L 349.086962 284.716653 
L 339.903399 283.095561 
L 331.885989 281.900516 
L 325.107621 281.108095 
L 319.641184 280.683593 
L 316.871517 280.574757 
L 316.871517 280.574757 
" style="fill:none;stroke:#0000ff;stroke-linecap:square;stroke-width:0.2;"/>
   </g>
   <g id="line2d_136">
    <path clip-path="url(#p8425fc6c5f)" d="M 414.72 300.808858 
L 398.284436 296.233151 
L 383.743876 292.418729 
L 370.770331 289.246532 
L 359.035817 286.610824 
L 348.540335 284.479294 
L 339.101675 282.784341 
L 330.71984 281.499132 
L 323.504161 280.610004 
L 317.527527 280.088869 
L 312.717055 279.883881 
L 312.607726 279.882126 
L 312.607726 279.882126 
" style="fill:none;stroke:#0000ff;stroke-linecap:square;stroke-width:0.2;"/>
   </g>
   <g id="line2d_137">
    <path clip-path="url(#p8425fc6c5f)" d="M 414.72 300.808858 
L 398.247997 296.198767 
L 383.634555 292.343297 
L 370.551684 289.123336 
L 358.634959 286.425135 
L 347.957266 284.233101 
L 338.227066 282.457922 
L 329.444363 281.077222 
L 321.718487 280.082774 
L 315.195213 279.460094 
L 309.910986 279.169533 
L 307.724407 279.128236 
L 307.724407 279.128236 
" style="fill:none;stroke:#0000ff;stroke-linecap:square;stroke-width:0.2;"/>
   </g>
   <g id="line2d_138">
    <path clip-path="url(#p8425fc6c5f)" d="M 414.72 300.808858 
L 398.248001 296.174231 
L 383.561676 292.276885 
L 370.36948 289.008151 
L 358.306986 286.254052 
L 347.374196 283.984972 
L 337.352457 282.128259 
L 328.205328 280.655025 
L 320.005698 279.553927 
L 312.862899 278.812519 
L 306.922704 278.41079 
L 302.075788 278.299075 
L 301.893573 278.299802 
L 301.893573 278.299802 
" style="fill:none;stroke:#0000ff;stroke-linecap:square;stroke-width:0.2;"/>
   </g>
   <g id="line2d_139">
    <path clip-path="url(#p8425fc6c5f)" d="M 414.72 300.808858 
L 398.211562 296.139686 
L 383.488797 292.210263 
L 370.187276 288.892432 
L 357.942571 286.073773 
L 347.009783 283.778483 
L 336.660061 281.827619 
L 327.075621 280.244359 
L 318.329352 279.021036 
L 310.530585 278.148853 
L 303.788651 277.611577 
L 298.212881 277.382621 
L 294.750797 277.382354 
L 294.750797 277.382354 
" style="fill:none;stroke:#0000ff;stroke-linecap:square;stroke-width:0.2;"/>
   </g>
   <g id="line2d_140">
    <path clip-path="url(#p8425fc6c5f)" d="M 414.72 300.808858 
L 398.211565 296.115099 
L 383.415918 292.143428 
L 370.005072 288.776175 
L 357.651041 285.908628 
L 346.353828 283.51235 
L 335.712566 281.47908 
L 325.763701 279.801067 
L 316.507235 278.461248 
L 308.016056 277.452029 
L 300.399497 276.765535 
L 293.839773 276.391069 
L 288.62843 276.305193 
L 285.676548 276.366779 
L 285.676548 276.366779 
" style="fill:none;stroke:#0000ff;stroke-linecap:square;stroke-width:0.2;"/>
   </g>
   <g id="line2d_141">
    <path clip-path="url(#p8425fc6c5f)" d="M 414.72 300.808858 
L 398.175126 296.080394 
L 383.306597 292.066865 
L 369.786425 288.650515 
L 357.323068 285.734569 
L 345.661431 283.236543 
L 334.728629 281.120338 
L 324.378895 279.340611 
L 314.575789 277.877537 
L 305.355756 276.723254 
L 296.828127 275.875491 
L 289.17512 275.332135 
L 282.43318 275.067461 
L 277.039623 275.065394 
L 272.921568 275.232628 
L 272.921568 275.232628 
" style="fill:none;stroke:#0000ff;stroke-linecap:square;stroke-width:0.2;"/>
   </g>
   <g id="line2d_142">
    <path clip-path="url(#p8425fc6c5f)" d="M 414.72 300.808858 
L 398.17513 296.055755 
L 383.233718 291.999551 
L 369.604221 288.533105 
L 357.031538 285.567824 
L 345.114804 282.988416 
L 333.890463 280.784989 
L 323.103417 278.892305 
L 312.717228 277.294642 
L 302.731897 275.9826 
L 293.18387 274.950755 
L 284.182478 274.198517 
L 275.80061 273.716267 
L 268.111154 273.490259 
L 261.332769 273.508269 
L 255.647671 273.738646 
L 251.529621 274.098074 
L 251.529621 274.098074 
" style="fill:none;stroke:#0000ff;stroke-linecap:square;stroke-width:0.2;"/>
   </g>
   <g id="line2d_143">
    <path clip-path="url(#p8425fc6c5f)" d="M 414.72 300.808858 
L 398.138691 296.020888 
L 383.124397 291.922054 
L 373.029826 289.315079 
L 360.056283 286.165961 
L 347.848014 283.432341 
L 336.186367 281.047847 
L 324.889129 278.963897 
L 313.883418 277.159153 
L 303.09635 275.614991 
L 292.491484 274.320676 
L 282.032379 273.267035 
L 271.682595 272.447241 
L 261.442133 271.858796 
L 251.34744 271.500438 
L 241.362073 271.367878 
L 231.558921 271.458852 
L 221.937987 271.769843 
L 220.553156 271.833342 
L 220.553156 271.833342 
" style="fill:none;stroke:#008000;stroke-linecap:square;stroke-width:0.2;"/>
   </g>
   <g id="line2d_144">
    <path clip-path="url(#p8425fc6c5f)" d="M 414.72 300.808858 
L 398.138694 295.996198 
L 383.051519 291.853858 
L 372.738294 289.175017 
L 359.618982 285.969837 
L 347.228502 283.17253 
L 335.275315 280.701418 
L 323.613651 278.516788 
L 312.097742 276.585117 
L 300.618261 274.884629 
L 289.029437 273.392988 
L 277.221944 272.098688 
L 265.086452 270.994148 
L 252.367862 270.061858 
L 238.701741 269.291928 
L 224.233858 268.705388 
L 208.41756 268.290065 
L 205.465667 268.235336 
L 205.465667 268.235336 
" style="fill:none;stroke:#008000;stroke-linecap:square;stroke-width:0.2;"/>
   </g>
   <g id="line2d_145">
    <path clip-path="url(#p8425fc6c5f)" d="M 414.72 300.808858 
L 398.102256 295.961171 
L 382.905755 291.765639 
L 372.082337 288.940191 
L 360.01986 285.971177 
L 347.374285 283.078171 
L 335.129559 280.50492 
L 323.067027 278.196956 
L 311.040921 276.122077 
L 298.869027 274.24766 
L 286.296246 272.538273 
L 273.176804 270.982389 
L 259.328487 269.56766 
L 244.1682 268.247165 
L 227.768819 267.050059 
L 209.693012 265.95704 
L 205.137608 265.713983 
L 205.137608 265.713983 
" style="fill:none;stroke:#008000;stroke-linecap:square;stroke-width:0.2;"/>
   </g>
   <g id="line2d_146">
    <path clip-path="url(#p8425fc6c5f)" d="M 414.72 300.808858 
L 398.102259 295.936429 
L 382.796434 291.687015 
L 371.608593 288.75076 
L 358.598611 285.538701 
L 345.807265 282.606629 
L 333.30744 279.969441 
L 320.880481 277.574525 
L 308.307732 275.378351 
L 295.370536 273.345696 
L 281.77735 271.437922 
L 267.27307 269.631771 
L 251.529701 267.901361 
L 234.583675 266.262778 
L 215.706109 264.664226 
L 204.846009 263.836717 
L 204.846009 263.836717 
" style="fill:none;stroke:#008000;stroke-linecap:square;stroke-width:0.2;"/>
   </g>
   <g id="line2d_147">
    <path clip-path="url(#p8425fc6c5f)" d="M 414.72 300.808858 
L 398.06582 295.901241 
L 382.687113 291.608114 
L 371.134849 288.560366 
L 357.468902 285.17177 
L 344.422458 282.170737 
L 331.631092 279.457101 
L 318.803262 276.96319 
L 305.68387 274.639748 
L 291.981372 272.440971 
L 277.294894 270.313283 
L 261.55154 268.263858 
L 244.02244 266.211728 
L 225.035558 264.221245 
L 204.590862 262.29918 
L 204.590862 262.29918 
" style="fill:none;stroke:#008000;stroke-linecap:square;stroke-width:0.2;"/>
   </g>
   <g id="line2d_148">
    <path clip-path="url(#p8425fc6c5f)" d="M 414.72 300.808858 
L 398.065824 295.876447 
L 382.614235 291.538956 
L 370.806874 288.406321 
L 356.849389 284.924971 
L 343.511405 281.83584 
L 330.428498 279.035756 
L 317.199799 276.432259 
L 303.497321 273.96394 
L 288.993078 271.580423 
L 273.504847 269.263095 
L 256.595305 266.962427 
L 237.68134 264.618817 
L 217.346012 262.331826 
L 204.445051 260.986191 
L 204.445051 260.986191 
" style="fill:none;stroke:#008000;stroke-linecap:square;stroke-width:0.2;"/>
   </g>
   <g id="line2d_149">
    <path clip-path="url(#p8425fc6c5f)" d="M 414.72 300.808858 
L 398.029385 295.841098 
L 382.468471 291.449474 
L 370.18736 288.175814 
L 356.156991 284.658465 
L 342.855451 281.555142 
L 329.481003 278.662972 
L 315.851434 275.943808 
L 301.638756 273.336487 
L 286.442095 270.77756 
L 269.933455 268.228684 
L 251.784832 265.658485 
L 232.251303 263.118162 
L 211.004843 260.582456 
L 204.335688 259.827492 
L 204.335688 259.827492 
" style="fill:none;stroke:#008000;stroke-linecap:square;stroke-width:0.2;"/>
   </g>
   <g id="line2d_150">
    <path clip-path="url(#p8425fc6c5f)" d="M 414.72 300.808858 
L 398.029388 295.816252 
L 382.395593 291.379836 
L 369.859386 288.019329 
L 355.792577 284.469576 
L 342.199497 281.272309 
L 328.533509 278.286985 
L 314.503069 275.450607 
L 299.743748 272.695807 
L 283.818225 269.95348 
L 266.434943 267.192167 
L 247.193008 264.368552 
L 229.044291 261.899984 
L 207.251141 259.148368 
L 204.226327 258.780064 
L 204.226327 258.780064 
" style="fill:none;stroke:#008000;stroke-linecap:square;stroke-width:0.2;"/>
   </g>
   <g id="line2d_151">
    <path clip-path="url(#p8425fc6c5f)" d="M 414.72 300.808858 
L 397.99295 295.780742 
L 382.286272 291.299855 
L 369.385643 287.823574 
L 355.391719 284.270658 
L 341.579985 280.995693 
L 327.622456 277.915581 
L 313.191147 274.959935 
L 297.921624 272.061705 
L 281.340124 269.144678 
L 263.191528 266.183989 
L 243.147822 263.147144 
L 221.90139 260.160748 
L 204.153413 257.823144 
L 204.153413 257.823144 
" style="fill:none;stroke:#008000;stroke-linecap:square;stroke-width:0.2;"/>
   </g>
   <g id="line2d_152">
    <path clip-path="url(#p8425fc6c5f)" d="M 414.72 300.808858 
L 397.992953 295.755845 
L 382.213393 291.229782 
L 369.021226 287.655135 
L 354.990862 284.070502 
L 340.996916 280.725529 
L 326.747847 277.549057 
L 311.915667 274.472188 
L 296.135942 271.428325 
L 278.825577 268.32014 
L 259.583677 265.108124 
L 238.811083 261.874244 
L 217.017959 258.713941 
L 204.0805 256.934859 
L 204.0805 256.934859 
" style="fill:none;stroke:#008000;stroke-linecap:square;stroke-width:0.2;"/>
   </g>
   <g id="line2d_153">
    <path clip-path="url(#p8425fc6c5f)" d="M 414.72 300.808858 
L 397.956514 295.720174 
L 382.104073 291.149274 
L 368.547483 287.456614 
L 354.225579 283.778459 
L 340.012979 280.360251 
L 325.472368 277.09267 
L 310.239316 273.899105 
L 293.912945 270.70657 
L 275.946599 267.424801 
L 256.558911 264.11711 
L 235.239642 260.709709 
L 213.045602 257.394722 
L 204.007589 256.102531 
L 204.007589 256.102531 
" style="fill:none;stroke:#008000;stroke-linecap:square;stroke-width:0.2;"/>
   </g>
   <g id="line2d_154">
    <path clip-path="url(#p8425fc6c5f)" d="M 414.72 300.808858 
L 397.956518 295.695224 
L 382.031194 291.078765 
L 368.183067 287.285853 
L 353.678952 283.538714 
L 339.247697 280.042932 
L 324.379102 276.671742 
L 308.745178 273.357293 
L 291.945047 270.025643 
L 273.395605 266.578489 
L 253.206152 263.061438 
L 230.246904 259.317101 
L 207.651933 255.86763 
L 203.934679 255.316723 
L 203.934679 255.316723 
" style="fill:none;stroke:#008000;stroke-linecap:square;stroke-width:0.2;"/>
   </g>
   <g id="line2d_155">
    <path clip-path="url(#p8425fc6c5f)" d="M 414.72 300.808858 
L 397.920079 295.659393 
L 381.921873 290.997725 
L 367.745766 287.094476 
L 353.095882 283.288072 
L 338.445972 279.714509 
L 323.285836 276.247138 
L 307.25104 272.810409 
L 289.831376 269.308441 
L 269.860646 265.544901 
L 249.124523 261.875193 
L 227.076324 258.204752 
L 203.86177 254.570206 
L 203.86177 254.570206 
" style="fill:none;stroke:#008000;stroke-linecap:square;stroke-width:0.2;"/>
   </g>
   <g id="line2d_156">
    <path clip-path="url(#p8425fc6c5f)" d="M 414.72 300.808858 
L 397.920083 295.634391 
L 381.848995 290.926774 
L 367.38135 286.921399 
L 352.585698 283.054063 
L 337.717133 279.400829 
L 322.265455 275.835195 
L 305.86623 272.281511 
L 288.009246 268.643311 
L 268.512266 264.904231 
L 247.229481 261.056353 
L 228.351839 257.828451 
L 205.465274 254.124675 
L 203.825306 253.863076 
L 203.825306 253.863076 
" style="fill:none;stroke:#008000;stroke-linecap:square;stroke-width:0.2;"/>
   </g>
   <g id="line2d_157">
    <path clip-path="url(#p8425fc6c5f)" d="M 414.72 300.808858 
L 397.883644 295.598398 
L 381.776117 290.855627 
L 367.053376 286.75708 
L 352.111956 282.827755 
L 337.024736 279.093568 
L 321.281516 275.428197 
L 304.481419 271.748255 
L 286.187115 267.972735 
L 266.252808 264.091798 
L 244.605572 260.110669 
L 222.192885 256.221693 
L 203.752399 253.179437 
L 203.752399 253.179437 
" style="fill:none;stroke:#008000;stroke-linecap:square;stroke-width:0.2;"/>
   </g>
   <g id="line2d_158">
    <path clip-path="url(#p8425fc6c5f)" d="M 414.72 300.808858 
L 397.883647 295.573345 
L 381.703238 290.784282 
L 366.725403 286.591766 
L 351.601771 282.59062 
L 336.295897 278.775312 
L 320.261135 275.009796 
L 303.133051 271.218544 
L 284.437869 267.311755 
L 264.102676 263.295089 
L 242.127431 259.187543 
L 219.496054 255.190238 
L 203.715936 252.527274 
L 203.715936 252.527274 
" style="fill:none;stroke:#008000;stroke-linecap:square;stroke-width:0.2;"/>
   </g>
   <g id="line2d_159">
    <path clip-path="url(#p8425fc6c5f)" d="M 414.72 300.808858 
L 397.847209 295.537191 
L 381.593918 290.702206 
L 366.288102 286.395539 
L 351.018702 282.333066 
L 335.494172 278.436982 
L 319.167868 274.571405 
L 301.675353 270.661006 
L 282.579293 266.623556 
L 261.843213 262.472478 
L 239.539956 258.241202 
L 216.72633 254.14601 
L 203.64303 251.891567 
L 203.64303 251.891567 
" style="fill:none;stroke:#008000;stroke-linecap:square;stroke-width:0.2;"/>
   </g>
   <g id="line2d_160">
    <path clip-path="url(#p8425fc6c5f)" d="M 414.72 300.808858 
L 397.847212 295.512086 
L 381.521039 290.630412 
L 365.996572 286.238096 
L 350.581402 282.111594 
L 334.838218 278.131903 
L 318.256815 274.171827 
L 300.436311 270.147004 
L 280.975815 265.983258 
L 259.911735 261.709481 
L 237.389798 257.372931 
L 214.393925 253.178418 
L 203.570124 251.275708 
L 203.570124 251.275708 
" style="fill:none;stroke:#008000;stroke-linecap:square;stroke-width:0.2;"/>
   </g>
   <g id="line2d_161">
    <path clip-path="url(#p8425fc6c5f)" d="M 414.72 300.808858 
L 397.810773 295.475771 
L 381.448161 290.558418 
L 365.668599 286.069687 
L 350.071218 281.869709 
L 334.109378 277.806774 
L 317.236433 273.743929 
L 299.051498 269.597184 
L 279.080793 265.275835 
L 256.631857 260.673513 
L 233.818342 256.233368 
L 210.676652 251.962454 
L 203.497219 250.67757 
L 203.497219 250.67757 
" style="fill:none;stroke:#008000;stroke-linecap:square;stroke-width:0.2;"/>
   </g>
   <g id="line2d_162">
    <path clip-path="url(#p8425fc6c5f)" d="M 414.72 300.808858 
L 397.810777 295.450613 
L 381.375283 290.486223 
L 365.377068 285.910425 
L 349.633919 281.645448 
L 333.453424 277.49756 
L 316.325379 273.338744 
L 297.848898 269.084175 
L 277.550199 264.642687 
L 256.085216 260.180578 
L 233.125915 255.638345 
L 209.91132 251.278817 
L 203.387871 250.088763 
L 203.387871 250.088763 
" style="fill:none;stroke:#008000;stroke-linecap:square;stroke-width:0.2;"/>
   </g>
   <g id="line2d_163">
    <path clip-path="url(#p8425fc6c5f)" d="M 414.72 300.808858 
L 397.774338 295.414138 
L 381.265962 290.403087 
L 364.97621 285.719698 
L 349.087292 281.390875 
L 332.724585 277.168044 
L 315.304997 272.904826 
L 296.500527 268.534916 
L 275.910275 263.982459 
L 253.971515 259.36739 
L 235.640513 255.679541 
L 212.42593 251.216592 
L 202.986971 249.460689 
L 202.986971 249.460689 
" style="fill:none;stroke:#008000;stroke-linecap:square;stroke-width:0.2;"/>
   </g>
   <g id="line2d_164">
    <path clip-path="url(#p8425fc6c5f)" d="M 414.72 300.808858 
L 397.774342 295.388928 
L 381.193084 290.330434 
L 364.721122 285.568756 
L 348.649993 281.163778 
L 332.06863 276.854736 
L 314.393942 272.494117 
L 295.334368 268.023525 
L 274.452564 263.357973 
L 252.331574 258.650877 
L 228.315365 253.787909 
L 204.918484 249.284913 
L 191.069751 246.715942 
L 191.069751 246.715942 
" style="fill:none;stroke:#008000;stroke-linecap:square;stroke-width:0.2;"/>
   </g>
   <g id="line2d_165">
    <path clip-path="url(#p8425fc6c5f)" d="M 414.72 300.808858 
L 397.737903 295.352291 
L 381.120206 290.257577 
L 364.429592 285.406614 
L 352.112041 281.988903 
L 335.530689 277.596301 
L 317.928897 273.165798 
L 298.942222 268.618744 
L 278.169763 263.876678 
L 256.850543 259.235966 
L 233.672563 254.418343 
L 210.312165 249.796312 
L 191.033284 246.14095 
L 191.033284 246.14095 
" style="fill:none;stroke:#008000;stroke-linecap:square;stroke-width:0.2;"/>
   </g>
   <g id="line2d_166">
    <path clip-path="url(#p8425fc6c5f)" d="M 414.72 300.808858 
L 397.737907 295.327029 
L 381.047328 290.184515 
L 364.101619 285.232365 
L 349.88906 281.278655 
L 333.016163 276.804639 
L 315.013494 272.263991 
L 295.589494 267.597121 
L 274.379698 262.734014 
L 252.003595 257.839296 
L 228.789125 252.994085 
L 205.319338 248.325864 
L 190.960373 245.571337 
L 190.960373 245.571337 
" style="fill:none;stroke:#008000;stroke-linecap:square;stroke-width:0.2;"/>
   </g>
   <g id="line2d_167">
    <path clip-path="url(#p8425fc6c5f)" d="M 414.72 300.808858 
L 397.701468 295.290231 
L 380.974449 290.111248 
L 363.846531 285.078582 
L 348.358486 280.752477 
L 331.230488 276.195863 
L 312.89983 271.552356 
L 293.111391 266.77206 
L 271.573592 261.802045 
L 248.942361 256.81562 
L 225.618526 251.909439 
L 201.674923 247.104906 
L 190.923906 245.019727 
L 190.923906 245.019727 
" style="fill:none;stroke:#008000;stroke-linecap:square;stroke-width:0.2;"/>
   </g>
   <g id="line2d_168">
    <path clip-path="url(#p8425fc6c5f)" d="M 414.72 300.808858 
L 397.701472 295.264917 
L 380.901571 290.037774 
L 363.591443 284.924277 
L 347.155894 280.312051 
L 329.772796 275.667456 
L 311.150592 270.924924 
L 290.997715 266.025146 
L 275.618782 262.427156 
L 253.06046 257.351116 
L 227.80514 251.932774 
L 203.752218 247.014384 
L 190.850996 244.471352 
L 190.850996 244.471352 
" style="fill:none;stroke:#008000;stroke-linecap:square;stroke-width:0.2;"/>
   </g>
   <g id="line2d_169">
    <path clip-path="url(#p8425fc6c5f)" d="M 414.72 300.808858 
L 397.665033 295.227959 
L 380.828693 289.964093 
L 363.372798 284.779891 
L 346.317728 279.968434 
L 328.715973 275.239766 
L 309.838666 270.401568 
L 289.357796 265.385502 
L 266.945334 260.138669 
L 243.80385 254.958187 
L 220.443508 249.96318 
L 196.390495 245.049356 
L 190.778086 243.932294 
L 190.778086 243.932294 
" style="fill:none;stroke:#008000;stroke-linecap:square;stroke-width:0.2;"/>
   </g>
   <g id="line2d_170">
    <path clip-path="url(#p8425fc6c5f)" d="M 414.72 300.808858 
L 397.665037 295.202592 
L 380.755815 289.890205 
L 363.154153 284.634928 
L 345.698216 279.682777 
L 327.914247 274.876155 
L 308.818282 269.947759 
L 288.118748 264.838296 
L 266.034263 259.621174 
L 242.783436 254.362903 
L 219.386632 249.30585 
L 195.297152 244.328401 
L 190.705176 243.401843 
L 190.705176 243.401843 
" style="fill:none;stroke:#008000;stroke-linecap:square;stroke-width:0.2;"/>
   </g>
   <g id="line2d_171">
    <path clip-path="url(#p8425fc6c5f)" d="M 414.72 300.808858 
L 397.628598 295.165472 
L 380.646495 289.804931 
L 362.899065 284.478713 
L 345.224475 279.435805 
L 327.22185 274.539178 
L 307.907225 269.518799 
L 286.989028 264.314564 
L 264.75876 259.017837 
L 241.398586 253.686228 
L 217.928873 248.564119 
L 193.146923 243.388445 
L 190.668711 242.886757 
L 190.668711 242.886757 
" style="fill:none;stroke:#008000;stroke-linecap:square;stroke-width:0.2;"/>
   </g>
   <g id="line2d_172">
    <path clip-path="url(#p8425fc6c5f)" d="M 414.72 300.808858 
L 397.628602 295.140054 
L 380.610059 289.741801 
L 362.753304 284.353827 
L 345.005831 279.258882 
L 326.857436 274.287977 
L 307.360596 269.180699 
L 286.26018 263.886452 
L 263.884131 258.506329 
L 240.451056 253.106294 
L 216.944881 247.923759 
L 192.272241 242.715983 
L 190.595802 242.371768 
L 190.595802 242.371768 
" style="fill:none;stroke:#008000;stroke-linecap:square;stroke-width:0.2;"/>
   </g>
   <g id="line2d_173">
    <path clip-path="url(#p8425fc6c5f)" d="M 414.72 300.808858 
L 397.592163 295.102773 
L 380.500739 289.655994 
L 362.534659 284.207002 
L 344.823629 279.091712 
L 326.493022 274.035961 
L 306.813967 268.841508 
L 285.567775 263.46621 
L 263.082387 258.011285 
L 239.576413 252.542917 
L 216.033776 247.300327 
L 191.361113 242.038174 
L 190.559338 241.871239 
L 190.559338 241.871239 
" style="fill:none;stroke:#008000;stroke-linecap:square;stroke-width:0.2;"/>
   </g>
   <g id="line2d_174">
    <path clip-path="url(#p8425fc6c5f)" d="M 414.72 300.808858 
L 397.592167 295.077302 
L 380.464303 289.592556 
L 362.425341 284.091985 
L 344.67787 278.934493 
L 326.201493 273.80293 
L 306.340223 268.520192 
L 284.948255 263.063133 
L 262.35353 257.533096 
L 238.774655 251.996427 
L 215.195559 246.694074 
L 190.486429 241.369627 
L 190.486429 241.369627 
" style="fill:none;stroke:#008000;stroke-linecap:square;stroke-width:0.2;"/>
   </g>
   <g id="line2d_175">
    <path clip-path="url(#p8425fc6c5f)" d="M 414.72 300.808858 
L 397.555728 295.03986 
L 380.354983 289.506213 
L 362.243138 283.954892 
L 344.568554 278.787426 
L 325.946407 273.57933 
L 305.939365 268.217182 
L 284.40162 262.677642 
L 261.697558 257.072148 
L 238.045785 251.467151 
L 214.430228 246.105258 
L 190.413521 240.873998 
L 190.413521 240.873998 
" style="fill:none;stroke:#008000;stroke-linecap:square;stroke-width:0.2;"/>
   </g>
   <g id="line2d_176">
    <path clip-path="url(#p8425fc6c5f)" d="M 414.72 300.808858 
L 397.555732 295.014337 
L 380.318547 289.442465 
L 362.097378 283.828205 
L 344.459237 278.640223 
L 325.691321 273.355318 
L 305.502063 267.903978 
L 283.818543 262.282379 
L 261.005143 256.602151 
L 237.28047 250.929835 
L 213.628452 245.509606 
L 190.377057 240.391812 
L 190.377057 240.391812 
" style="fill:none;stroke:#008000;stroke-linecap:square;stroke-width:0.2;"/>
   </g>
   <g id="line2d_177">
    <path clip-path="url(#p8425fc6c5f)" d="M 414.72 300.808858 
L 397.519293 294.976734 
L 380.209227 289.355583 
L 361.951618 283.701099 
L 344.313478 278.482326 
L 325.399792 273.120762 
L 305.064762 267.590052 
L 283.271908 261.895736 
L 260.385613 256.149692 
L 236.624485 250.418529 
L 212.936007 244.939709 
L 190.304148 239.907107 
L 190.304148 239.907107 
" style="fill:none;stroke:#008000;stroke-linecap:square;stroke-width:0.2;"/>
   </g>
   <g id="line2d_178">
    <path clip-path="url(#p8425fc6c5f)" d="M 414.72 300.808858 
L 397.519297 294.951159 
L 380.172791 289.291524 
L 361.805857 283.573578 
L 344.094835 278.302911 
L 325.035378 272.865257 
L 304.554574 267.255814 
L 282.615944 261.480274 
L 259.656753 255.669945 
L 235.822724 249.873035 
L 212.097786 244.337763 
L 190.23124 239.42732 
L 190.23124 239.42732 
" style="fill:none;stroke:#008000;stroke-linecap:square;stroke-width:0.2;"/>
   </g>
   <g id="line2d_179">
    <path clip-path="url(#p8425fc6c5f)" d="M 414.72 300.808858 
L 397.482858 294.913395 
L 380.063471 289.204099 
L 361.696539 283.456791 
L 343.876191 278.122949 
L 324.670963 272.608896 
L 304.044387 266.920532 
L 281.996422 261.073213 
L 258.927893 255.189516 
L 235.057407 249.336111 
L 211.296007 243.744725 
L 190.194777 238.960244 
L 190.194777 238.960244 
" style="fill:none;stroke:#008000;stroke-linecap:square;stroke-width:0.2;"/>
   </g>
   <g id="line2d_180">
    <path clip-path="url(#p8425fc6c5f)" d="M 414.72 300.808858 
L 397.482862 294.887767 
L 380.027035 289.139728 
L 361.587221 283.339721 
L 343.621104 277.931694 
L 324.270106 272.341353 
L 303.497757 266.574271 
L 281.340457 260.65564 
L 258.199032 254.708344 
L 234.292089 248.79905 
L 210.530672 243.160664 
L 190.121869 238.489494 
L 190.121869 238.489494 
" style="fill:none;stroke:#008000;stroke-linecap:square;stroke-width:0.2;"/>
   </g>
   <g id="line2d_181">
    <path clip-path="url(#p8425fc6c5f)" d="M 414.72 300.808858 
L 397.446423 294.849842 
L 379.917715 289.051758 
L 361.477904 283.222371 
L 343.293133 277.718145 
L 323.796364 272.052041 
L 302.87824 266.206825 
L 280.42939 260.167985 
L 263.118885 255.667271 
L 239.248427 249.66472 
L 215.487056 243.925196 
L 190.668518 238.163426 
L 190.085406 238.031087 
L 190.085406 238.031087 
" style="fill:none;stroke:#008000;stroke-linecap:square;stroke-width:0.2;"/>
   </g>
   <g id="line2d_182">
    <path clip-path="url(#p8425fc6c5f)" d="M 414.72 300.808858 
L 397.446427 294.824162 
L 379.88128 288.987074 
L 361.368586 283.104745 
L 342.928719 277.492804 
L 323.249737 271.740572 
L 302.185838 265.817786 
L 279.554766 259.688966 
L 254.882696 253.26885 
L 230.866376 247.258779 
L 207.032014 241.529506 
L 190.012498 237.568352 
L 190.012498 237.568352 
" style="fill:none;stroke:#008000;stroke-linecap:square;stroke-width:0.2;"/>
   </g>
   <g id="line2d_183">
    <path clip-path="url(#p8425fc6c5f)" d="M 414.72 300.808858 
L 397.446431 294.798483 
L 379.808402 288.910424 
L 361.29571 282.998223 
L 342.710075 277.310132 
L 322.921765 271.490662 
L 301.748536 265.497853 
L 279.081015 259.316111 
L 254.153833 252.779666 
L 237.644907 248.592538 
L 213.847058 242.754632 
L 189.976036 237.117669 
L 189.976036 237.117669 
" style="fill:none;stroke:#008000;stroke-linecap:square;stroke-width:0.2;"/>
   </g>
   <g id="line2d_184">
    <path clip-path="url(#p8425fc6c5f)" d="M 414.72 300.808858 
L 397.409992 294.760343 
L 379.735524 288.833558 
L 361.222835 282.891536 
L 342.527874 277.137902 
L 322.593793 271.240008 
L 301.311233 265.177095 
L 278.570821 258.932787 
L 255.174253 252.746806 
L 231.121478 246.620329 
L 207.250658 240.77573 
L 189.903128 236.662079 
L 189.903128 236.662079 
" style="fill:none;stroke:#008000;stroke-linecap:square;stroke-width:0.2;"/>
   </g>
   <g id="line2d_185">
    <path clip-path="url(#p8425fc6c5f)" d="M 414.72 300.808858 
L 397.409996 294.734612 
L 379.662646 288.756477 
L 361.149959 282.784683 
L 342.345672 276.965244 
L 322.302263 270.999252 
L 300.910373 264.865756 
L 278.060627 258.548508 
L 255.429362 252.518273 
L 231.340139 246.328725 
L 207.469313 240.430809 
L 189.866666 236.21831 
L 189.866666 236.21831 
" style="fill:none;stroke:#008000;stroke-linecap:square;stroke-width:0.2;"/>
   </g>
   <g id="line2d_186">
    <path clip-path="url(#p8425fc6c5f)" d="M 414.72 300.808858 
L 397.373557 294.69631 
L 379.589769 288.679179 
L 361.077084 282.677664 
L 342.163471 276.792156 
L 322.010734 270.757872 
L 300.509513 264.5537 
L 277.586875 258.173483 
L 254.008072 251.848356 
L 235.531172 247.052951 
L 211.660386 241.064237 
L 189.793758 235.769115 
L 189.793758 235.769115 
" style="fill:none;stroke:#008000;stroke-linecap:square;stroke-width:0.2;"/>
   </g>
   <g id="line2d_187">
    <path clip-path="url(#p8425fc6c5f)" d="M 414.72 300.808858 
L 397.373561 294.670527 
L 379.516891 288.601666 
L 361.004208 282.570477 
L 341.981269 276.618634 
L 321.682762 270.505088 
L 300.072209 264.230518 
L 277.040237 257.777877 
L 253.352094 251.379704 
L 228.388184 244.889155 
L 204.007085 238.789253 
L 189.720851 235.322832 
L 189.720851 235.322832 
" style="fill:none;stroke:#008000;stroke-linecap:square;stroke-width:0.2;"/>
   </g>
   <g id="line2d_188">
    <path clip-path="url(#p8425fc6c5f)" d="M 414.72 300.808858 
L 397.337122 294.632065 
L 379.407571 288.511775 
L 360.931333 282.463121 
L 341.799068 276.444678 
L 321.391232 270.26238 
L 299.671349 263.916918 
L 276.566485 257.401551 
L 252.878334 250.959738 
L 226.711762 244.113417 
L 202.330633 237.979178 
L 189.647944 234.879309 
L 189.647944 234.879309 
" style="fill:none;stroke:#008000;stroke-linecap:square;stroke-width:0.2;"/>
   </g>
   <g id="line2d_189">
    <path clip-path="url(#p8425fc6c5f)" d="M 414.72 300.808858 
L 397.337126 294.606228 
L 379.371135 288.44599 
L 360.858457 282.355595 
L 341.616866 276.270284 
L 321.099703 270.019032 
L 299.270488 263.60256 
L 276.129175 257.034726 
L 252.441016 250.549335 
L 227.039755 243.851353 
L 202.622176 237.654364 
L 189.575037 234.438407 
L 189.575037 234.438407 
" style="fill:none;stroke:#008000;stroke-linecap:square;stroke-width:0.2;"/>
   </g>
   <g id="line2d_190">
    <path clip-path="url(#p8425fc6c5f)" d="M 414.72 300.808858 
L 397.300688 294.567605 
L 379.261815 288.355549 
L 360.822024 282.259705 
L 341.471107 276.106823 
L 320.844616 269.78601 
L 298.942513 263.308614 
L 275.728309 256.677575 
L 252.003698 250.138597 
L 227.987294 243.754296 
L 203.496829 237.479507 
L 189.50213 233.999993 
L 189.50213 233.999993 
" style="fill:none;stroke:#008000;stroke-linecap:square;stroke-width:0.2;"/>
   </g>
   <g id="line2d_191">
    <path clip-path="url(#p8425fc6c5f)" d="M 414.72 300.808858 
L 397.300691 294.541717 
L 379.22538 288.289448 
L 360.712706 282.14003 
L 341.288906 275.93161 
L 320.553086 269.541431 
L 298.541653 262.992835 
L 275.254556 256.299409 
L 251.493492 249.707591 
L 228.242398 243.481164 
L 203.788373 237.163932 
L 189.429223 233.563945 
L 189.429223 233.563945 
" style="fill:none;stroke:#008000;stroke-linecap:square;stroke-width:0.2;"/>
   </g>
   <g id="line2d_192">
    <path clip-path="url(#p8425fc6c5f)" d="M 414.72 300.808858 
L 397.264253 294.502932 
L 379.11606 288.198459 
L 360.676273 282.043917 
L 341.143147 275.767452 
L 320.334442 269.318393 
L 298.25012 262.708426 
L 274.890133 255.951575 
L 251.092617 249.306106 
L 227.07619 242.834516 
L 202.62214 236.479874 
L 188.991869 233.03923 
L 188.991869 233.03923 
" style="fill:none;stroke:#008000;stroke-linecap:square;stroke-width:0.2;"/>
   </g>
   <g id="line2d_193">
    <path clip-path="url(#p8425fc6c5f)" d="M 414.72 300.808858 
L 397.264256 294.476991 
L 379.079625 288.132043 
L 360.603398 281.935763 
L 340.960945 275.591411 
L 320.042912 269.072625 
L 297.885702 262.402028 
L 274.489266 255.592964 
L 250.655298 248.894517 
L 226.602415 242.369898 
L 202.184795 235.981119 
L 174.486781 229.014119 
L 150.396398 223.210958 
L 120.911533 216.362631 
L 96.419259 210.933992 
L 71.598444 205.711841 
L 57.60232 202.874791 
L 57.60232 202.874791 
" style="fill:none;stroke:#00ffff;stroke-linecap:square;stroke-width:0.2;"/>
   </g>
   <g id="line2d_194">
    <path clip-path="url(#p8425fc6c5f)" d="M 414.72 300.808858 
L 397.227818 294.438046 
L 378.970305 288.040506 
L 360.530522 281.827435 
L 340.778744 275.414923 
L 319.751382 268.826191 
L 297.521284 262.094943 
L 274.051955 255.223358 
L 250.181535 248.472507 
L 226.12864 241.905225 
L 201.711005 235.473312 
L 175.142768 228.736296 
L 151.052383 222.879326 
L 121.640407 215.982431 
L 93.940771 209.802799 
L 69.010537 204.531775 
L 57.602213 202.203231 
L 57.602213 202.203231 
" style="fill:none;stroke:#00ffff;stroke-linecap:square;stroke-width:0.2;"/>
   </g>
   <g id="line2d_195">
    <path clip-path="url(#p8425fc6c5f)" d="M 414.72 300.808858 
L 397.227822 294.412052 
L 378.93387 287.973774 
L 360.457647 281.718932 
L 340.632985 275.249669 
L 319.532738 268.601663 
L 297.229751 261.808989 
L 273.723974 254.884734 
L 249.817103 248.080609 
L 225.727753 241.460121 
L 201.310103 234.984493 
L 175.908091 228.49112 
L 151.890597 222.59711 
L 122.442174 215.623993 
L 89.457664 208.233735 
L 64.454412 202.941634 
L 57.602107 201.535928 
L 57.602107 201.535928 
" style="fill:none;stroke:#00ffff;stroke-linecap:square;stroke-width:0.2;"/>
   </g>
   <g id="line2d_196">
    <path clip-path="url(#p8425fc6c5f)" d="M 414.72 300.808858 
L 397.191383 294.372945 
L 378.82455 287.881692 
L 360.348329 281.598087 
L 340.414341 275.060598 
L 319.204765 268.342659 
L 296.792447 261.47867 
L 273.213777 254.492753 
L 249.270452 247.637335 
L 225.181089 240.975519 
L 200.763423 234.457732 
L 176.381854 228.177692 
L 150.942973 221.887896 
L 121.530957 214.877267 
L 94.414436 208.718798 
L 69.447724 203.337659 
L 57.602002 200.872699 
L 57.602002 200.872699 
" style="fill:none;stroke:#00ffff;stroke-linecap:square;stroke-width:0.2;"/>
   </g>
   <g id="line2d_197">
    <path clip-path="url(#p8425fc6c5f)" d="M 414.72 300.808858 
L 397.191387 294.346899 
L 378.751672 287.801963 
L 360.239012 281.476948 
L 340.232139 274.882757 
L 318.913235 268.094266 
L 296.428028 261.169461 
L 272.812909 254.131842 
L 248.833132 247.224235 
L 224.707313 240.510393 
L 200.253188 233.940378 
L 175.543593 227.535181 
L 152.036308 221.676349 
L 122.551405 214.578621 
L 88.728557 206.874672 
L 63.725246 201.492438 
L 57.601898 200.213368 
L 57.601898 200.213368 
" style="fill:none;stroke:#00ffff;stroke-linecap:square;stroke-width:0.2;"/>
   </g>
   <g id="line2d_198">
    <path clip-path="url(#p8425fc6c5f)" d="M 414.72 300.808858 
L 397.154949 294.307631 
L 378.678795 287.72202 
L 360.129694 281.355514 
L 340.013495 274.692598 
L 318.621705 267.84519 
L 296.063609 260.859525 
L 272.412041 253.770339 
L 248.432255 246.821091 
L 224.306424 240.065078 
L 199.852285 233.45215 
L 174.559551 226.85452 
L 150.432659 220.80735 
L 120.947703 213.671569 
L 96.309551 207.971073 
L 71.488635 202.507902 
L 57.601794 199.55777 
L 57.601794 199.55777 
" style="fill:none;stroke:#00ffff;stroke-linecap:square;stroke-width:0.2;"/>
   </g>
   <g id="line2d_199">
    <path clip-path="url(#p8425fc6c5f)" d="M 414.72 300.808858 
L 397.154952 294.281533 
L 378.605917 287.641864 
L 360.020376 281.233785 
L 339.794852 274.501863 
L 318.330175 267.595429 
L 295.735633 260.560018 
L 272.047616 253.419026 
L 248.031377 246.41762 
L 223.869092 239.609645 
L 199.378493 232.944759 
L 174.08574 226.303736 
L 149.958828 220.215114 
L 120.364502 213.001635 
L 97.038427 207.55826 
L 72.181059 202.032733 
L 57.60169 198.905749 
L 57.60169 198.905749 
" style="fill:none;stroke:#00ffff;stroke-linecap:square;stroke-width:0.2;"/>
   </g>
   <g id="line2d_200">
    <path clip-path="url(#p8425fc6c5f)" d="M 414.72 300.808858 
L 397.118514 294.242104 
L 378.53304 287.561495 
L 359.911059 281.11176 
L 339.61265 274.322534 
L 318.038645 267.344978 
L 295.371214 260.248663 
L 271.610304 253.045487 
L 247.411838 245.94932 
L 229.517916 240.856792 
L 205.46472 234.213307 
L 179.916937 227.394312 
L 155.644327 221.166534 
L 131.480633 215.198358 
L 98.204671 207.251591 
L 73.34731 201.66762 
L 57.601587 198.25716 
L 57.601587 198.25716 
" style="fill:none;stroke:#00ffff;stroke-linecap:square;stroke-width:0.2;"/>
   </g>
   <g id="line2d_201">
    <path clip-path="url(#p8425fc6c5f)" d="M 414.72 300.808858 
L 397.118518 294.215953 
L 378.460162 287.480914 
L 359.765299 280.976981 
L 339.357564 274.118661 
L 317.710672 267.082179 
L 294.970351 259.925268 
L 271.172992 252.671181 
L 246.865185 245.501729 
L 223.140201 238.739015 
L 198.649575 231.989013 
L 173.356788 225.259932 
L 149.229838 219.087205 
L 119.416779 211.716005 
L 95.143019 205.977113 
L 70.24912 200.367528 
L 57.601485 197.611863 
L 57.601485 197.611863 
" style="fill:none;stroke:#00ffff;stroke-linecap:square;stroke-width:0.2;"/>
   </g>
   <g id="line2d_202">
    <path clip-path="url(#p8425fc6c5f)" d="M 414.72 300.808858 
L 397.082079 294.176362 
L 378.387285 287.400121 
L 359.619539 280.841791 
L 339.13892 273.926192 
L 317.419142 266.830279 
L 294.605932 259.612339 
L 270.772123 252.307079 
L 246.464307 245.096613 
L 220.880659 237.769908 
L 196.353547 230.986287 
L 171.024266 224.223368 
L 146.860817 218.018496 
L 112.856289 209.56259 
L 80.928334 202.14351 
L 57.601383 196.969727 
L 57.601383 196.969727 
" style="fill:none;stroke:#00ffff;stroke-linecap:square;stroke-width:0.2;"/>
   </g>
   <g id="line2d_203">
    <path clip-path="url(#p8425fc6c5f)" d="M 414.72 300.808858 
L 397.082083 294.150159 
L 378.314407 287.319118 
L 359.437336 280.693618 
L 338.847391 273.708823 
L 317.018283 266.542352 
L 294.168627 259.275825 
L 270.298367 251.920214 
L 245.990541 244.669889 
L 220.479768 237.320972 
L 195.952641 230.495755 
L 170.623342 223.689808 
L 146.459874 217.443838 
L 112.528207 208.948491 
L 79.397436 201.199142 
L 57.601282 196.330627 
L 57.601282 196.330627 
" style="fill:none;stroke:#00ffff;stroke-linecap:square;stroke-width:0.2;"/>
   </g>
   <g id="line2d_204">
    <path clip-path="url(#p8425fc6c5f)" d="M 414.72 300.808858 
L 397.045645 294.110407 
L 378.205088 287.224832 
L 359.18225 280.519666 
L 338.519419 273.478424 
L 316.617425 266.253368 
L 293.694878 258.92683 
L 269.788168 251.521318 
L 245.480331 244.231587 
L 221.281536 237.214483 
L 196.754411 230.336223 
L 171.425115 223.475486 
L 147.261648 217.177239 
L 113.184194 208.571319 
L 82.823465 201.391982 
L 59.022684 196.008862 
L 57.601181 195.694446 
L 57.601181 195.694446 
" style="fill:none;stroke:#00ffff;stroke-linecap:square;stroke-width:0.2;"/>
   </g>
   <g id="line2d_205">
    <path clip-path="url(#p8425fc6c5f)" d="M 414.72 300.808858 
L 397.045649 294.084151 
L 378.168653 287.156482 
L 359.03649 280.383012 
L 338.300775 273.28392 
L 316.325895 265.999004 
L 293.330458 258.611274 
L 269.387298 251.154853 
L 245.043008 243.813832 
L 221.573085 236.965836 
L 197.045956 230.039742 
L 171.716653 223.129571 
L 147.553179 216.784138 
L 113.439265 208.102187 
L 84.281303 201.142822 
L 57.60108 195.061072 
L 57.60108 195.061072 
" style="fill:none;stroke:#00ffff;stroke-linecap:square;stroke-width:0.2;"/>
   </g>
   <g id="line2d_206">
    <path clip-path="url(#p8425fc6c5f)" d="M 414.72 300.808858 
L 397.00921 294.044239 
L 378.059333 287.061672 
L 358.708519 280.182255 
L 337.863476 273.014842 
L 315.815708 265.672226 
L 292.783823 258.237007 
L 268.804211 250.731564 
L 244.45991 243.35198 
L 220.370421 236.287983 
L 195.806821 229.318662 
L 170.44104 222.364805 
L 146.277531 215.987308 
L 112.345796 207.307646 
L 78.668225 199.249687 
L 57.60098 194.430399 
L 57.60098 194.430399 
" style="fill:none;stroke:#00ffff;stroke-linecap:square;stroke-width:0.2;"/>
   </g>
   <g id="line2d_207">
    <path clip-path="url(#p8425fc6c5f)" d="M 414.72 300.808858 
L 397.009214 294.01793 
L 378.022898 286.993015 
L 358.526316 280.031699 
L 337.60839 272.806436 
L 315.487735 265.404081 
L 292.38296 257.907929 
L 268.366898 250.352084 
L 243.986143 242.921864 
L 219.89664 235.818743 
L 195.333024 228.809426 
L 169.967225 221.814198 
L 145.767249 215.387734 
L 111.944821 206.681457 
L 77.465352 198.378173 
L 57.60088 193.802326 
L 57.60088 193.802326 
" style="fill:none;stroke:#00ffff;stroke-linecap:square;stroke-width:0.2;"/>
   </g>
   <g id="line2d_208">
    <path clip-path="url(#p8425fc6c5f)" d="M 414.72 300.808858 
L 397.009218 293.991622 
L 377.986463 286.924259 
L 358.344114 279.880618 
L 337.316861 272.584885 
L 315.123318 265.123041 
L 291.982096 257.577935 
L 267.929584 249.97175 
L 243.548819 242.501959 
L 219.459304 235.359569 
L 194.349 228.150732 
L 177.730059 223.51726 
L 161.001592 218.968391 
L 136.80144 212.583321 
L 103.489003 204.066785 
L 78.595164 198.055506 
L 57.600781 193.176758 
L 57.600781 193.176758 
" style="fill:none;stroke:#00ffff;stroke-linecap:square;stroke-width:0.2;"/>
   </g>
   <g id="line2d_209">
    <path clip-path="url(#p8425fc6c5f)" d="M 414.72 300.808858 
L 396.972779 293.951494 
L 377.877143 286.828724 
L 357.833932 279.611704 
L 338.993226 273.038589 
L 316.799694 265.520938 
L 293.658485 257.918246 
L 269.605986 250.252539 
L 245.225236 242.722698 
L 221.536623 235.638778 
L 196.973014 228.52493 
L 171.60722 221.421739 
L 147.407248 214.892261 
L 113.2568 205.955549 
L 83.223998 198.577378 
L 57.600682 192.553603 
L 57.600682 192.553603 
" style="fill:none;stroke:#00ffff;stroke-linecap:square;stroke-width:0.2;"/>
   </g>
   <g id="line2d_210">
    <path clip-path="url(#p8425fc6c5f)" d="M 414.72 300.808858 
L 396.972783 293.925134 
L 377.840708 286.759662 
L 357.724614 279.484865 
L 337.827077 272.516406 
L 315.524211 264.93604 
L 292.310103 257.28181 
L 268.221145 249.575358 
L 243.803929 242.004427 
L 219.67796 234.762483 
L 195.077869 227.612328 
L 172.336105 221.207235 
L 148.136133 214.62742 
L 113.912791 205.600142 
L 88.54533 199.30074 
L 63.43241 193.291394 
L 57.600584 191.932776 
L 57.600584 191.932776 
" style="fill:none;stroke:#00ffff;stroke-linecap:square;stroke-width:0.2;"/>
   </g>
   <g id="line2d_211">
    <path clip-path="url(#p8425fc6c5f)" d="M 414.72 300.808858 
L 396.936345 293.884846 
L 377.731389 286.663602 
L 357.542412 279.331751 
L 336.332947 271.877512 
L 313.920742 264.23752 
L 290.451518 256.473589 
L 267.127849 248.986778 
L 242.674171 241.372075 
L 218.54818 234.098038 
L 193.292055 226.720399 
L 166.176789 219.086303 
L 141.940247 212.512106 
L 108.773681 203.788317 
L 79.396781 196.500237 
L 57.600486 191.314192 
L 57.600486 191.314192 
" style="fill:none;stroke:#00ffff;stroke-linecap:square;stroke-width:0.2;"/>
   </g>
   <g id="line2d_212">
    <path clip-path="url(#p8425fc6c5f)" d="M 414.72 300.808858 
L 396.936349 293.858432 
L 377.694954 286.594228 
L 357.433095 279.204327 
L 335.64055 271.513205 
L 313.119012 263.805016 
L 289.613337 255.996638 
L 264.21238 247.817552 
L 239.722218 240.177071 
L 215.559735 232.877768 
L 190.412889 225.517902 
L 166.176762 218.663226 
L 141.940208 212.04593 
L 108.773621 203.263106 
L 79.3967 195.922687 
L 57.600388 190.697775 
L 57.600388 190.697775 
" style="fill:none;stroke:#00ffff;stroke-linecap:square;stroke-width:0.2;"/>
   </g>
   <g id="line2d_213">
    <path clip-path="url(#p8425fc6c5f)" d="M 414.72 300.808858 
L 396.89991 293.817983 
L 377.585634 286.497635 
L 357.250893 279.050414 
L 334.875269 271.121492 
L 312.28084 263.357936 
L 288.738713 255.505155 
L 265.30569 247.917401 
L 240.815536 240.223012 
L 216.653061 232.870536 
L 191.542668 225.466251 
L 166.358964 218.292389 
L 142.1224 211.630438 
L 108.919351 202.776852 
L 79.068585 195.266509 
L 57.600291 190.083448 
L 57.600291 190.083448 
" style="fill:none;stroke:#00ffff;stroke-linecap:square;stroke-width:0.2;"/>
   </g>
   <g id="line2d_214">
    <path clip-path="url(#p8425fc6c5f)" d="M 414.72 300.808858 
L 396.899914 293.791517 
L 377.549199 286.427948 
L 357.141576 278.922326 
L 334.620182 270.906308 
L 311.952866 263.081994 
L 288.374291 255.179583 
L 264.321722 247.355895 
L 239.831551 239.628197 
L 215.669056 232.242678 
L 190.522193 224.793019 
L 166.577612 217.933711 
L 142.341039 211.226933 
L 109.101529 202.302121 
L 78.667573 194.593061 
L 57.600193 189.471141 
L 57.600193 189.471141 
" style="fill:none;stroke:#00ffff;stroke-linecap:square;stroke-width:0.2;"/>
   </g>
   <g id="line2d_215">
    <path clip-path="url(#p8425fc6c5f)" d="M 414.72 300.808858 
L 396.863476 293.750906 
L 377.43988 286.330821 
L 356.995816 278.780724 
L 334.474423 270.728907 
L 311.770663 262.85503 
L 288.155642 254.901594 
L 264.066624 247.026425 
L 239.54 239.247035 
L 215.341049 231.810958 
L 190.194172 224.320381 
L 165.301987 217.154099 
L 141.065378 210.41687 
L 107.935154 201.480099 
L 81.145981 194.637873 
L 57.600097 188.860784 
L 57.600097 188.860784 
" style="fill:none;stroke:#00ffff;stroke-linecap:square;stroke-width:0.2;"/>
   </g>
   <g id="line2d_216">
    <path clip-path="url(#p8425fc6c5f)" d="M 414.72 300.808858 
L 396.86348 293.724388 
L 377.403445 286.260823 
L 356.886499 278.651979 
L 334.437991 270.589819 
L 311.697788 262.665242 
L 288.046322 254.659696 
L 263.920855 246.731997 
L 239.394225 238.91131 
L 215.195265 231.434393 
L 190.011931 223.890596 
L 165.119732 216.682562 
L 140.846661 209.894623 
L 107.71641 200.902743 
L 81.546834 194.171633 
L 57.6 188.252313 
L 57.6 188.252313 
" style="fill:none;stroke:#00ffff;stroke-linecap:square;stroke-width:0.2;"/>
   </g>
   <g id="line2d_217">
    <path clip-path="url(#p8425fc6c5f)" d="M 414.719023 307.017956 
L 404.078001 303.169746 
L 393.473386 299.570919 
L 382.90518 296.219044 
L 372.373386 293.111698 
L 361.878007 290.24647 
L 351.419044 287.620952 
L 340.996501 285.232749 
L 330.573937 283.072315 
L 320.187797 281.14601 
L 309.801639 279.445884 
L 299.451911 277.976714 
L 289.102169 276.732139 
L 278.78886 275.715358 
L 268.475543 274.921594 
L 258.16222 274.350846 
L 247.848892 274.003116 
L 237.535562 273.878404 
L 227.258675 273.975969 
L 221.35493 273.985972 
L 220.735384 272.781472 
L 220.516709 271.530708 
L 220.188694 269.634235 
L 219.678484 269.107458 
L 219.423386 269.313636 
L 219.095402 269.550204 
L 218.730973 269.608266 
L 218.038569 270.459846 
L 217.674145 270.776953 
L 217.309717 270.910624 
L 217.091058 270.814918 
L 216.8724 270.837593 
L 216.763074 270.967737 
L 216.362209 271.427829 
L 216.143554 271.577428 
L 215.924904 271.993697 
L 215.451167 273.099024 
L 215.305394 273.027827 
L 215.123178 272.981423 
L 214.795195 273.1466 
L 214.685864 273.045514 
L 214.430759 272.829372 
L 214.284989 272.898099 
L 213.738357 273.473722 
L 213.337487 273.573454 
L 213.118831 273.656141 
L 212.900173 273.61683 
L 211.916209 273.36666 
L 211.442451 273.364289 
L 211.333122 273.382964 
L 211.041581 273.450218 
L 210.27628 273.470011 
L 209.911839 273.006948 
L 209.838956 273.092204 
L 209.583859 273.274313 
L 209.292314 273.20467 
L 209.000762 272.834085 
L 208.854992 272.914256 
L 208.490573 273.323877 
L 208.308354 273.167062 
L 207.725254 272.65028 
L 207.579479 272.559369 
L 207.324374 272.404124 
L 206.85062 272.540833 
L 206.559068 272.250832 
L 205.975939 270.745261 
L 205.392769 267.818313 
L 204.736668 263.428217 
L 204.408607 260.959854 
L 203.242089 249.849834 
L 202.841192 249.32843 
L 202.658978 249.476057 
L 202.403877 249.632529 
L 202.258103 249.654742 
L 202.075899 250.15636 
L 201.857276 251.395393 
L 201.529383 254.601243 
L 201.20148 257.433758 
L 201.16504 257.528435 
L 201.09215 257.433604 
L 200.727694 256.7715 
L 200.691253 256.857314 
L 200.509059 257.587132 
L 200.144686 259.479488 
L 199.998914 259.531375 
L 199.853134 259.335195 
L 199.342898 258.513203 
L 199.270014 258.584371 
L 198.759865 260.3422 
L 198.577657 260.60943 
L 197.812412 262.535479 
L 197.55725 260.825273 
L 197.11982 257.738454 
L 196.901125 256.763287 
L 196.427261 254.02803 
L 196.317929 254.009181 
L 195.88064 254.957628 
L 195.662047 256.828244 
L 194.860667 266.984168 
L 194.459902 269.910269 
L 194.168334 269.295302 
L 193.913193 268.257728 
L 192.673796 259.856258 
L 191.580181 252.097064 
L 191.397908 250.753739 
L 191.106225 247.466137 
L 190.632267 242.866591 
L 189.976045 237.343512 
L 189.465679 233.845082 
L 189.246987 233.22207 
L 189.028316 233.099559 
L 188.445189 232.692099 
L 188.335861 232.79711 
L 188.11722 233.376639 
L 187.752866 235.429942 
L 187.352126 238.794837 
L 187.024225 240.973026 
L 186.623465 243.771611 
L 186.186242 246.12056 
L 186.004059 246.931676 
L 184.874587 253.220004 
L 184.291611 255.873998 
L 182.834345 265.882655 
L 182.542866 267.287637 
L 182.360656 267.426411 
L 182.287766 267.343615 
L 182.069051 266.208153 
L 181.777323 262.498651 
L 181.193847 254.765517 
L 180.829288 252.293699 
L 180.53771 251.749588 
L 180.391938 251.812929 
L 179.553842 253.990352 
L 178.861563 256.947349 
L 177.549791 260.743004 
L 177.440452 260.58554 
L 177.294658 260.208317 
L 177.221775 260.278153 
L 176.820926 260.857777 
L 176.565872 261.790529 
L 175.873617 264.969785 
L 175.691454 265.971193 
L 175.363542 267.412518 
L 175.035612 268.497966 
L 174.744123 269.540163 
L 174.124623 270.196402 
L 173.505124 270.833052 
L 172.776287 271.319588 
L 172.375427 271.590063 
L 171.755917 272.031063 
L 171.500814 272.007184 
L 171.027044 271.866443 
L 170.771946 271.952745 
L 170.443978 272.311024 
L 169.860901 272.54701 
L 169.642254 272.749118 
L 169.496499 273.049859 
L 168.986389 274.632302 
L 168.731296 274.783561 
L 168.621992 275.210454 
L 168.40342 276.635937 
L 168.148415 278.216304 
L 167.893346 278.746672 
L 167.674697 278.896361 
L 167.164499 278.979895 
L 156.81478 280.606036 
L 146.465077 282.456771 
L 136.07895 284.539806 
L 125.6564 286.85752 
L 115.233872 289.403002 
L 104.774927 292.186348 
L 94.279566 295.209954 
L 83.747793 298.476227 
L 73.179609 301.987579 
L 62.611459 305.733112 
L 57.618931 307.584 
L 57.618931 307.584 
" style="fill:none;stroke:#008000;stroke-linecap:square;stroke-width:0.2;"/>
   </g>
   <g id="line2d_218">
    <path clip-path="url(#p8425fc6c5f)" d="M 414.719023 307.017956 
L 404.078001 303.169746 
L 393.473386 299.570919 
L 382.90518 296.219044 
L 372.373386 293.111698 
L 361.878007 290.24647 
L 351.419044 287.620952 
L 340.996501 285.232749 
L 330.573937 283.072315 
L 320.187797 281.14601 
L 309.801639 279.445884 
L 299.451911 277.976714 
L 289.102169 276.732139 
L 278.78886 275.715358 
L 268.475543 274.921594 
L 258.16222 274.350846 
L 247.848892 274.003116 
L 237.535562 273.878404 
L 227.258675 273.975969 
L 216.945347 274.296503 
L 206.632023 274.840054 
L 196.318705 275.606622 
L 186.005395 276.596208 
L 175.692095 277.80881 
L 165.342365 279.249897 
L 154.992648 280.915579 
L 144.606506 282.812909 
L 134.220381 284.936418 
L 123.797835 287.294748 
L 113.375312 289.880846 
L 102.916371 292.70495 
L 92.421016 295.769456 
L 81.889248 299.07677 
L 71.32107 302.629306 
L 60.716484 306.429485 
L 57.618931 307.584 
L 57.618931 307.584 
" style="fill:none;stroke:#0000ff;stroke-linecap:square;stroke-width:0.2;"/>
   </g>
   <g id="patch_3">
    <path d="M 57.6 307.584 
L 57.6 41.472 
" style="fill:none;stroke:#000000;stroke-linecap:square;stroke-linejoin:miter;stroke-width:0.2;"/>
   </g>
   <g id="patch_4">
    <path d="M 414.72 307.584 
L 414.72 41.472 
" style="fill:none;stroke:#000000;stroke-linecap:square;stroke-linejoin:miter;stroke-width:0.2;"/>
   </g>
   <g id="patch_5">
    <path d="M 57.6 307.584 
L 414.72 307.584 
" style="fill:none;stroke:#000000;stroke-linecap:square;stroke-linejoin:miter;stroke-width:0.2;"/>
   </g>
   <g id="patch_6">
    <path d="M 57.6 41.472 
L 414.72 41.472 
" style="fill:none;stroke:#000000;stroke-linecap:square;stroke-linejoin:miter;stroke-width:0.2;"/>
   </g>
  </g>
 </g>
 <defs>
  <clipPath id="p8425fc6c5f">
   <rect height="266.112" width="357.12" x="57.6" y="41.472"/>
  </clipPath>
 </defs>
</svg>
