<?xml version="1.0" encoding="utf-8" standalone="no"?>
<!DOCTYPE svg PUBLIC "-//W3C//DTD SVG 1.1//EN"
  "http://www.w3.org/Graphics/SVG/1.1/DTD/svg11.dtd">
<!-- Created with matplotlib (http://matplotlib.org/) -->
<svg height="345pt" version="1.1" viewBox="0 0 460 345" width="460pt" xmlns="http://www.w3.org/2000/svg" xmlns:xlink="http://www.w3.org/1999/xlink">
 <defs>
  <style type="text/css">
*{stroke-linecap:butt;stroke-linejoin:round;}
  </style>
 </defs>
 <g id="figure_1">
  <g id="patch_1">
   <path d="M 0 345.6 
L 460.8 345.6 
L 460.8 0 
L 0 0 
z
" style="fill:#ffffff;"/>
  </g>
  <g id="axes_1">
   <g id="patch_2">
    <path d="M 57.6 307.584 
L 414.72 307.584 
L 414.72 41.472 
L 57.6 41.472 
z
" style="fill:#ffffff;"/>
   </g>
   <g id="matplotlib.axis_1">
    <g id="xtick_1">
     <g id="line2d_1">
      <defs>
       <path d="M 0 0 
L 0 -1 
" id="mb94ce6a6c1" style="stroke:#000000;stroke-width:0.2;"/>
      </defs>
      <g>
       <use style="stroke:#000000;stroke-width:0.2;" x="123.17339" xlink:href="#mb94ce6a6c1" y="307.584"/>
      </g>
     </g>
     <g id="text_1">
      <!-- 80000 -->
      <defs>
       <path d="M 31.78125 34.625 
Q 24.75 34.625 20.71875 30.859375 
Q 16.703125 27.09375 16.703125 20.515625 
Q 16.703125 13.921875 20.71875 10.15625 
Q 24.75 6.390625 31.78125 6.390625 
Q 38.8125 6.390625 42.859375 10.171875 
Q 46.921875 13.96875 46.921875 20.515625 
Q 46.921875 27.09375 42.890625 30.859375 
Q 38.875 34.625 31.78125 34.625 
z
M 21.921875 38.8125 
Q 15.578125 40.375 12.03125 44.71875 
Q 8.5 49.078125 8.5 55.328125 
Q 8.5 64.0625 14.71875 69.140625 
Q 20.953125 74.21875 31.78125 74.21875 
Q 42.671875 74.21875 48.875 69.140625 
Q 55.078125 64.0625 55.078125 55.328125 
Q 55.078125 49.078125 51.53125 44.71875 
Q 48 40.375 41.703125 38.8125 
Q 48.828125 37.15625 52.796875 32.3125 
Q 56.78125 27.484375 56.78125 20.515625 
Q 56.78125 9.90625 50.3125 4.234375 
Q 43.84375 -1.421875 31.78125 -1.421875 
Q 19.734375 -1.421875 13.25 4.234375 
Q 6.78125 9.90625 6.78125 20.515625 
Q 6.78125 27.484375 10.78125 32.3125 
Q 14.796875 37.15625 21.921875 38.8125 
z
M 18.3125 54.390625 
Q 18.3125 48.734375 21.84375 45.5625 
Q 25.390625 42.390625 31.78125 42.390625 
Q 38.140625 42.390625 41.71875 45.5625 
Q 45.3125 48.734375 45.3125 54.390625 
Q 45.3125 60.0625 41.71875 63.234375 
Q 38.140625 66.40625 31.78125 66.40625 
Q 25.390625 66.40625 21.84375 63.234375 
Q 18.3125 60.0625 18.3125 54.390625 
z
" id="DejaVuSans-38"/>
       <path d="M 31.78125 66.40625 
Q 24.171875 66.40625 20.328125 58.90625 
Q 16.5 51.421875 16.5 36.375 
Q 16.5 21.390625 20.328125 13.890625 
Q 24.171875 6.390625 31.78125 6.390625 
Q 39.453125 6.390625 43.28125 13.890625 
Q 47.125 21.390625 47.125 36.375 
Q 47.125 51.421875 43.28125 58.90625 
Q 39.453125 66.40625 31.78125 66.40625 
z
M 31.78125 74.21875 
Q 44.046875 74.21875 50.515625 64.515625 
Q 56.984375 54.828125 56.984375 36.375 
Q 56.984375 17.96875 50.515625 8.265625 
Q 44.046875 -1.421875 31.78125 -1.421875 
Q 19.53125 -1.421875 13.0625 8.265625 
Q 6.59375 17.96875 6.59375 36.375 
Q 6.59375 54.828125 13.0625 64.515625 
Q 19.53125 74.21875 31.78125 74.21875 
z
" id="DejaVuSans-30"/>
      </defs>
      <g transform="translate(115.220265 305.383219)scale(0.05 -0.05)">
       <use xlink:href="#DejaVuSans-38"/>
       <use x="63.623047" xlink:href="#DejaVuSans-30"/>
       <use x="127.246094" xlink:href="#DejaVuSans-30"/>
       <use x="190.869141" xlink:href="#DejaVuSans-30"/>
       <use x="254.492188" xlink:href="#DejaVuSans-30"/>
      </g>
     </g>
    </g>
    <g id="xtick_2">
     <g id="line2d_2">
      <g>
       <use style="stroke:#000000;stroke-width:0.2;" x="196.060043" xlink:href="#mb94ce6a6c1" y="307.584"/>
      </g>
     </g>
     <g id="text_2">
      <!-- 60000 -->
      <defs>
       <path d="M 33.015625 40.375 
Q 26.375 40.375 22.484375 35.828125 
Q 18.609375 31.296875 18.609375 23.390625 
Q 18.609375 15.53125 22.484375 10.953125 
Q 26.375 6.390625 33.015625 6.390625 
Q 39.65625 6.390625 43.53125 10.953125 
Q 47.40625 15.53125 47.40625 23.390625 
Q 47.40625 31.296875 43.53125 35.828125 
Q 39.65625 40.375 33.015625 40.375 
z
M 52.59375 71.296875 
L 52.59375 62.3125 
Q 48.875 64.0625 45.09375 64.984375 
Q 41.3125 65.921875 37.59375 65.921875 
Q 27.828125 65.921875 22.671875 59.328125 
Q 17.53125 52.734375 16.796875 39.40625 
Q 19.671875 43.65625 24.015625 45.921875 
Q 28.375 48.1875 33.59375 48.1875 
Q 44.578125 48.1875 50.953125 41.515625 
Q 57.328125 34.859375 57.328125 23.390625 
Q 57.328125 12.15625 50.6875 5.359375 
Q 44.046875 -1.421875 33.015625 -1.421875 
Q 20.359375 -1.421875 13.671875 8.265625 
Q 6.984375 17.96875 6.984375 36.375 
Q 6.984375 53.65625 15.1875 63.9375 
Q 23.390625 74.21875 37.203125 74.21875 
Q 40.921875 74.21875 44.703125 73.484375 
Q 48.484375 72.75 52.59375 71.296875 
z
" id="DejaVuSans-36"/>
      </defs>
      <g transform="translate(188.106918 305.383219)scale(0.05 -0.05)">
       <use xlink:href="#DejaVuSans-36"/>
       <use x="63.623047" xlink:href="#DejaVuSans-30"/>
       <use x="127.246094" xlink:href="#DejaVuSans-30"/>
       <use x="190.869141" xlink:href="#DejaVuSans-30"/>
       <use x="254.492188" xlink:href="#DejaVuSans-30"/>
      </g>
     </g>
    </g>
    <g id="xtick_3">
     <g id="line2d_3">
      <g>
       <use style="stroke:#000000;stroke-width:0.2;" x="268.946695" xlink:href="#mb94ce6a6c1" y="307.584"/>
      </g>
     </g>
     <g id="text_3">
      <!-- 40000 -->
      <defs>
       <path d="M 37.796875 64.3125 
L 12.890625 25.390625 
L 37.796875 25.390625 
z
M 35.203125 72.90625 
L 47.609375 72.90625 
L 47.609375 25.390625 
L 58.015625 25.390625 
L 58.015625 17.1875 
L 47.609375 17.1875 
L 47.609375 0 
L 37.796875 0 
L 37.796875 17.1875 
L 4.890625 17.1875 
L 4.890625 26.703125 
z
" id="DejaVuSans-34"/>
      </defs>
      <g transform="translate(260.99357 305.383219)scale(0.05 -0.05)">
       <use xlink:href="#DejaVuSans-34"/>
       <use x="63.623047" xlink:href="#DejaVuSans-30"/>
       <use x="127.246094" xlink:href="#DejaVuSans-30"/>
       <use x="190.869141" xlink:href="#DejaVuSans-30"/>
       <use x="254.492188" xlink:href="#DejaVuSans-30"/>
      </g>
     </g>
    </g>
    <g id="xtick_4">
     <g id="line2d_4">
      <g>
       <use style="stroke:#000000;stroke-width:0.2;" x="341.833348" xlink:href="#mb94ce6a6c1" y="307.584"/>
      </g>
     </g>
     <g id="text_4">
      <!-- 20000 -->
      <defs>
       <path d="M 19.1875 8.296875 
L 53.609375 8.296875 
L 53.609375 0 
L 7.328125 0 
L 7.328125 8.296875 
Q 12.9375 14.109375 22.625 23.890625 
Q 32.328125 33.6875 34.8125 36.53125 
Q 39.546875 41.84375 41.421875 45.53125 
Q 43.3125 49.21875 43.3125 52.78125 
Q 43.3125 58.59375 39.234375 62.25 
Q 35.15625 65.921875 28.609375 65.921875 
Q 23.96875 65.921875 18.8125 64.3125 
Q 13.671875 62.703125 7.8125 59.421875 
L 7.8125 69.390625 
Q 13.765625 71.78125 18.9375 73 
Q 24.125 74.21875 28.421875 74.21875 
Q 39.75 74.21875 46.484375 68.546875 
Q 53.21875 62.890625 53.21875 53.421875 
Q 53.21875 48.921875 51.53125 44.890625 
Q 49.859375 40.875 45.40625 35.40625 
Q 44.1875 33.984375 37.640625 27.21875 
Q 31.109375 20.453125 19.1875 8.296875 
z
" id="DejaVuSans-32"/>
      </defs>
      <g transform="translate(333.880223 305.383219)scale(0.05 -0.05)">
       <use xlink:href="#DejaVuSans-32"/>
       <use x="63.623047" xlink:href="#DejaVuSans-30"/>
       <use x="127.246094" xlink:href="#DejaVuSans-30"/>
       <use x="190.869141" xlink:href="#DejaVuSans-30"/>
       <use x="254.492188" xlink:href="#DejaVuSans-30"/>
      </g>
     </g>
    </g>
    <g id="xtick_5">
     <g id="line2d_5">
      <defs>
       <path d="M 0 0 
L 0 -0.5 
" id="m9ec9348185" style="stroke:#000000;stroke-width:0.2;"/>
      </defs>
      <g>
       <use style="stroke:#000000;stroke-width:0.2;" x="414.72" xlink:href="#m9ec9348185" y="307.584"/>
      </g>
     </g>
    </g>
    <g id="xtick_6">
     <g id="line2d_6">
      <g>
       <use style="stroke:#000000;stroke-width:0.2;" x="411.075667" xlink:href="#m9ec9348185" y="307.584"/>
      </g>
     </g>
    </g>
    <g id="xtick_7">
     <g id="line2d_7">
      <g>
       <use style="stroke:#000000;stroke-width:0.2;" x="407.431335" xlink:href="#m9ec9348185" y="307.584"/>
      </g>
     </g>
    </g>
    <g id="xtick_8">
     <g id="line2d_8">
      <g>
       <use style="stroke:#000000;stroke-width:0.2;" x="403.787002" xlink:href="#m9ec9348185" y="307.584"/>
      </g>
     </g>
    </g>
    <g id="xtick_9">
     <g id="line2d_9">
      <g>
       <use style="stroke:#000000;stroke-width:0.2;" x="400.14267" xlink:href="#m9ec9348185" y="307.584"/>
      </g>
     </g>
    </g>
    <g id="xtick_10">
     <g id="line2d_10">
      <g>
       <use style="stroke:#000000;stroke-width:0.2;" x="396.498337" xlink:href="#m9ec9348185" y="307.584"/>
      </g>
     </g>
    </g>
    <g id="xtick_11">
     <g id="line2d_11">
      <g>
       <use style="stroke:#000000;stroke-width:0.2;" x="392.854004" xlink:href="#m9ec9348185" y="307.584"/>
      </g>
     </g>
    </g>
    <g id="xtick_12">
     <g id="line2d_12">
      <g>
       <use style="stroke:#000000;stroke-width:0.2;" x="389.209672" xlink:href="#m9ec9348185" y="307.584"/>
      </g>
     </g>
    </g>
    <g id="xtick_13">
     <g id="line2d_13">
      <g>
       <use style="stroke:#000000;stroke-width:0.2;" x="385.565339" xlink:href="#m9ec9348185" y="307.584"/>
      </g>
     </g>
    </g>
    <g id="xtick_14">
     <g id="line2d_14">
      <g>
       <use style="stroke:#000000;stroke-width:0.2;" x="381.921006" xlink:href="#m9ec9348185" y="307.584"/>
      </g>
     </g>
    </g>
    <g id="xtick_15">
     <g id="line2d_15">
      <g>
       <use style="stroke:#000000;stroke-width:0.2;" x="378.276674" xlink:href="#m9ec9348185" y="307.584"/>
      </g>
     </g>
    </g>
    <g id="xtick_16">
     <g id="line2d_16">
      <g>
       <use style="stroke:#000000;stroke-width:0.2;" x="374.632341" xlink:href="#m9ec9348185" y="307.584"/>
      </g>
     </g>
    </g>
    <g id="xtick_17">
     <g id="line2d_17">
      <g>
       <use style="stroke:#000000;stroke-width:0.2;" x="370.988009" xlink:href="#m9ec9348185" y="307.584"/>
      </g>
     </g>
    </g>
    <g id="xtick_18">
     <g id="line2d_18">
      <g>
       <use style="stroke:#000000;stroke-width:0.2;" x="367.343676" xlink:href="#m9ec9348185" y="307.584"/>
      </g>
     </g>
    </g>
    <g id="xtick_19">
     <g id="line2d_19">
      <g>
       <use style="stroke:#000000;stroke-width:0.2;" x="363.699343" xlink:href="#m9ec9348185" y="307.584"/>
      </g>
     </g>
    </g>
    <g id="xtick_20">
     <g id="line2d_20">
      <g>
       <use style="stroke:#000000;stroke-width:0.2;" x="360.055011" xlink:href="#m9ec9348185" y="307.584"/>
      </g>
     </g>
    </g>
    <g id="xtick_21">
     <g id="line2d_21">
      <g>
       <use style="stroke:#000000;stroke-width:0.2;" x="356.410678" xlink:href="#m9ec9348185" y="307.584"/>
      </g>
     </g>
    </g>
    <g id="xtick_22">
     <g id="line2d_22">
      <g>
       <use style="stroke:#000000;stroke-width:0.2;" x="352.766345" xlink:href="#m9ec9348185" y="307.584"/>
      </g>
     </g>
    </g>
    <g id="xtick_23">
     <g id="line2d_23">
      <g>
       <use style="stroke:#000000;stroke-width:0.2;" x="349.122013" xlink:href="#m9ec9348185" y="307.584"/>
      </g>
     </g>
    </g>
    <g id="xtick_24">
     <g id="line2d_24">
      <g>
       <use style="stroke:#000000;stroke-width:0.2;" x="345.47768" xlink:href="#m9ec9348185" y="307.584"/>
      </g>
     </g>
    </g>
    <g id="xtick_25">
     <g id="line2d_25">
      <g>
       <use style="stroke:#000000;stroke-width:0.2;" x="341.833348" xlink:href="#m9ec9348185" y="307.584"/>
      </g>
     </g>
    </g>
    <g id="xtick_26">
     <g id="line2d_26">
      <g>
       <use style="stroke:#000000;stroke-width:0.2;" x="338.189015" xlink:href="#m9ec9348185" y="307.584"/>
      </g>
     </g>
    </g>
    <g id="xtick_27">
     <g id="line2d_27">
      <g>
       <use style="stroke:#000000;stroke-width:0.2;" x="334.544682" xlink:href="#m9ec9348185" y="307.584"/>
      </g>
     </g>
    </g>
    <g id="xtick_28">
     <g id="line2d_28">
      <g>
       <use style="stroke:#000000;stroke-width:0.2;" x="330.90035" xlink:href="#m9ec9348185" y="307.584"/>
      </g>
     </g>
    </g>
    <g id="xtick_29">
     <g id="line2d_29">
      <g>
       <use style="stroke:#000000;stroke-width:0.2;" x="327.256017" xlink:href="#m9ec9348185" y="307.584"/>
      </g>
     </g>
    </g>
    <g id="xtick_30">
     <g id="line2d_30">
      <g>
       <use style="stroke:#000000;stroke-width:0.2;" x="323.611684" xlink:href="#m9ec9348185" y="307.584"/>
      </g>
     </g>
    </g>
    <g id="xtick_31">
     <g id="line2d_31">
      <g>
       <use style="stroke:#000000;stroke-width:0.2;" x="319.967352" xlink:href="#m9ec9348185" y="307.584"/>
      </g>
     </g>
    </g>
    <g id="xtick_32">
     <g id="line2d_32">
      <g>
       <use style="stroke:#000000;stroke-width:0.2;" x="316.323019" xlink:href="#m9ec9348185" y="307.584"/>
      </g>
     </g>
    </g>
    <g id="xtick_33">
     <g id="line2d_33">
      <g>
       <use style="stroke:#000000;stroke-width:0.2;" x="312.678687" xlink:href="#m9ec9348185" y="307.584"/>
      </g>
     </g>
    </g>
    <g id="xtick_34">
     <g id="line2d_34">
      <g>
       <use style="stroke:#000000;stroke-width:0.2;" x="309.034354" xlink:href="#m9ec9348185" y="307.584"/>
      </g>
     </g>
    </g>
    <g id="xtick_35">
     <g id="line2d_35">
      <g>
       <use style="stroke:#000000;stroke-width:0.2;" x="305.390021" xlink:href="#m9ec9348185" y="307.584"/>
      </g>
     </g>
    </g>
    <g id="xtick_36">
     <g id="line2d_36">
      <g>
       <use style="stroke:#000000;stroke-width:0.2;" x="301.745689" xlink:href="#m9ec9348185" y="307.584"/>
      </g>
     </g>
    </g>
    <g id="xtick_37">
     <g id="line2d_37">
      <g>
       <use style="stroke:#000000;stroke-width:0.2;" x="298.101356" xlink:href="#m9ec9348185" y="307.584"/>
      </g>
     </g>
    </g>
    <g id="xtick_38">
     <g id="line2d_38">
      <g>
       <use style="stroke:#000000;stroke-width:0.2;" x="294.457023" xlink:href="#m9ec9348185" y="307.584"/>
      </g>
     </g>
    </g>
    <g id="xtick_39">
     <g id="line2d_39">
      <g>
       <use style="stroke:#000000;stroke-width:0.2;" x="290.812691" xlink:href="#m9ec9348185" y="307.584"/>
      </g>
     </g>
    </g>
    <g id="xtick_40">
     <g id="line2d_40">
      <g>
       <use style="stroke:#000000;stroke-width:0.2;" x="287.168358" xlink:href="#m9ec9348185" y="307.584"/>
      </g>
     </g>
    </g>
    <g id="xtick_41">
     <g id="line2d_41">
      <g>
       <use style="stroke:#000000;stroke-width:0.2;" x="283.524026" xlink:href="#m9ec9348185" y="307.584"/>
      </g>
     </g>
    </g>
    <g id="xtick_42">
     <g id="line2d_42">
      <g>
       <use style="stroke:#000000;stroke-width:0.2;" x="279.879693" xlink:href="#m9ec9348185" y="307.584"/>
      </g>
     </g>
    </g>
    <g id="xtick_43">
     <g id="line2d_43">
      <g>
       <use style="stroke:#000000;stroke-width:0.2;" x="276.23536" xlink:href="#m9ec9348185" y="307.584"/>
      </g>
     </g>
    </g>
    <g id="xtick_44">
     <g id="line2d_44">
      <g>
       <use style="stroke:#000000;stroke-width:0.2;" x="272.591028" xlink:href="#m9ec9348185" y="307.584"/>
      </g>
     </g>
    </g>
    <g id="xtick_45">
     <g id="line2d_45">
      <g>
       <use style="stroke:#000000;stroke-width:0.2;" x="268.946695" xlink:href="#m9ec9348185" y="307.584"/>
      </g>
     </g>
    </g>
    <g id="xtick_46">
     <g id="line2d_46">
      <g>
       <use style="stroke:#000000;stroke-width:0.2;" x="265.302362" xlink:href="#m9ec9348185" y="307.584"/>
      </g>
     </g>
    </g>
    <g id="xtick_47">
     <g id="line2d_47">
      <g>
       <use style="stroke:#000000;stroke-width:0.2;" x="261.65803" xlink:href="#m9ec9348185" y="307.584"/>
      </g>
     </g>
    </g>
    <g id="xtick_48">
     <g id="line2d_48">
      <g>
       <use style="stroke:#000000;stroke-width:0.2;" x="258.013697" xlink:href="#m9ec9348185" y="307.584"/>
      </g>
     </g>
    </g>
    <g id="xtick_49">
     <g id="line2d_49">
      <g>
       <use style="stroke:#000000;stroke-width:0.2;" x="254.369365" xlink:href="#m9ec9348185" y="307.584"/>
      </g>
     </g>
    </g>
    <g id="xtick_50">
     <g id="line2d_50">
      <g>
       <use style="stroke:#000000;stroke-width:0.2;" x="250.725032" xlink:href="#m9ec9348185" y="307.584"/>
      </g>
     </g>
    </g>
    <g id="xtick_51">
     <g id="line2d_51">
      <g>
       <use style="stroke:#000000;stroke-width:0.2;" x="247.080699" xlink:href="#m9ec9348185" y="307.584"/>
      </g>
     </g>
    </g>
    <g id="xtick_52">
     <g id="line2d_52">
      <g>
       <use style="stroke:#000000;stroke-width:0.2;" x="243.436367" xlink:href="#m9ec9348185" y="307.584"/>
      </g>
     </g>
    </g>
    <g id="xtick_53">
     <g id="line2d_53">
      <g>
       <use style="stroke:#000000;stroke-width:0.2;" x="239.792034" xlink:href="#m9ec9348185" y="307.584"/>
      </g>
     </g>
    </g>
    <g id="xtick_54">
     <g id="line2d_54">
      <g>
       <use style="stroke:#000000;stroke-width:0.2;" x="236.147701" xlink:href="#m9ec9348185" y="307.584"/>
      </g>
     </g>
    </g>
    <g id="xtick_55">
     <g id="line2d_55">
      <g>
       <use style="stroke:#000000;stroke-width:0.2;" x="232.503369" xlink:href="#m9ec9348185" y="307.584"/>
      </g>
     </g>
    </g>
    <g id="xtick_56">
     <g id="line2d_56">
      <g>
       <use style="stroke:#000000;stroke-width:0.2;" x="228.859036" xlink:href="#m9ec9348185" y="307.584"/>
      </g>
     </g>
    </g>
    <g id="xtick_57">
     <g id="line2d_57">
      <g>
       <use style="stroke:#000000;stroke-width:0.2;" x="225.214704" xlink:href="#m9ec9348185" y="307.584"/>
      </g>
     </g>
    </g>
    <g id="xtick_58">
     <g id="line2d_58">
      <g>
       <use style="stroke:#000000;stroke-width:0.2;" x="221.570371" xlink:href="#m9ec9348185" y="307.584"/>
      </g>
     </g>
    </g>
    <g id="xtick_59">
     <g id="line2d_59">
      <g>
       <use style="stroke:#000000;stroke-width:0.2;" x="217.926038" xlink:href="#m9ec9348185" y="307.584"/>
      </g>
     </g>
    </g>
    <g id="xtick_60">
     <g id="line2d_60">
      <g>
       <use style="stroke:#000000;stroke-width:0.2;" x="214.281706" xlink:href="#m9ec9348185" y="307.584"/>
      </g>
     </g>
    </g>
    <g id="xtick_61">
     <g id="line2d_61">
      <g>
       <use style="stroke:#000000;stroke-width:0.2;" x="210.637373" xlink:href="#m9ec9348185" y="307.584"/>
      </g>
     </g>
    </g>
    <g id="xtick_62">
     <g id="line2d_62">
      <g>
       <use style="stroke:#000000;stroke-width:0.2;" x="206.99304" xlink:href="#m9ec9348185" y="307.584"/>
      </g>
     </g>
    </g>
    <g id="xtick_63">
     <g id="line2d_63">
      <g>
       <use style="stroke:#000000;stroke-width:0.2;" x="203.348708" xlink:href="#m9ec9348185" y="307.584"/>
      </g>
     </g>
    </g>
    <g id="xtick_64">
     <g id="line2d_64">
      <g>
       <use style="stroke:#000000;stroke-width:0.2;" x="199.704375" xlink:href="#m9ec9348185" y="307.584"/>
      </g>
     </g>
    </g>
    <g id="xtick_65">
     <g id="line2d_65">
      <g>
       <use style="stroke:#000000;stroke-width:0.2;" x="196.060043" xlink:href="#m9ec9348185" y="307.584"/>
      </g>
     </g>
    </g>
    <g id="xtick_66">
     <g id="line2d_66">
      <g>
       <use style="stroke:#000000;stroke-width:0.2;" x="192.41571" xlink:href="#m9ec9348185" y="307.584"/>
      </g>
     </g>
    </g>
    <g id="xtick_67">
     <g id="line2d_67">
      <g>
       <use style="stroke:#000000;stroke-width:0.2;" x="188.771377" xlink:href="#m9ec9348185" y="307.584"/>
      </g>
     </g>
    </g>
    <g id="xtick_68">
     <g id="line2d_68">
      <g>
       <use style="stroke:#000000;stroke-width:0.2;" x="185.127045" xlink:href="#m9ec9348185" y="307.584"/>
      </g>
     </g>
    </g>
    <g id="xtick_69">
     <g id="line2d_69">
      <g>
       <use style="stroke:#000000;stroke-width:0.2;" x="181.482712" xlink:href="#m9ec9348185" y="307.584"/>
      </g>
     </g>
    </g>
    <g id="xtick_70">
     <g id="line2d_70">
      <g>
       <use style="stroke:#000000;stroke-width:0.2;" x="177.838379" xlink:href="#m9ec9348185" y="307.584"/>
      </g>
     </g>
    </g>
    <g id="xtick_71">
     <g id="line2d_71">
      <g>
       <use style="stroke:#000000;stroke-width:0.2;" x="174.194047" xlink:href="#m9ec9348185" y="307.584"/>
      </g>
     </g>
    </g>
    <g id="xtick_72">
     <g id="line2d_72">
      <g>
       <use style="stroke:#000000;stroke-width:0.2;" x="170.549714" xlink:href="#m9ec9348185" y="307.584"/>
      </g>
     </g>
    </g>
    <g id="xtick_73">
     <g id="line2d_73">
      <g>
       <use style="stroke:#000000;stroke-width:0.2;" x="166.905382" xlink:href="#m9ec9348185" y="307.584"/>
      </g>
     </g>
    </g>
    <g id="xtick_74">
     <g id="line2d_74">
      <g>
       <use style="stroke:#000000;stroke-width:0.2;" x="163.261049" xlink:href="#m9ec9348185" y="307.584"/>
      </g>
     </g>
    </g>
    <g id="xtick_75">
     <g id="line2d_75">
      <g>
       <use style="stroke:#000000;stroke-width:0.2;" x="159.616716" xlink:href="#m9ec9348185" y="307.584"/>
      </g>
     </g>
    </g>
    <g id="xtick_76">
     <g id="line2d_76">
      <g>
       <use style="stroke:#000000;stroke-width:0.2;" x="155.972384" xlink:href="#m9ec9348185" y="307.584"/>
      </g>
     </g>
    </g>
    <g id="xtick_77">
     <g id="line2d_77">
      <g>
       <use style="stroke:#000000;stroke-width:0.2;" x="152.328051" xlink:href="#m9ec9348185" y="307.584"/>
      </g>
     </g>
    </g>
    <g id="xtick_78">
     <g id="line2d_78">
      <g>
       <use style="stroke:#000000;stroke-width:0.2;" x="148.683718" xlink:href="#m9ec9348185" y="307.584"/>
      </g>
     </g>
    </g>
    <g id="xtick_79">
     <g id="line2d_79">
      <g>
       <use style="stroke:#000000;stroke-width:0.2;" x="145.039386" xlink:href="#m9ec9348185" y="307.584"/>
      </g>
     </g>
    </g>
    <g id="xtick_80">
     <g id="line2d_80">
      <g>
       <use style="stroke:#000000;stroke-width:0.2;" x="141.395053" xlink:href="#m9ec9348185" y="307.584"/>
      </g>
     </g>
    </g>
    <g id="xtick_81">
     <g id="line2d_81">
      <g>
       <use style="stroke:#000000;stroke-width:0.2;" x="137.750721" xlink:href="#m9ec9348185" y="307.584"/>
      </g>
     </g>
    </g>
    <g id="xtick_82">
     <g id="line2d_82">
      <g>
       <use style="stroke:#000000;stroke-width:0.2;" x="134.106388" xlink:href="#m9ec9348185" y="307.584"/>
      </g>
     </g>
    </g>
    <g id="xtick_83">
     <g id="line2d_83">
      <g>
       <use style="stroke:#000000;stroke-width:0.2;" x="130.462055" xlink:href="#m9ec9348185" y="307.584"/>
      </g>
     </g>
    </g>
    <g id="xtick_84">
     <g id="line2d_84">
      <g>
       <use style="stroke:#000000;stroke-width:0.2;" x="126.817723" xlink:href="#m9ec9348185" y="307.584"/>
      </g>
     </g>
    </g>
    <g id="xtick_85">
     <g id="line2d_85">
      <g>
       <use style="stroke:#000000;stroke-width:0.2;" x="123.17339" xlink:href="#m9ec9348185" y="307.584"/>
      </g>
     </g>
    </g>
    <g id="xtick_86">
     <g id="line2d_86">
      <g>
       <use style="stroke:#000000;stroke-width:0.2;" x="119.529057" xlink:href="#m9ec9348185" y="307.584"/>
      </g>
     </g>
    </g>
    <g id="xtick_87">
     <g id="line2d_87">
      <g>
       <use style="stroke:#000000;stroke-width:0.2;" x="115.884725" xlink:href="#m9ec9348185" y="307.584"/>
      </g>
     </g>
    </g>
    <g id="xtick_88">
     <g id="line2d_88">
      <g>
       <use style="stroke:#000000;stroke-width:0.2;" x="112.240392" xlink:href="#m9ec9348185" y="307.584"/>
      </g>
     </g>
    </g>
    <g id="xtick_89">
     <g id="line2d_89">
      <g>
       <use style="stroke:#000000;stroke-width:0.2;" x="108.59606" xlink:href="#m9ec9348185" y="307.584"/>
      </g>
     </g>
    </g>
    <g id="xtick_90">
     <g id="line2d_90">
      <g>
       <use style="stroke:#000000;stroke-width:0.2;" x="104.951727" xlink:href="#m9ec9348185" y="307.584"/>
      </g>
     </g>
    </g>
    <g id="xtick_91">
     <g id="line2d_91">
      <g>
       <use style="stroke:#000000;stroke-width:0.2;" x="101.307394" xlink:href="#m9ec9348185" y="307.584"/>
      </g>
     </g>
    </g>
    <g id="xtick_92">
     <g id="line2d_92">
      <g>
       <use style="stroke:#000000;stroke-width:0.2;" x="97.663062" xlink:href="#m9ec9348185" y="307.584"/>
      </g>
     </g>
    </g>
    <g id="xtick_93">
     <g id="line2d_93">
      <g>
       <use style="stroke:#000000;stroke-width:0.2;" x="94.018729" xlink:href="#m9ec9348185" y="307.584"/>
      </g>
     </g>
    </g>
    <g id="xtick_94">
     <g id="line2d_94">
      <g>
       <use style="stroke:#000000;stroke-width:0.2;" x="90.374397" xlink:href="#m9ec9348185" y="307.584"/>
      </g>
     </g>
    </g>
    <g id="xtick_95">
     <g id="line2d_95">
      <g>
       <use style="stroke:#000000;stroke-width:0.2;" x="86.730064" xlink:href="#m9ec9348185" y="307.584"/>
      </g>
     </g>
    </g>
    <g id="xtick_96">
     <g id="line2d_96">
      <g>
       <use style="stroke:#000000;stroke-width:0.2;" x="83.085731" xlink:href="#m9ec9348185" y="307.584"/>
      </g>
     </g>
    </g>
    <g id="xtick_97">
     <g id="line2d_97">
      <g>
       <use style="stroke:#000000;stroke-width:0.2;" x="79.441399" xlink:href="#m9ec9348185" y="307.584"/>
      </g>
     </g>
    </g>
    <g id="xtick_98">
     <g id="line2d_98">
      <g>
       <use style="stroke:#000000;stroke-width:0.2;" x="75.797066" xlink:href="#m9ec9348185" y="307.584"/>
      </g>
     </g>
    </g>
    <g id="xtick_99">
     <g id="line2d_99">
      <g>
       <use style="stroke:#000000;stroke-width:0.2;" x="72.152733" xlink:href="#m9ec9348185" y="307.584"/>
      </g>
     </g>
    </g>
    <g id="xtick_100">
     <g id="line2d_100">
      <g>
       <use style="stroke:#000000;stroke-width:0.2;" x="68.508401" xlink:href="#m9ec9348185" y="307.584"/>
      </g>
     </g>
    </g>
    <g id="xtick_101">
     <g id="line2d_101">
      <g>
       <use style="stroke:#000000;stroke-width:0.2;" x="64.864068" xlink:href="#m9ec9348185" y="307.584"/>
      </g>
     </g>
    </g>
    <g id="xtick_102">
     <g id="line2d_102">
      <g>
       <use style="stroke:#000000;stroke-width:0.2;" x="61.219736" xlink:href="#m9ec9348185" y="307.584"/>
      </g>
     </g>
    </g>
   </g>
   <g id="matplotlib.axis_2">
    <g id="ytick_1">
     <g id="line2d_103">
      <defs>
       <path d="M 0 0 
L 1 0 
" id="mbde81ad156" style="stroke:#000000;stroke-width:0.2;"/>
      </defs>
      <g>
       <use style="stroke:#000000;stroke-width:0.2;" x="57.6" xlink:href="#mbde81ad156" y="289.8432"/>
      </g>
     </g>
     <g id="text_5">
      <!-- 100 -->
      <defs>
       <path d="M 12.40625 8.296875 
L 28.515625 8.296875 
L 28.515625 63.921875 
L 10.984375 60.40625 
L 10.984375 69.390625 
L 28.421875 72.90625 
L 38.28125 72.90625 
L 38.28125 8.296875 
L 54.390625 8.296875 
L 54.390625 0 
L 12.40625 0 
z
" id="DejaVuSans-31"/>
      </defs>
      <g transform="translate(62.05625 291.742809)scale(0.05 -0.05)">
       <use xlink:href="#DejaVuSans-31"/>
       <use x="63.623047" xlink:href="#DejaVuSans-30"/>
       <use x="127.246094" xlink:href="#DejaVuSans-30"/>
      </g>
     </g>
    </g>
    <g id="ytick_2">
     <g id="line2d_104">
      <g>
       <use style="stroke:#000000;stroke-width:0.2;" x="57.6" xlink:href="#mbde81ad156" y="272.1024"/>
      </g>
     </g>
     <g id="text_6">
      <!-- 200 -->
      <g transform="translate(62.05625 274.002009)scale(0.05 -0.05)">
       <use xlink:href="#DejaVuSans-32"/>
       <use x="63.623047" xlink:href="#DejaVuSans-30"/>
       <use x="127.246094" xlink:href="#DejaVuSans-30"/>
      </g>
     </g>
    </g>
    <g id="ytick_3">
     <g id="line2d_105">
      <g>
       <use style="stroke:#000000;stroke-width:0.2;" x="57.6" xlink:href="#mbde81ad156" y="254.3616"/>
      </g>
     </g>
     <g id="text_7">
      <!-- 300 -->
      <defs>
       <path d="M 40.578125 39.3125 
Q 47.65625 37.796875 51.625 33 
Q 55.609375 28.21875 55.609375 21.1875 
Q 55.609375 10.40625 48.1875 4.484375 
Q 40.765625 -1.421875 27.09375 -1.421875 
Q 22.515625 -1.421875 17.65625 -0.515625 
Q 12.796875 0.390625 7.625 2.203125 
L 7.625 11.71875 
Q 11.71875 9.328125 16.59375 8.109375 
Q 21.484375 6.890625 26.8125 6.890625 
Q 36.078125 6.890625 40.9375 10.546875 
Q 45.796875 14.203125 45.796875 21.1875 
Q 45.796875 27.640625 41.28125 31.265625 
Q 36.765625 34.90625 28.71875 34.90625 
L 20.21875 34.90625 
L 20.21875 43.015625 
L 29.109375 43.015625 
Q 36.375 43.015625 40.234375 45.921875 
Q 44.09375 48.828125 44.09375 54.296875 
Q 44.09375 59.90625 40.109375 62.90625 
Q 36.140625 65.921875 28.71875 65.921875 
Q 24.65625 65.921875 20.015625 65.03125 
Q 15.375 64.15625 9.8125 62.3125 
L 9.8125 71.09375 
Q 15.4375 72.65625 20.34375 73.4375 
Q 25.25 74.21875 29.59375 74.21875 
Q 40.828125 74.21875 47.359375 69.109375 
Q 53.90625 64.015625 53.90625 55.328125 
Q 53.90625 49.265625 50.4375 45.09375 
Q 46.96875 40.921875 40.578125 39.3125 
z
" id="DejaVuSans-33"/>
      </defs>
      <g transform="translate(62.05625 256.261209)scale(0.05 -0.05)">
       <use xlink:href="#DejaVuSans-33"/>
       <use x="63.623047" xlink:href="#DejaVuSans-30"/>
       <use x="127.246094" xlink:href="#DejaVuSans-30"/>
      </g>
     </g>
    </g>
    <g id="ytick_4">
     <g id="line2d_106">
      <g>
       <use style="stroke:#000000;stroke-width:0.2;" x="57.6" xlink:href="#mbde81ad156" y="236.6208"/>
      </g>
     </g>
     <g id="text_8">
      <!-- 400 -->
      <g transform="translate(62.05625 238.520409)scale(0.05 -0.05)">
       <use xlink:href="#DejaVuSans-34"/>
       <use x="63.623047" xlink:href="#DejaVuSans-30"/>
       <use x="127.246094" xlink:href="#DejaVuSans-30"/>
      </g>
     </g>
    </g>
    <g id="ytick_5">
     <g id="line2d_107">
      <g>
       <use style="stroke:#000000;stroke-width:0.2;" x="57.6" xlink:href="#mbde81ad156" y="218.88"/>
      </g>
     </g>
     <g id="text_9">
      <!-- 500 -->
      <defs>
       <path d="M 10.796875 72.90625 
L 49.515625 72.90625 
L 49.515625 64.59375 
L 19.828125 64.59375 
L 19.828125 46.734375 
Q 21.96875 47.46875 24.109375 47.828125 
Q 26.265625 48.1875 28.421875 48.1875 
Q 40.625 48.1875 47.75 41.5 
Q 54.890625 34.8125 54.890625 23.390625 
Q 54.890625 11.625 47.5625 5.09375 
Q 40.234375 -1.421875 26.90625 -1.421875 
Q 22.3125 -1.421875 17.546875 -0.640625 
Q 12.796875 0.140625 7.71875 1.703125 
L 7.71875 11.625 
Q 12.109375 9.234375 16.796875 8.0625 
Q 21.484375 6.890625 26.703125 6.890625 
Q 35.15625 6.890625 40.078125 11.328125 
Q 45.015625 15.765625 45.015625 23.390625 
Q 45.015625 31 40.078125 35.4375 
Q 35.15625 39.890625 26.703125 39.890625 
Q 22.75 39.890625 18.8125 39.015625 
Q 14.890625 38.140625 10.796875 36.28125 
z
" id="DejaVuSans-35"/>
      </defs>
      <g transform="translate(62.05625 220.779609)scale(0.05 -0.05)">
       <use xlink:href="#DejaVuSans-35"/>
       <use x="63.623047" xlink:href="#DejaVuSans-30"/>
       <use x="127.246094" xlink:href="#DejaVuSans-30"/>
      </g>
     </g>
    </g>
    <g id="ytick_6">
     <g id="line2d_108">
      <g>
       <use style="stroke:#000000;stroke-width:0.2;" x="57.6" xlink:href="#mbde81ad156" y="201.1392"/>
      </g>
     </g>
     <g id="text_10">
      <!-- 600 -->
      <g transform="translate(62.05625 203.038809)scale(0.05 -0.05)">
       <use xlink:href="#DejaVuSans-36"/>
       <use x="63.623047" xlink:href="#DejaVuSans-30"/>
       <use x="127.246094" xlink:href="#DejaVuSans-30"/>
      </g>
     </g>
    </g>
    <g id="ytick_7">
     <g id="line2d_109">
      <g>
       <use style="stroke:#000000;stroke-width:0.2;" x="57.6" xlink:href="#mbde81ad156" y="183.3984"/>
      </g>
     </g>
     <g id="text_11">
      <!-- 700 -->
      <defs>
       <path d="M 8.203125 72.90625 
L 55.078125 72.90625 
L 55.078125 68.703125 
L 28.609375 0 
L 18.3125 0 
L 43.21875 64.59375 
L 8.203125 64.59375 
z
" id="DejaVuSans-37"/>
      </defs>
      <g transform="translate(62.05625 185.298009)scale(0.05 -0.05)">
       <use xlink:href="#DejaVuSans-37"/>
       <use x="63.623047" xlink:href="#DejaVuSans-30"/>
       <use x="127.246094" xlink:href="#DejaVuSans-30"/>
      </g>
     </g>
    </g>
    <g id="ytick_8">
     <g id="line2d_110">
      <g>
       <use style="stroke:#000000;stroke-width:0.2;" x="57.6" xlink:href="#mbde81ad156" y="165.6576"/>
      </g>
     </g>
     <g id="text_12">
      <!-- 800 -->
      <g transform="translate(62.05625 167.557209)scale(0.05 -0.05)">
       <use xlink:href="#DejaVuSans-38"/>
       <use x="63.623047" xlink:href="#DejaVuSans-30"/>
       <use x="127.246094" xlink:href="#DejaVuSans-30"/>
      </g>
     </g>
    </g>
    <g id="ytick_9">
     <g id="line2d_111">
      <g>
       <use style="stroke:#000000;stroke-width:0.2;" x="57.6" xlink:href="#mbde81ad156" y="147.9168"/>
      </g>
     </g>
     <g id="text_13">
      <!-- 900 -->
      <defs>
       <path d="M 10.984375 1.515625 
L 10.984375 10.5 
Q 14.703125 8.734375 18.5 7.8125 
Q 22.3125 6.890625 25.984375 6.890625 
Q 35.75 6.890625 40.890625 13.453125 
Q 46.046875 20.015625 46.78125 33.40625 
Q 43.953125 29.203125 39.59375 26.953125 
Q 35.25 24.703125 29.984375 24.703125 
Q 19.046875 24.703125 12.671875 31.3125 
Q 6.296875 37.9375 6.296875 49.421875 
Q 6.296875 60.640625 12.9375 67.421875 
Q 19.578125 74.21875 30.609375 74.21875 
Q 43.265625 74.21875 49.921875 64.515625 
Q 56.59375 54.828125 56.59375 36.375 
Q 56.59375 19.140625 48.40625 8.859375 
Q 40.234375 -1.421875 26.421875 -1.421875 
Q 22.703125 -1.421875 18.890625 -0.6875 
Q 15.09375 0.046875 10.984375 1.515625 
z
M 30.609375 32.421875 
Q 37.25 32.421875 41.125 36.953125 
Q 45.015625 41.5 45.015625 49.421875 
Q 45.015625 57.28125 41.125 61.84375 
Q 37.25 66.40625 30.609375 66.40625 
Q 23.96875 66.40625 20.09375 61.84375 
Q 16.21875 57.28125 16.21875 49.421875 
Q 16.21875 41.5 20.09375 36.953125 
Q 23.96875 32.421875 30.609375 32.421875 
z
" id="DejaVuSans-39"/>
      </defs>
      <g transform="translate(62.05625 149.816409)scale(0.05 -0.05)">
       <use xlink:href="#DejaVuSans-39"/>
       <use x="63.623047" xlink:href="#DejaVuSans-30"/>
       <use x="127.246094" xlink:href="#DejaVuSans-30"/>
      </g>
     </g>
    </g>
    <g id="ytick_10">
     <g id="line2d_112">
      <g>
       <use style="stroke:#000000;stroke-width:0.2;" x="57.6" xlink:href="#mbde81ad156" y="130.176"/>
      </g>
     </g>
     <g id="text_14">
      <!-- 1000 -->
      <g transform="translate(58.875 132.075609)scale(0.05 -0.05)">
       <use xlink:href="#DejaVuSans-31"/>
       <use x="63.623047" xlink:href="#DejaVuSans-30"/>
       <use x="127.246094" xlink:href="#DejaVuSans-30"/>
       <use x="190.869141" xlink:href="#DejaVuSans-30"/>
      </g>
     </g>
    </g>
    <g id="ytick_11">
     <g id="line2d_113">
      <g>
       <use style="stroke:#000000;stroke-width:0.2;" x="57.6" xlink:href="#mbde81ad156" y="112.4352"/>
      </g>
     </g>
     <g id="text_15">
      <!-- 1100 -->
      <g transform="translate(58.875 114.334809)scale(0.05 -0.05)">
       <use xlink:href="#DejaVuSans-31"/>
       <use x="63.623047" xlink:href="#DejaVuSans-31"/>
       <use x="127.246094" xlink:href="#DejaVuSans-30"/>
       <use x="190.869141" xlink:href="#DejaVuSans-30"/>
      </g>
     </g>
    </g>
    <g id="ytick_12">
     <g id="line2d_114">
      <g>
       <use style="stroke:#000000;stroke-width:0.2;" x="57.6" xlink:href="#mbde81ad156" y="94.6944"/>
      </g>
     </g>
     <g id="text_16">
      <!-- 1200 -->
      <g transform="translate(58.875 96.594009)scale(0.05 -0.05)">
       <use xlink:href="#DejaVuSans-31"/>
       <use x="63.623047" xlink:href="#DejaVuSans-32"/>
       <use x="127.246094" xlink:href="#DejaVuSans-30"/>
       <use x="190.869141" xlink:href="#DejaVuSans-30"/>
      </g>
     </g>
    </g>
    <g id="ytick_13">
     <g id="line2d_115">
      <g>
       <use style="stroke:#000000;stroke-width:0.2;" x="57.6" xlink:href="#mbde81ad156" y="76.9536"/>
      </g>
     </g>
     <g id="text_17">
      <!-- 1300 -->
      <g transform="translate(58.875 78.853209)scale(0.05 -0.05)">
       <use xlink:href="#DejaVuSans-31"/>
       <use x="63.623047" xlink:href="#DejaVuSans-33"/>
       <use x="127.246094" xlink:href="#DejaVuSans-30"/>
       <use x="190.869141" xlink:href="#DejaVuSans-30"/>
      </g>
     </g>
    </g>
    <g id="ytick_14">
     <g id="line2d_116">
      <g>
       <use style="stroke:#000000;stroke-width:0.2;" x="57.6" xlink:href="#mbde81ad156" y="59.2128"/>
      </g>
     </g>
     <g id="text_18">
      <!-- 1400 -->
      <g transform="translate(58.875 61.112409)scale(0.05 -0.05)">
       <use xlink:href="#DejaVuSans-31"/>
       <use x="63.623047" xlink:href="#DejaVuSans-34"/>
       <use x="127.246094" xlink:href="#DejaVuSans-30"/>
       <use x="190.869141" xlink:href="#DejaVuSans-30"/>
      </g>
     </g>
    </g>
   </g>
   <g id="line2d_117">
    <path clip-path="url(#pc340f12af7)" d="M 414.72 300.808858 
L 406.192327 298.54675 
L 391.141351 294.737087 
L 378.459166 291.756184 
L 367.81778 289.477429 
L 359.034979 287.812663 
L 351.782776 286.650338 
L 346.206946 285.963712 
L 343.145698 285.703208 
L 343.145698 285.703208 
" style="fill:none;stroke:#0000ff;stroke-linecap:square;stroke-width:0.2;"/>
   </g>
   <g id="line2d_118">
    <path clip-path="url(#pc340f12af7)" d="M 414.72 300.808858 
L 406.301657 298.568869 
L 391.214239 294.736924 
L 378.495613 291.735386 
L 367.744899 289.421766 
L 357.905246 287.557905 
L 350.835258 286.439099 
L 345.222985 285.759787 
L 342.30751 285.517376 
L 342.30751 285.517376 
" style="fill:none;stroke:#0000ff;stroke-linecap:square;stroke-width:0.2;"/>
   </g>
   <g id="line2d_119">
    <path clip-path="url(#pc340f12af7)" d="M 414.72 300.808858 
L 406.410987 298.591167 
L 391.287128 294.736891 
L 378.495616 291.70642 
L 367.672017 289.366091 
L 357.905252 287.500538 
L 350.689493 286.34055 
L 344.895005 285.619567 
L 341.432879 285.326683 
L 341.432879 285.326683 
" style="fill:none;stroke:#0000ff;stroke-linecap:square;stroke-width:0.2;"/>
   </g>
   <g id="line2d_120">
    <path clip-path="url(#pc340f12af7)" d="M 414.72 300.808858 
L 406.483874 298.604051 
L 391.323573 294.727997 
L 378.49562 291.677481 
L 367.599136 289.310297 
L 357.868815 287.437084 
L 350.470841 286.231592 
L 344.530581 285.475106 
L 340.558248 285.133469 
L 340.558248 285.133469 
" style="fill:none;stroke:#0000ff;stroke-linecap:square;stroke-width:0.2;"/>
   </g>
   <g id="line2d_121">
    <path clip-path="url(#pc340f12af7)" d="M 414.72 300.808858 
L 406.593204 298.626678 
L 391.396462 294.728195 
L 378.495623 291.648569 
L 367.526254 289.254392 
L 357.795935 287.367324 
L 350.252189 286.12251 
L 344.166157 285.330041 
L 339.647174 284.935227 
L 339.647174 284.935227 
" style="fill:none;stroke:#0000ff;stroke-linecap:square;stroke-width:0.2;"/>
   </g>
   <g id="line2d_122">
    <path clip-path="url(#pc340f12af7)" d="M 414.72 300.808858 
L 406.666091 298.639831 
L 391.432907 294.71947 
L 378.495627 291.619685 
L 367.453373 289.198385 
L 357.723054 287.297679 
L 349.997094 286.007798 
L 343.765291 285.180311 
L 338.845431 284.740985 
L 338.699657 284.731887 
L 338.699657 284.731887 
" style="fill:none;stroke:#0000ff;stroke-linecap:square;stroke-width:0.2;"/>
   </g>
   <g id="line2d_123">
    <path clip-path="url(#pc340f12af7)" d="M 414.72 300.808858 
L 406.738978 298.653104 
L 391.469353 294.710814 
L 378.459188 291.582428 
L 367.344048 289.134693 
L 357.613731 287.221463 
L 349.741999 285.892794 
L 343.364424 285.029817 
L 338.335235 284.562818 
L 337.715696 284.523419 
L 337.715696 284.523419 
" style="fill:none;stroke:#0000ff;stroke-linecap:square;stroke-width:0.2;"/>
   </g>
   <g id="line2d_124">
    <path clip-path="url(#pc340f12af7)" d="M 414.72 300.808858 
L 406.811865 298.666497 
L 391.505798 294.702228 
L 378.459191 291.553566 
L 367.271167 289.078453 
L 357.504407 287.14523 
L 349.486904 285.777495 
L 342.963557 284.878594 
L 337.82504 284.382959 
L 336.695293 284.309663 
L 336.695293 284.309663 
" style="fill:none;stroke:#0000ff;stroke-linecap:square;stroke-width:0.2;"/>
   </g>
   <g id="line2d_125">
    <path clip-path="url(#pc340f12af7)" d="M 414.72 300.808858 
L 406.884752 298.68001 
L 391.578687 294.702856 
L 378.459195 291.524733 
L 367.198285 289.022129 
L 357.358641 287.062189 
L 349.195366 285.656178 
L 342.526247 284.72225 
L 337.241958 284.196055 
L 335.638446 284.09056 
L 335.638446 284.09056 
" style="fill:none;stroke:#0000ff;stroke-linecap:square;stroke-width:0.2;"/>
   </g>
   <g id="line2d_126">
    <path clip-path="url(#pc340f12af7)" d="M 414.72 300.808858 
L 406.957639 298.693642 
L 391.615132 294.694438 
L 378.459198 291.495926 
L 367.125404 288.965722 
L 357.249317 286.985843 
L 348.94027 285.540213 
L 342.12538 284.569509 
L 336.695319 284.010047 
L 334.545156 283.865981 
L 334.545156 283.865981 
" style="fill:none;stroke:#0000ff;stroke-linecap:square;stroke-width:0.2;"/>
   </g>
   <g id="line2d_127">
    <path clip-path="url(#pc340f12af7)" d="M 414.72 300.808858 
L 407.030526 298.707393 
L 391.651577 294.686089 
L 378.422759 291.458612 
L 367.016079 288.901472 
L 357.067107 286.895684 
L 348.648732 285.418088 
L 341.68807 284.411478 
L 336.112237 283.819452 
L 333.415423 283.635698 
L 333.415423 283.635698 
" style="fill:none;stroke:#0000ff;stroke-linecap:square;stroke-width:0.2;"/>
   </g>
   <g id="line2d_128">
    <path clip-path="url(#pc340f12af7)" d="M 414.72 300.808858 
L 407.06697 298.711433 
L 391.65158 294.668571 
L 378.38632 291.421258 
L 366.906755 288.837065 
L 356.884898 286.805273 
L 348.357194 285.295525 
L 341.25076 284.252584 
L 335.529155 283.627066 
L 332.249246 283.39956 
L 332.249246 283.39956 
" style="fill:none;stroke:#0000ff;stroke-linecap:square;stroke-width:0.2;"/>
   </g>
   <g id="line2d_129">
    <path clip-path="url(#pc340f12af7)" d="M 414.72 300.808858 
L 407.139857 298.725393 
L 391.688025 294.660327 
L 378.386323 291.392463 
L 366.833873 288.780347 
L 356.739131 286.721586 
L 348.065656 285.172524 
L 340.631233 284.068977 
L 334.8003 283.419914 
L 331.010183 283.155471 
L 331.010183 283.155471 
" style="fill:none;stroke:#0000ff;stroke-linecap:square;stroke-width:0.2;"/>
   </g>
   <g id="line2d_130">
    <path clip-path="url(#pc340f12af7)" d="M 414.72 300.808858 
L 407.176301 298.729583 
L 391.724471 294.652151 
L 378.349884 291.355061 
L 366.724549 288.715674 
L 356.520478 286.623684 
L 347.774117 285.049717 
L 340.011707 283.883789 
L 334.035001 283.206852 
L 329.734677 282.905151 
L 329.734677 282.905151 
" style="fill:none;stroke:#0000ff;stroke-linecap:square;stroke-width:0.2;"/>
   </g>
   <g id="line2d_131">
    <path clip-path="url(#pc340f12af7)" d="M 414.72 300.808858 
L 407.212744 298.733832 
L 391.724473 294.634714 
L 378.313444 291.317618 
L 366.615224 288.650854 
L 356.338268 286.532517 
L 347.446136 284.919839 
L 339.865943 283.760962 
L 333.67058 283.029341 
L 328.750719 282.663526 
L 328.386285 282.646608 
L 328.386285 282.646608 
" style="fill:none;stroke:#0000ff;stroke-linecap:square;stroke-width:0.2;"/>
   </g>
   <g id="line2d_132">
    <path clip-path="url(#pc340f12af7)" d="M 414.72 300.808858 
L 407.285631 298.748087 
L 391.760918 294.62664 
L 378.313448 291.288828 
L 366.5059 288.585887 
L 356.119615 286.433981 
L 347.118154 284.789156 
L 339.428633 283.5986 
L 333.051055 282.826572 
L 327.985423 282.428148 
L 327.001449 282.381214 
L 327.001449 282.381214 
" style="fill:none;stroke:#0000ff;stroke-linecap:square;stroke-width:0.2;"/>
   </g>
   <g id="line2d_133">
    <path clip-path="url(#pc340f12af7)" d="M 414.72 300.808858 
L 407.322075 298.752484 
L 391.797364 294.618632 
L 378.313451 291.260061 
L 366.433018 288.528761 
L 355.937406 286.342267 
L 346.790173 284.657929 
L 338.918437 283.425182 
L 332.358643 282.614592 
L 327.147239 282.185143 
L 325.543727 282.107018 
L 325.543727 282.107018 
" style="fill:none;stroke:#0000ff;stroke-linecap:square;stroke-width:0.2;"/>
   </g>
   <g id="line2d_134">
    <path clip-path="url(#pc340f12af7)" d="M 414.72 300.808858 
L 407.358519 298.756941 
L 391.797366 294.601274 
L 378.240569 291.213794 
L 366.287251 288.455518 
L 355.68231 286.235894 
L 346.425748 284.51995 
L 338.335354 283.240264 
L 331.629789 282.396691 
L 326.236169 281.933767 
L 323.976675 281.82245 
L 323.976675 281.82245 
" style="fill:none;stroke:#0000ff;stroke-linecap:square;stroke-width:0.2;"/>
   </g>
   <g id="line2d_135">
    <path clip-path="url(#pc340f12af7)" d="M 414.72 300.808858 
L 407.394963 298.761456 
L 391.797369 294.583922 
L 378.20413 291.176213 
L 366.214369 288.398172 
L 355.5001 286.143587 
L 346.097767 284.387668 
L 337.898044 283.075052 
L 330.97382 282.184598 
L 325.397986 281.683071 
L 322.37318 281.529828 
L 322.37318 281.529828 
" style="fill:none;stroke:#0000ff;stroke-linecap:square;stroke-width:0.2;"/>
   </g>
   <g id="line2d_136">
    <path clip-path="url(#pc340f12af7)" d="M 414.72 300.808858 
L 407.431406 298.76603 
L 391.833814 294.576048 
L 378.204133 291.147411 
L 366.105045 288.332658 
L 355.31789 286.051028 
L 345.806229 284.261211 
L 337.424291 282.903726 
L 330.317852 281.970837 
L 324.523359 281.426511 
L 320.660355 281.226102 
L 320.660355 281.226102 
" style="fill:none;stroke:#0000ff;stroke-linecap:square;stroke-width:0.2;"/>
   </g>
   <g id="line2d_137">
    <path clip-path="url(#pc340f12af7)" d="M 414.72 300.808858 
L 407.431407 298.760577 
L 391.797373 294.549234 
L 378.131251 291.10092 
L 365.99572 288.266998 
L 355.099237 285.950883 
L 345.441805 284.121428 
L 336.914095 282.726059 
L 329.625441 281.751224 
L 323.648733 281.166544 
L 318.8382 280.910909 
L 318.8382 280.910909 
" style="fill:none;stroke:#0000ff;stroke-linecap:square;stroke-width:0.2;"/>
   </g>
   <g id="line2d_138">
    <path clip-path="url(#pc340f12af7)" d="M 414.72 300.808858 
L 407.467851 298.76524 
L 391.797376 294.531899 
L 378.094811 291.063208 
L 365.886396 288.201191 
L 354.880585 285.850399 
L 345.113823 283.987494 
L 336.440342 282.552855 
L 328.93303 281.529837 
L 322.70122 280.897549 
L 317.708472 280.606402 
L 316.906715 280.583776 
L 316.906715 280.583776 
" style="fill:none;stroke:#0000ff;stroke-linecap:square;stroke-width:0.2;"/>
   </g>
   <g id="line2d_139">
    <path clip-path="url(#pc340f12af7)" d="M 414.72 300.808858 
L 407.504295 298.76996 
L 391.833821 294.524127 
L 378.058372 291.02545 
L 365.777071 288.135235 
L 354.661932 285.749576 
L 344.749399 283.846467 
L 335.893702 282.3676 
L 328.204175 281.30227 
L 321.753707 280.624993 
L 316.5423 280.293396 
L 314.865901 280.243932 
L 314.865901 280.243932 
" style="fill:none;stroke:#0000ff;stroke-linecap:square;stroke-width:0.2;"/>
   </g>
   <g id="line2d_140">
    <path clip-path="url(#pc340f12af7)" d="M 414.72 300.808858 
L 407.540739 298.774739 
L 391.833823 294.50683 
L 378.021933 290.987648 
L 365.667747 288.069129 
L 354.479722 285.655872 
L 344.457861 283.718007 
L 335.456393 282.198148 
L 327.548207 281.081957 
L 320.842637 280.352372 
L 315.376129 279.973553 
L 312.679313 279.889767 
L 312.679313 279.889767 
" style="fill:none;stroke:#0000ff;stroke-linecap:square;stroke-width:0.2;"/>
   </g>
   <g id="line2d_141">
    <path clip-path="url(#pc340f12af7)" d="M 414.72 300.808858 
L 407.540739 298.769377 
L 391.833826 294.489537 
L 377.985493 290.949801 
L 365.558422 288.002872 
L 354.26107 285.554413 
L 344.093436 283.575797 
L 334.909753 282.01079 
L 326.782909 280.846217 
L 319.822238 280.066661 
L 314.100628 279.642084 
L 310.310509 279.519824 
L 310.310509 279.519824 
" style="fill:none;stroke:#0000ff;stroke-linecap:square;stroke-width:0.2;"/>
   </g>
   <g id="line2d_142">
    <path clip-path="url(#pc340f12af7)" d="M 414.72 300.808858 
L 407.577183 298.774243 
L 391.833828 294.472249 
L 377.949054 290.911908 
L 365.449098 287.936463 
L 354.07886 285.460158 
L 343.801898 283.446374 
L 334.472443 281.839696 
L 326.126941 280.622812 
L 318.911168 279.788119 
L 312.898014 279.308117 
L 308.051037 279.135431 
L 307.723045 279.132825 
L 307.723045 279.132825 
" style="fill:none;stroke:#0000ff;stroke-linecap:square;stroke-width:0.2;"/>
   </g>
   <g id="line2d_143">
    <path clip-path="url(#pc340f12af7)" d="M 414.72 300.808858 
L 407.613627 298.779166 
L 391.833831 294.454965 
L 377.876171 290.864931 
L 365.303331 287.861564 
L 353.860207 285.358063 
L 343.437474 283.30299 
L 333.925804 281.650282 
L 325.361644 280.383449 
L 317.854326 279.492192 
L 311.549626 278.959598 
L 306.447547 278.741878 
L 304.953365 278.727692 
L 304.953365 278.727692 
" style="fill:none;stroke:#0000ff;stroke-linecap:square;stroke-width:0.2;"/>
   </g>
   <g id="line2d_144">
    <path clip-path="url(#pc340f12af7)" d="M 414.72 300.808858 
L 407.613628 298.773865 
L 391.833833 294.437685 
L 377.839732 290.826915 
L 365.194006 287.79481 
L 353.641554 285.255631 
L 343.109493 283.16579 
L 333.415608 281.465695 
L 324.632789 280.14717 
L 316.87037 279.200512 
L 310.237682 278.607336 
L 304.771171 278.333951 
L 301.892138 278.302182 
L 301.892138 278.302182 
" style="fill:none;stroke:#0000ff;stroke-linecap:square;stroke-width:0.2;"/>
   </g>
   <g id="line2d_145">
    <path clip-path="url(#pc340f12af7)" d="M 414.72 300.808858 
L 407.650071 298.778874 
L 391.833835 294.420408 
L 377.803293 290.788853 
L 365.084682 287.7279 
L 353.459345 285.160476 
L 342.963727 283.062445 
L 333.087628 281.310219 
L 324.086151 279.934606 
L 315.995743 278.918125 
L 308.962181 278.252579 
L 303.131239 277.915691 
L 298.539365 277.854096 
L 298.539365 277.854096 
" style="fill:none;stroke:#0000ff;stroke-linecap:square;stroke-width:0.2;"/>
   </g>
   <g id="line2d_146">
    <path clip-path="url(#pc340f12af7)" d="M 414.72 300.808858 
L 407.650072 298.773603 
L 391.833838 294.403136 
L 377.766853 290.750745 
L 364.975357 287.660833 
L 353.277135 285.065025 
L 342.635746 282.924445 
L 332.613875 281.130136 
L 323.357297 279.695519 
L 314.975344 278.617283 
L 307.577349 277.884425 
L 301.30909 277.480193 
L 296.20701 277.366181 
L 294.749271 277.381912 
L 294.749271 277.381912 
" style="fill:none;stroke:#0000ff;stroke-linecap:square;stroke-width:0.2;"/>
   </g>
   <g id="line2d_147">
    <path clip-path="url(#pc340f12af7)" d="M 414.72 300.808858 
L 407.686516 298.778698 
L 391.83384 294.385867 
L 377.730414 290.71259 
L 364.866033 287.593608 
L 353.094926 284.969323 
L 342.271322 282.778933 
L 332.067235 280.936923 
L 322.591999 279.449577 
L 313.918501 278.309342 
L 306.156075 277.507888 
L 299.450497 277.032159 
L 293.911099 276.853326 
L 290.485414 276.882467 
L 290.485414 276.882467 
" style="fill:none;stroke:#0000ff;stroke-linecap:square;stroke-width:0.2;"/>
   </g>
   <g id="line2d_148">
    <path clip-path="url(#pc340f12af7)" d="M 414.72 300.808858 
L 407.686517 298.773457 
L 391.833842 294.368601 
L 377.693975 290.674389 
L 364.756709 287.526226 
L 352.912716 284.873381 
L 341.906897 282.632798 
L 331.557039 280.74886 
L 321.863144 279.207252 
L 312.898101 278.002865 
L 304.7348 277.126171 
L 297.55546 276.572213 
L 291.469414 276.317771 
L 286.513107 276.323927 
L 285.565577 276.354201 
L 285.565577 276.354201 
" style="fill:none;stroke:#0000ff;stroke-linecap:square;stroke-width:0.2;"/>
   </g>
   <g id="line2d_149">
    <path clip-path="url(#pc340f12af7)" d="M 414.72 300.808858 
L 407.72296 298.778637 
L 391.833845 294.351339 
L 377.621092 290.626919 
L 364.647384 287.458686 
L 352.730507 284.777205 
L 341.542473 282.486042 
L 331.0104 280.553585 
L 321.097846 278.957962 
L 311.804815 277.684725 
L 303.240639 276.732525 
L 295.551094 276.095877 
L 288.845512 275.75786 
L 283.306114 275.692474 
L 279.734656 275.797758 
L 279.734656 275.797758 
" style="fill:none;stroke:#0000ff;stroke-linecap:square;stroke-width:0.2;"/>
   </g>
   <g id="line2d_150">
    <path clip-path="url(#pc340f12af7)" d="M 414.72 300.808858 
L 407.722961 298.773427 
L 391.833847 294.33408 
L 377.584653 290.588592 
L 364.53806 287.390987 
L 352.548297 284.680794 
L 341.178049 282.338668 
L 330.463761 280.357264 
L 320.332548 278.707004 
L 310.747972 277.368254 
L 301.782921 276.33739 
L 293.546727 275.610037 
L 286.185167 275.177843 
L 279.880459 275.022896 
L 274.66905 275.109583 
L 272.664661 275.214284 
L 272.664661 275.214284 
" style="fill:none;stroke:#0000ff;stroke-linecap:square;stroke-width:0.2;"/>
   </g>
   <g id="line2d_151">
    <path clip-path="url(#pc340f12af7)" d="M 414.72 300.808858 
L 407.759405 298.778691 
L 391.833849 294.316824 
L 377.548213 290.550218 
L 364.428736 287.323132 
L 352.329645 284.576233 
L 340.813625 282.190679 
L 329.953564 280.166309 
L 319.567251 278.45441 
L 309.654686 277.044375 
L 300.288759 275.933802 
L 291.505916 275.112698 
L 283.41549 274.57609 
L 276.1997 274.315984 
L 270.040766 274.31029 
L 264.975131 274.521161 
L 263.626725 274.621336 
L 263.626725 274.621336 
" style="fill:none;stroke:#0000ff;stroke-linecap:square;stroke-width:0.2;"/>
   </g>
   <g id="line2d_152">
    <path clip-path="url(#pc340f12af7)" d="M 414.72 300.808858 
L 407.759406 298.77351 
L 391.797409 294.289641 
L 377.475331 290.502485 
L 366.870422 287.864935 
L 354.69845 285.041867 
L 343.000219 282.55321 
L 331.848618 280.406728 
L 321.134319 278.5693 
L 310.820882 277.024984 
L 300.908308 275.764297 
L 291.433045 274.781862 
L 282.467981 274.073843 
L 274.122448 273.635182 
L 266.578667 273.456709 
L 259.982413 273.517132 
L 254.698121 273.776331 
L 251.163112 274.088892 
L 251.163112 274.088892 
" style="fill:none;stroke:#0000ff;stroke-linecap:square;stroke-width:0.2;"/>
   </g>
   <g id="line2d_153">
    <path clip-path="url(#pc340f12af7)" d="M 414.72 300.808858 
L 407.795849 298.77886 
L 391.833854 294.282321 
L 377.475335 290.473329 
L 366.870427 287.82554 
L 354.589126 284.963722 
L 342.745124 282.429377 
L 331.411308 280.231167 
L 320.47835 278.336026 
L 309.873368 276.72229 
L 299.559919 275.376955 
L 289.538006 274.293161 
L 279.844075 273.467419 
L 270.551015 272.896651 
L 261.695272 272.57334 
L 253.495509 272.492845 
L 245.988171 272.635755 
L 239.428364 272.977159 
L 233.925418 273.47973 
L 230.609077 273.917822 
L 230.609077 273.917822 
" style="fill:none;stroke:#0000ff;stroke-linecap:square;stroke-width:0.2;"/>
   </g>
   <g id="line2d_154">
    <path clip-path="url(#pc340f12af7)" d="M 414.72 300.808858 
L 407.79585 298.773708 
L 391.797414 294.255086 
L 377.36601 290.415562 
L 366.97976 287.812829 
L 354.734904 284.942852 
L 342.74513 282.357625 
L 331.265543 280.109002 
L 320.113928 278.149711 
L 309.2174 276.459699 
L 298.503076 275.022122 
L 287.934513 273.828067 
L 277.511715 272.873418 
L 267.19824 272.151183 
L 256.994089 271.65871 
L 246.826379 271.392326 
L 236.877329 271.353779 
L 227.074053 271.537353 
L 217.088564 271.960096 
L 207.795506 272.57866 
L 198.866889 273.393789 
L 190.412047 274.386688 
L 182.649639 275.517735 
L 175.871214 276.722636 
L 170.33187 277.913953 
L 165.412075 279.177395 
L 164.974761 279.302251 
L 164.974761 279.302251 
" style="fill:none;stroke:#0000ff;stroke-linecap:square;stroke-width:0.2;"/>
   </g>
   <g id="line2d_155">
    <path clip-path="url(#pc340f12af7)" d="M 414.72 300.808858 
L 407.795851 298.768558 
L 391.797416 294.237814 
L 377.293127 290.3672 
L 366.688221 287.702407 
L 354.078934 284.741311 
L 342.016275 282.135521 
L 330.390915 279.850717 
L 319.020641 277.84162 
L 307.832567 276.089609 
L 296.717366 274.57366 
L 285.602153 273.282262 
L 274.414043 272.206712 
L 263.08015 271.340884 
L 251.454702 270.676699 
L 239.464813 270.216068 
L 226.855379 269.956702 
L 214.792589 269.903204 
L 200.506736 270.054953 
L 184.908901 270.446362 
L 167.343084 271.115668 
L 148.100812 272.081753 
L 127.291381 273.354434 
L 103.238314 275.059902 
L 78.857068 277.04979 
L 57.609854 278.995727 
L 57.609854 278.995727 
" style="fill:none;stroke:#00ffff;stroke-linecap:square;stroke-width:0.2;"/>
   </g>
   <g id="line2d_156">
    <path clip-path="url(#pc340f12af7)" d="M 414.72 300.808858 
L 407.832295 298.774019 
L 391.797418 294.220544 
L 377.256688 290.328327 
L 366.542454 287.627291 
L 353.750953 284.612995 
L 341.578965 281.972554 
L 329.771389 279.638562 
L 318.182456 277.573832 
L 306.666393 275.748143 
L 295.150316 274.147579 
L 283.488452 272.751471 
L 271.535029 271.545558 
L 259.144274 270.520875 
L 246.061082 269.665118 
L 232.139676 268.981784 
L 216.979172 268.463989 
L 200.3609 268.124529 
L 181.99329 267.975728 
L 161.475432 268.037274 
L 139.681932 268.334179 
L 117.050076 268.86862 
L 91.830465 269.696785 
L 66.90215 270.775257 
L 57.608625 271.246231 
L 57.608625 271.246231 
" style="fill:none;stroke:#00ffff;stroke-linecap:square;stroke-width:0.2;"/>
   </g>
   <g id="line2d_157">
    <path clip-path="url(#pc340f12af7)" d="M 414.72 300.808858 
L 407.832295 298.768898 
L 391.797421 294.203276 
L 377.183806 290.279806 
L 366.250914 287.516239 
L 353.204312 284.434018 
L 341.433199 281.869615 
L 329.479852 279.487344 
L 317.67226 277.360095 
L 305.864652 275.458901 
L 293.947698 273.765388 
L 281.739184 272.255521 
L 269.056891 270.912307 
L 255.609271 269.714403 
L 241.068331 268.650593 
L 225.32473 267.726968 
L 207.503811 266.920309 
L 188.407309 266.285226 
L 167.233426 265.808117 
L 144.966101 265.537649 
L 122.079062 265.485348 
L 96.713573 265.659738 
L 71.712248 266.091495 
L 57.607864 266.452938 
L 57.607864 266.452938 
" style="fill:none;stroke:#00ffff;stroke-linecap:square;stroke-width:0.2;"/>
   </g>
   <g id="line2d_158">
    <path clip-path="url(#pc340f12af7)" d="M 414.72 300.808858 
L 407.832296 298.763777 
L 391.76098 294.175912 
L 377.074481 290.221587 
L 365.813603 287.369012 
L 352.621229 284.246264 
L 340.157697 281.530104 
L 328.022133 279.113666 
L 315.995881 276.945453 
L 303.896726 274.989807 
L 291.542451 273.218457 
L 278.714397 271.605373 
L 265.193901 270.13196 
L 250.65297 268.774511 
L 234.872934 267.529921 
L 217.380015 266.378075 
L 198.247075 265.346405 
L 177.255418 264.440636 
L 154.769432 263.699205 
L 131.882395 263.173567 
L 106.589794 262.824775 
L 76.996353 262.751642 
L 57.607301 262.902569 
L 57.607301 262.902569 
" style="fill:none;stroke:#00ffff;stroke-linecap:square;stroke-width:0.2;"/>
   </g>
   <g id="line2d_159">
    <path clip-path="url(#pc340f12af7)" d="M 414.72 300.808858 
L 407.86874 298.769351 
L 391.797425 294.168749 
L 377.074484 290.19214 
L 365.813607 287.328831 
L 352.511906 284.16583 
L 339.866159 281.394826 
L 327.584823 278.932088 
L 315.339912 276.702942 
L 302.912768 274.667142 
L 290.121172 272.798316 
L 276.746466 271.070771 
L 262.497098 269.456956 
L 246.972184 267.926366 
L 230.025938 266.48423 
L 211.221017 265.110997 
L 190.812495 263.848369 
L 168.581662 262.699673 
L 145.658234 261.746187 
L 122.406608 261.004741 
L 96.858703 260.422272 
L 71.784265 260.110133 
L 57.606849 260.05196 
L 57.606849 260.05196 
" style="fill:none;stroke:#00ffff;stroke-linecap:square;stroke-width:0.2;"/>
   </g>
   <g id="line2d_160">
    <path clip-path="url(#pc340f12af7)" d="M 414.72 300.808858 
L 407.868741 298.764259 
L 391.760985 294.141332 
L 377.001602 290.143376 
L 365.522068 287.216612 
L 352.183924 284.035213 
L 339.355962 281.213013 
L 326.892411 278.700713 
L 314.392398 276.408457 
L 301.637263 274.296837 
L 288.408347 272.334206 
L 274.450543 270.49066 
L 259.435857 268.73502 
L 242.963401 267.036844 
L 224.778052 265.392081 
L 205.062002 263.835505 
L 183.705881 262.374274 
L 160.636748 261.023097 
L 141.24833 260.067901 
L 117.850827 259.12022 
L 92.193456 258.313661 
L 67.082425 257.783898 
L 57.606468 257.654156 
L 57.606468 257.654156 
" style="fill:none;stroke:#00ffff;stroke-linecap:square;stroke-width:0.2;"/>
   </g>
   <g id="line2d_161">
    <path clip-path="url(#pc340f12af7)" d="M 414.72 300.808858 
L 407.868741 298.759167 
L 391.760987 294.124047 
L 376.92872 290.094523 
L 365.194086 287.094894 
L 351.892386 283.912433 
L 339.027981 281.068882 
L 326.418658 278.510362 
L 313.699986 276.156846 
L 300.653305 273.969838 
L 287.023511 271.912413 
L 272.519054 269.9505 
L 256.702605 268.039694 
L 240.339468 266.27618 
L 221.315896 264.44789 
L 200.725162 262.697472 
L 178.603665 261.042865 
L 155.971792 259.570069 
L 132.683721 258.281318 
L 107.099364 257.097924 
L 74.444199 255.979396 
L 57.606138 255.574818 
L 57.606138 255.574818 
" style="fill:none;stroke:#00ffff;stroke-linecap:square;stroke-width:0.2;"/>
   </g>
   <g id="line2d_162">
    <path clip-path="url(#pc340f12af7)" d="M 414.72 300.808858 
L 407.868742 298.754077 
L 391.724547 294.096551 
L 376.855838 290.045583 
L 364.902546 286.981702 
L 351.63729 283.797564 
L 338.736443 280.932004 
L 325.944905 278.319254 
L 313.007573 275.904066 
L 299.632903 273.635196 
L 285.602231 271.482661 
L 270.551119 269.40163 
L 254.078681 267.352808 
L 236.075569 265.342955 
L 216.177321 263.349286 
L 194.857665 261.44142 
L 172.00722 259.623257 
L 149.193039 258.032249 
L 125.759081 256.621773 
L 100.101694 255.310022 
L 74.990642 254.285677 
L 57.605846 253.732338 
L 57.605846 253.732338 
" style="fill:none;stroke:#00ffff;stroke-linecap:square;stroke-width:0.2;"/>
   </g>
   <g id="line2d_163">
    <path clip-path="url(#pc340f12af7)" d="M 414.72 300.808858 
L 407.905186 298.75979 
L 391.760992 294.089482 
L 376.819398 290.006271 
L 364.720336 286.895307 
L 351.418637 283.690713 
L 338.444905 280.794701 
L 325.507595 278.134571 
L 312.315161 275.650129 
L 298.648944 273.304627 
L 284.217393 271.055551 
L 268.65607 268.858558 
L 251.564085 266.673992 
L 232.868529 264.513796 
L 212.314267 262.366391 
L 190.520799 260.317149 
L 167.342299 258.364227 
L 143.908486 256.620746 
L 120.401544 255.097484 
L 94.671146 253.662977 
L 69.523511 252.520697 
L 57.605583 252.073247 
L 57.605583 252.073247 
" style="fill:none;stroke:#00ffff;stroke-linecap:square;stroke-width:0.2;"/>
   </g>
   <g id="line2d_164">
    <path clip-path="url(#pc340f12af7)" d="M 414.72 300.808858 
L 407.905187 298.754728 
L 391.724552 294.061934 
L 376.746516 289.957172 
L 364.428797 286.781248 
L 351.127099 283.566524 
L 338.080481 280.641265 
L 324.960955 277.927561 
L 311.549862 275.381809 
L 297.592098 272.96028 
L 282.759669 270.614937 
L 266.688133 268.302086 
L 248.976599 265.982145 
L 229.661485 263.681392 
L 208.560537 261.395059 
L 186.366143 259.217826 
L 162.968919 257.148872 
L 139.425699 255.297726 
L 115.84578 253.669513 
L 90.078827 252.123233 
L 64.894623 250.871938 
L 57.605343 250.560528 
L 57.605343 250.560528 
" style="fill:none;stroke:#00ffff;stroke-linecap:square;stroke-width:0.2;"/>
   </g>
   <g id="line2d_165">
    <path clip-path="url(#pc340f12af7)" d="M 414.72 300.808858 
L 407.905187 298.749666 
L 391.724554 294.044629 
L 376.710077 289.917746 
L 364.246587 286.69418 
L 350.83556 283.441863 
L 337.606727 280.463559 
L 324.304986 277.697788 
L 310.675233 275.092084 
L 296.389479 272.589524 
L 281.119726 270.143605 
L 264.537977 267.716412 
L 246.243335 265.267423 
L 226.162885 262.809779 
L 204.551692 260.39722 
L 182.065699 258.112085 
L 158.303968 255.924356 
L 135.416681 254.041156 
L 111.800236 252.318475 
L 84.356665 250.556984 
L 57.605122 249.167441 
L 57.605122 249.167441 
" style="fill:none;stroke:#00ffff;stroke-linecap:square;stroke-width:0.2;"/>
   </g>
   <g id="line2d_166">
    <path clip-path="url(#pc340f12af7)" d="M 414.72 300.808858 
L 407.941631 298.75549 
L 391.724556 294.027326 
L 376.637195 289.868488 
L 363.918605 286.570145 
L 350.325363 283.265483 
L 336.950758 280.245428 
L 323.466801 277.430251 
L 309.581945 274.760313 
L 294.968199 272.179258 
L 279.297567 269.64044 
L 262.205602 267.100287 
L 243.327851 264.524019 
L 222.773611 261.94885 
L 200.943721 259.442108 
L 178.020353 257.035254 
L 154.331451 254.776857 
L 130.824529 252.765104 
L 105.203489 250.804917 
L 82.351978 249.278977 
L 57.604917 247.874023 
L 57.604917 247.874023 
" style="fill:none;stroke:#00ffff;stroke-linecap:square;stroke-width:0.2;"/>
   </g>
   <g id="line2d_167">
    <path clip-path="url(#pc340f12af7)" d="M 414.72 300.808858 
L 407.941632 298.750457 
L 391.724559 294.010025 
L 376.600756 289.828948 
L 363.772837 286.491624 
L 350.070268 283.148287 
L 336.586334 280.08977 
L 322.956604 277.227247 
L 308.853089 274.493974 
L 293.947796 271.83436 
L 277.912726 269.201919 
L 260.383434 266.552943 
L 241.031905 263.857772 
L 220.040319 261.164254 
L 197.918848 258.553851 
L 174.813217 256.052698 
L 151.014927 253.705615 
L 127.435052 251.609829 
L 101.668148 249.552825 
L 76.483996 247.802486 
L 57.604725 246.664958 
L 57.604725 246.664958 
" style="fill:none;stroke:#00ffff;stroke-linecap:square;stroke-width:0.2;"/>
   </g>
   <g id="line2d_168">
    <path clip-path="url(#pc340f12af7)" d="M 414.72 300.808858 
L 407.941633 298.745424 
L 391.688118 293.982345 
L 376.527873 289.77953 
L 363.444855 286.366764 
L 349.6694 282.996268 
L 336.076137 279.901546 
L 322.264192 276.986411 
L 307.942017 274.192255 
L 292.745175 271.456231 
L 276.309225 268.726272 
L 258.342604 265.970851 
L 238.553737 263.164678 
L 217.197692 260.365826 
L 194.82108 257.661081 
L 171.314517 255.046389 
L 147.698395 252.650734 
L 124.08201 250.481213 
L 98.315025 248.346962 
L 73.094337 246.518377 
L 57.604545 245.528228 
L 57.604545 245.528228 
" style="fill:none;stroke:#00ffff;stroke-linecap:square;stroke-width:0.2;"/>
   </g>
   <g id="line2d_169">
    <path clip-path="url(#pc340f12af7)" d="M 414.72 300.808858 
L 407.941633 298.740392 
L 391.68812 293.96502 
L 376.454991 289.730021 
L 363.153316 286.25066 
L 349.304976 282.852233 
L 335.565941 279.712439 
L 321.571779 276.744301 
L 306.994501 273.881908 
L 291.469668 271.063036 
L 274.66928 268.241662 
L 256.119554 265.356414 
L 234.763594 262.287021 
L 212.970191 259.389053 
L 190.338427 256.607269 
L 166.686029 253.92649 
L 142.996946 251.472731 
L 119.344035 249.248865 
L 93.540502 247.055828 
L 68.3197 245.172555 
L 57.604374 244.454224 
L 57.604374 244.454224 
" style="fill:none;stroke:#00ffff;stroke-linecap:square;stroke-width:0.2;"/>
   </g>
   <g id="line2d_170">
    <path clip-path="url(#pc340f12af7)" d="M 414.72 300.808858 
L 407.941634 298.735361 
L 391.65168 293.937261 
L 376.382109 289.680421 
L 362.861777 286.134114 
L 348.904108 282.698946 
L 335.055744 279.522453 
L 320.91581 276.508408 
L 306.119872 273.583605 
L 290.30349 270.686588 
L 273.138664 267.77181 
L 254.224495 264.789491 
L 233.779613 261.795571 
L 211.803976 258.804537 
L 189.062857 255.936644 
L 165.337541 253.1711 
L 141.611979 250.636789 
L 117.959026 248.336164 
L 92.155442 246.059144 
L 66.934582 244.093626 
L 57.604213 243.435141 
L 57.604213 243.435141 
" style="fill:none;stroke:#00ffff;stroke-linecap:square;stroke-width:0.2;"/>
   </g>
   <g id="line2d_171">
    <path clip-path="url(#pc340f12af7)" d="M 414.72 300.808858 
L 407.978078 298.741351 
L 391.688125 293.930376 
L 376.382113 289.650523 
L 362.788896 286.072915 
L 348.758342 282.60586 
L 334.764206 279.38019 
L 320.442057 276.308993 
L 305.427458 273.318663 
L 289.319528 270.340486 
L 271.826707 267.33556 
L 252.548095 264.253481 
L 231.775205 261.162421 
L 209.544439 258.081765 
L 186.657513 255.137668 
L 162.859268 252.302796 
L 139.097214 249.703486 
L 115.40776 247.338298 
L 89.56766 244.991621 
L 64.310278 242.958478 
L 57.604059 242.464546 
L 57.604059 242.464546 
" style="fill:none;stroke:#00ffff;stroke-linecap:square;stroke-width:0.2;"/>
   </g>
   <g id="line2d_172">
    <path clip-path="url(#pc340f12af7)" d="M 414.72 300.808858 
L 407.978078 298.736347 
L 391.651685 293.902565 
L 376.309231 289.60078 
L 362.497357 285.955634 
L 348.357474 282.451475 
L 334.254009 279.188659 
L 319.749644 276.063406 
L 304.479942 273.003357 
L 288.080463 269.947039 
L 270.223202 266.848737 
L 250.580145 263.670324 
L 229.515689 260.491466 
L 207.066235 257.330765 
L 184.033499 254.315699 
L 159.943654 251.389936 
L 134.94241 248.608008 
L 108.665231 245.926533 
L 77.248695 243.100815 
L 57.603911 241.537077 
L 57.603911 241.537077 
" style="fill:none;stroke:#00ffff;stroke-linecap:square;stroke-width:0.2;"/>
   </g>
   <g id="line2d_173">
    <path clip-path="url(#pc340f12af7)" d="M 414.72 300.808858 
L 407.978079 298.731344 
L 391.651687 293.885219 
L 376.236349 289.550944 
L 362.205818 285.837912 
L 347.956607 282.296299 
L 334.982878 279.274985 
L 320.369185 276.091604 
L 304.953712 272.963772 
L 288.408461 269.836484 
L 270.368983 266.656284 
L 250.543704 263.390922 
L 229.297024 260.121455 
L 206.774671 256.882523 
L 183.705477 253.792242 
L 159.615613 250.792593 
L 134.213447 247.889365 
L 108.082017 245.146771 
L 73.31235 241.937291 
L 57.60377 240.648213 
L 57.60377 240.648213 
" style="fill:none;stroke:#00ffff;stroke-linecap:square;stroke-width:0.2;"/>
   </g>
   <g id="line2d_174">
    <path clip-path="url(#pc340f12af7)" d="M 414.72 300.808858 
L 407.97808 298.726341 
L 391.615247 293.857328 
L 376.163466 289.501014 
L 361.950722 285.729125 
L 347.592182 282.149098 
L 333.415832 278.844046 
L 318.583478 275.614489 
L 302.876455 272.424652 
L 285.930321 269.213398 
L 267.453512 265.941731 
L 247.190894 262.583422 
L 225.470418 259.213642 
L 201.453819 255.737673 
L 178.020121 252.578939 
L 154.075959 249.580603 
L 130.386634 246.844476 
L 104.619581 244.10166 
L 82.314529 241.942689 
L 57.603635 239.794108 
L 57.603635 239.794108 
" style="fill:none;stroke:#00ffff;stroke-linecap:square;stroke-width:0.2;"/>
   </g>
   <g id="line2d_175">
    <path clip-path="url(#pc340f12af7)" d="M 414.72 300.808858 
L 407.978081 298.721339 
L 391.615249 293.839958 
L 376.127027 289.460981 
L 361.768512 285.638759 
L 347.337087 282.028052 
L 332.72342 278.608857 
L 317.708849 275.326947 
L 301.783165 272.075735 
L 284.545481 268.786824 
L 265.740674 265.42865 
L 245.186495 261.98733 
L 223.210894 258.538405 
L 200.469814 255.197526 
L 176.963205 251.970378 
L 152.982572 248.907597 
L 129.293215 246.11217 
L 103.45323 243.296572 
L 78.19597 240.805341 
L 57.603504 238.971459 
L 57.603504 238.971459 
" style="fill:none;stroke:#00ffff;stroke-linecap:square;stroke-width:0.2;"/>
   </g>
   <g id="line2d_176">
    <path clip-path="url(#pc340f12af7)" d="M 414.72 300.808858 
L 408.014524 298.727495 
L 391.615251 293.82259 
L 376.090588 289.420903 
L 361.586302 285.548113 
L 347.045549 281.897828 
L 332.213223 278.413862 
L 317.016436 275.0765 
L 300.835648 271.753711 
L 283.342857 268.391569 
L 264.246495 264.950801 
L 243.400756 261.42437 
L 221.242918 257.906111 
L 198.356036 254.500515 
L 174.812951 251.223164 
L 150.795834 248.109188 
L 127.069986 245.263437 
L 101.229945 242.397655 
L 75.972621 239.857204 
L 57.603378 238.177414 
L 57.603378 238.177414 
" style="fill:none;stroke:#00ffff;stroke-linecap:square;stroke-width:0.2;"/>
   </g>
   <g id="line2d_177">
    <path clip-path="url(#pc340f12af7)" d="M 414.72 300.808858 
L 408.014525 298.72252 
L 391.615254 293.805224 
L 376.054149 289.38078 
L 361.440535 285.466655 
L 346.826896 281.78489 
L 331.994571 278.284539 
L 316.652012 274.894923 
L 300.289007 271.510229 
L 282.54111 268.069547 
L 263.189639 264.547901 
L 242.125228 260.944069 
L 219.821599 257.358145 
L 196.861809 253.894787 
L 173.02714 250.526419 
L 147.442849 247.169141 
L 123.716941 244.29078 
L 97.840378 241.385315 
L 72.582971 238.810028 
L 57.603257 237.409488 
L 57.603257 237.409488 
" style="fill:none;stroke:#00ffff;stroke-linecap:square;stroke-width:0.2;"/>
   </g>
   <g id="line2d_178">
    <path clip-path="url(#pc340f12af7)" d="M 414.72 300.808858 
L 408.014526 298.717546 
L 391.578813 293.777199 
L 375.981267 289.330536 
L 361.148996 285.346996 
L 346.426029 281.627007 
L 331.66659 278.129902 
L 316.141815 274.681612 
L 299.560149 271.229461 
L 281.593589 267.719182 
L 262.02345 264.124872 
L 240.776811 260.451493 
L 218.327391 256.799876 
L 195.258246 253.275865 
L 171.35066 249.851227 
L 147.515699 246.669092 
L 123.789775 243.728191 
L 97.913192 240.754435 
L 72.619316 238.108819 
L 57.603139 236.665505 
L 57.603139 236.665505 
" style="fill:none;stroke:#00ffff;stroke-linecap:square;stroke-width:0.2;"/>
   </g>
   <g id="line2d_179">
    <path clip-path="url(#pc340f12af7)" d="M 414.72 300.808858 
L 408.014526 298.712572 
L 391.578816 293.759808 
L 375.908385 289.280195 
L 360.8939 285.236413 
L 346.098047 281.486338 
L 331.11995 277.92439 
L 315.449401 274.428141 
L 298.649074 270.910639 
L 280.427407 267.325869 
L 260.602157 263.65492 
L 239.136843 259.90914 
L 216.541629 256.195878 
L 193.399571 252.621002 
L 169.455509 249.149543 
L 145.620512 245.92566 
L 121.8581 242.938535 
L 95.981464 239.919366 
L 70.687531 237.229227 
L 57.603024 235.943545 
L 57.603024 235.943545 
" style="fill:none;stroke:#00ffff;stroke-linecap:square;stroke-width:0.2;"/>
   </g>
   <g id="line2d_180">
    <path clip-path="url(#pc340f12af7)" d="M 414.72 300.808858 
L 408.014527 298.707599 
L 391.542375 293.731704 
L 375.835503 289.229756 
L 360.675248 285.134986 
L 345.770066 281.34517 
L 330.68264 277.743252 
L 314.829875 274.189325 
L 297.84733 270.61261 
L 279.370555 266.951746 
L 259.290193 263.202929 
L 237.642648 259.390294 
L 214.901641 255.614968 
L 191.686671 251.989329 
L 167.706135 248.47144 
L 143.834657 245.201583 
L 120.072204 242.173542 
L 94.159072 239.105556 
L 68.865084 236.371945 
L 57.602913 235.24191 
L 57.602913 235.24191 
" style="fill:none;stroke:#00ffff;stroke-linecap:square;stroke-width:0.2;"/>
   </g>
   <g id="line2d_181">
    <path clip-path="url(#pc340f12af7)" d="M 414.72 300.808858 
L 408.014528 298.702626 
L 391.542378 293.714288 
L 375.799063 289.189365 
L 360.493038 285.042799 
L 345.514971 281.221497 
L 330.281772 277.569878 
L 314.246791 273.957459 
L 297.045585 270.313342 
L 278.350146 266.583187 
L 258.051115 262.762762 
L 236.22134 258.883073 
L 213.370983 255.051858 
L 190.119546 251.381383 
L 166.102537 247.817321 
L 142.231025 244.506683 
L 118.468535 241.437851 
L 92.555356 238.325238 
L 67.261316 235.547953 
L 57.602804 234.559089 
L 57.602804 234.559089 
" style="fill:none;stroke:#00ffff;stroke-linecap:square;stroke-width:0.2;"/>
   </g>
   <g id="line2d_182">
    <path clip-path="url(#pc340f12af7)" d="M 414.72 300.808858 
L 408.014529 298.697653 
L 391.505937 293.686104 
L 375.726181 289.138752 
L 360.274385 284.940728 
L 345.186989 281.079348 
L 329.844462 277.387368 
L 313.663707 273.724674 
L 296.280283 270.020386 
L 277.366179 266.220363 
L 256.702706 262.299359 
L 236.476446 258.667712 
L 213.589641 254.777068 
L 190.301754 251.04638 
L 166.284735 247.426043 
L 142.376767 244.054365 
L 118.577817 240.925361 
L 92.66462 237.752483 
L 67.370561 234.916326 
L 57.602699 233.89373 
L 57.602699 233.89373 
" style="fill:none;stroke:#00ffff;stroke-linecap:square;stroke-width:0.2;"/>
   </g>
   <g id="line2d_183">
    <path clip-path="url(#pc340f12af7)" d="M 414.72 300.808858 
L 408.050972 298.704029 
L 391.542382 293.679462 
L 375.726185 289.108443 
L 360.201504 284.876863 
L 345.041223 280.982058 
L 329.589367 277.246887 
L 313.262839 273.531216 
L 295.697197 269.764257 
L 276.600873 265.899291 
L 255.791619 261.917779 
L 232.576954 257.725626 
L 209.507891 253.793515 
L 186.110622 250.033836 
L 162.020655 246.390433 
L 138.11262 243.006521 
L 114.313594 239.865019 
L 88.400304 236.678283 
L 63.069697 233.824491 
L 57.602596 233.244621 
L 57.602596 233.244621 
" style="fill:none;stroke:#00ffff;stroke-linecap:square;stroke-width:0.2;"/>
   </g>
   <g id="line2d_184">
    <path clip-path="url(#pc340f12af7)" d="M 414.72 300.808858 
L 408.050973 298.699084 
L 391.505942 293.651225 
L 375.653303 289.05768 
L 359.946408 284.764409 
L 347.95667 281.655187 
L 334.217645 278.267808 
L 318.036902 274.497506 
L 300.689934 270.687124 
L 281.885175 266.787309 
L 261.513268 262.792013 
L 239.610614 258.725524 
L 216.723822 254.706299 
L 193.435947 250.844926 
L 169.382497 247.084383 
L 145.474543 243.579019 
L 121.675606 240.316962 
L 95.762425 236.999229 
L 70.431933 234.017604 
L 57.602495 232.610668 
L 57.602495 232.610668 
" style="fill:none;stroke:#00ffff;stroke-linecap:square;stroke-width:0.2;"/>
   </g>
   <g id="line2d_185">
    <path clip-path="url(#pc340f12af7)" d="M 414.72 300.808858 
L 408.050974 298.694139 
L 391.505944 293.633788 
L 375.616864 289.017073 
L 359.764198 284.670511 
L 346.863385 281.320018 
L 331.083547 277.441498 
L 314.574808 273.616897 
L 296.826953 269.736475 
L 277.548415 265.751961 
L 256.556942 261.643753 
L 234.763585 257.60524 
L 211.658083 253.549391 
L 188.260818 249.67067 
L 164.170854 245.904598 
L 140.226375 242.393728 
L 116.42735 239.131309 
L 90.51406 235.812893 
L 65.183451 232.830364 
L 57.602397 231.990884 
L 57.602397 231.990884 
" style="fill:none;stroke:#00ffff;stroke-linecap:square;stroke-width:0.2;"/>
   </g>
   <g id="line2d_186">
    <path clip-path="url(#pc340f12af7)" d="M 414.72 300.808858 
L 408.050975 298.689195 
L 391.469504 293.60547 
L 375.543982 288.966133 
L 359.545546 284.566736 
L 345.660772 280.956191 
L 329.880931 277.075589 
L 313.189974 273.202352 
L 295.187011 269.255825 
L 275.653361 265.204083 
L 254.443215 261.034838 
L 232.176068 256.888073 
L 208.961206 252.79254 
L 185.491017 248.880498 
L 161.364566 245.086716 
L 137.420037 241.553803 
L 113.58451 238.264408 
L 87.634705 234.917625 
L 62.304021 231.91197 
L 57.602301 231.384371 
L 57.602301 231.384371 
" style="fill:none;stroke:#00ffff;stroke-linecap:square;stroke-width:0.2;"/>
   </g>
   <g id="line2d_187">
    <path clip-path="url(#pc340f12af7)" d="M 414.72 300.808858 
L 408.050975 298.684251 
L 391.469506 293.588008 
L 375.507543 288.925403 
L 359.399779 284.482403 
L 344.895474 280.701955 
L 328.96986 276.777798 
L 312.096685 272.851559 
L 293.875059 268.842599 
L 274.086298 264.719517 
L 252.693922 260.492277 
L 230.280983 256.293547 
L 206.99321 252.158514 
L 183.486548 248.213016 
L 159.177837 244.361158 
L 134.395018 240.682723 
L 108.153983 237.028887 
L 73.493236 232.640021 
L 57.602207 230.790318 
L 57.602207 230.790318 
" style="fill:none;stroke:#00ffff;stroke-linecap:square;stroke-width:0.2;"/>
   </g>
   <g id="line2d_188">
    <path clip-path="url(#pc340f12af7)" d="M 414.72 300.808858 
L 408.050976 298.679307 
L 391.433066 293.559611 
L 375.434661 288.874284 
L 359.181126 284.378332 
L 343.947962 280.400375 
L 327.876574 276.434872 
L 310.784737 272.449325 
L 292.308003 268.372311 
L 272.300573 264.187806 
L 250.689521 259.897854 
L 228.130788 255.650073 
L 204.770101 251.478768 
L 180.97185 247.459012 
L 159.688041 244.055095 
L 134.103414 240.207231 
L 107.898804 236.511239 
L 72.764214 232.000162 
L 57.602114 230.207976 
L 57.602114 230.207976 
" style="fill:none;stroke:#00ffff;stroke-linecap:square;stroke-width:0.2;"/>
   </g>
   <g id="line2d_189">
    <path clip-path="url(#pc340f12af7)" d="M 414.72 300.808858 
L 408.050977 298.674363 
L 391.433068 293.542124 
L 375.398222 288.833429 
L 359.035359 284.293666 
L 343.401322 280.199549 
L 327.184162 276.18674 
L 309.910107 272.144502 
L 291.251153 268.009444 
L 271.025055 263.757621 
L 249.268219 259.413792 
L 226.417919 255.082655 
L 204.879425 251.205505 
L 181.081168 247.140013 
L 161.218709 243.920884 
L 137.237696 240.244598 
L 113.402125 236.818033 
L 87.452264 233.321761 
L 62.121518 230.17005 
L 57.602023 229.636667 
L 57.602023 229.636667 
" style="fill:none;stroke:#00ffff;stroke-linecap:square;stroke-width:0.2;"/>
   </g>
   <g id="line2d_190">
    <path clip-path="url(#pc340f12af7)" d="M 414.72 300.808858 
L 408.08742 298.680958 
L 391.433071 293.524638 
L 375.361782 288.792526 
L 358.926035 284.218661 
L 343.000455 280.03509 
L 326.673965 275.981481 
L 309.254136 271.888222 
L 290.412963 267.69229 
L 270.041086 263.3856 
L 248.138465 258.98507 
L 225.251708 254.617474 
L 200.870539 250.20956 
L 177.035784 246.132869 
L 152.836296 242.224647 
L 129.037384 238.612166 
L 103.087782 234.907891 
L 77.757314 231.55366 
L 57.601934 229.075766 
L 57.601934 229.075766 
" style="fill:none;stroke:#00ffff;stroke-linecap:square;stroke-width:0.2;"/>
   </g>
   <g id="line2d_191">
    <path clip-path="url(#pc340f12af7)" d="M 414.72 300.808858 
L 408.087421 298.676042 
L 391.433073 293.507154 
L 375.325343 288.751574 
L 358.816711 284.14352 
L 342.636031 279.879332 
L 326.200211 275.78424 
L 308.634608 271.639285 
L 289.611215 267.381848 
L 269.057115 263.012366 
L 247.045155 258.562519 
L 224.049052 254.144676 
L 200.688307 249.886043 
L 176.853543 245.768055 
L 152.654042 241.817756 
L 128.818669 238.158391 
L 102.869048 234.409224 
L 77.538559 231.011121 
L 57.601847 228.524698 
L 57.601847 228.524698 
" style="fill:none;stroke:#00ffff;stroke-linecap:square;stroke-width:0.2;"/>
   </g>
   <g id="line2d_192">
    <path clip-path="url(#pc340f12af7)" d="M 414.72 300.808858 
L 408.087422 298.671126 
L 391.396633 293.478623 
L 375.252461 288.700119 
L 358.634502 284.048457 
L 342.198721 279.704277 
L 325.617128 275.559644 
L 307.869308 271.355754 
L 288.663694 267.038308 
L 267.963814 262.615136 
L 245.806068 258.110146 
L 222.737063 253.650813 
L 199.339855 249.357174 
L 175.468622 245.203792 
L 151.269093 241.223901 
L 127.433688 237.535246 
L 101.484028 233.754079 
L 76.153496 230.324651 
L 57.601761 227.982934 
L 57.601761 227.982934 
" style="fill:none;stroke:#00ffff;stroke-linecap:square;stroke-width:0.2;"/>
   </g>
   <g id="line2d_193">
    <path clip-path="url(#pc340f12af7)" d="M 414.72 300.808858 
L 408.087423 298.666211 
L 391.396635 293.461114 
L 375.216022 288.659041 
L 358.525178 283.97297 
L 341.980068 279.58489 
L 325.289146 275.39642 
L 307.395552 271.138564 
L 288.044163 266.765571 
L 267.198504 262.285216 
L 244.931419 257.729183 
L 221.789513 253.225253 
L 198.355845 248.893766 
L 174.193033 244.655891 
L 154.221134 241.33201 
L 130.38576 237.573975 
L 104.472583 233.722961 
L 81.875619 230.584677 
L 57.601677 227.449985 
L 57.601677 227.449985 
" style="fill:none;stroke:#00ffff;stroke-linecap:square;stroke-width:0.2;"/>
   </g>
   <g id="line2d_194">
    <path clip-path="url(#pc340f12af7)" d="M 414.72 300.808858 
L 408.087423 298.661295 
L 391.396637 293.443607 
L 375.179583 288.617915 
L 358.415854 283.897332 
L 341.761416 279.465187 
L 324.961165 275.232739 
L 306.95824 270.929241 
L 287.461075 266.500203 
L 266.469637 261.962318 
L 244.129656 257.362463 
L 220.951295 252.820653 
L 197.481168 248.450899 
L 173.318338 244.180584 
L 146.640471 239.740183 
L 122.804976 236.012902 
L 96.818758 232.184241 
L 71.451658 228.708813 
L 57.601593 226.925399 
L 57.601593 226.925399 
" style="fill:none;stroke:#00ffff;stroke-linecap:square;stroke-width:0.2;"/>
   </g>
   <g id="line2d_195">
    <path clip-path="url(#pc340f12af7)" d="M 414.72 300.808858 
L 408.087424 298.65638 
L 391.360197 293.414969 
L 375.106701 288.566197 
L 358.270087 283.811557 
L 341.579207 279.354633 
L 324.669626 275.077583 
L 306.520928 270.719374 
L 286.877987 266.234214 
L 265.777214 261.646574 
L 243.327894 256.995511 
L 220.076633 252.409357 
L 196.570046 248.002283 
L 172.443641 243.70711 
L 149.118732 239.777714 
L 125.283261 235.987088 
L 99.297073 232.089426 
L 73.930003 228.546691 
L 57.601511 226.408756 
L 57.601511 226.408756 
" style="fill:none;stroke:#00ffff;stroke-linecap:square;stroke-width:0.2;"/>
   </g>
   <g id="line2d_196">
    <path clip-path="url(#pc340f12af7)" d="M 414.72 300.808858 
L 408.087425 298.651466 
L 391.360199 293.397436 
L 375.070262 288.524943 
L 358.160763 283.735574 
L 341.433441 279.253335 
L 324.414531 274.931066 
L 306.156503 270.526115 
L 286.404229 265.992094 
L 265.194121 261.353671 
L 242.671906 256.657953 
L 219.38419 252.033504 
L 195.87759 247.594638 
L 171.714724 243.260027 
L 147.733777 239.190934 
L 123.861829 235.368416 
L 97.8756 231.442434 
L 72.508488 227.871967 
L 57.601431 225.899667 
L 57.601431 225.899667 
" style="fill:none;stroke:#00ffff;stroke-linecap:square;stroke-width:0.2;"/>
   </g>
   <g id="line2d_197">
    <path clip-path="url(#pc340f12af7)" d="M 414.72 300.808858 
L 408.087425 298.646551 
L 391.323759 293.368718 
L 374.99738 288.473038 
L 358.051439 283.659431 
L 341.287675 279.151862 
L 324.159436 274.784246 
L 305.755634 270.32386 
L 285.857584 265.733193 
L 264.53814 261.044873 
L 241.943029 256.305558 
L 218.618859 251.644025 
L 195.0758 247.167942 
L 170.876471 242.795687 
L 146.859058 238.689732 
L 122.987085 234.836802 
L 97.000826 230.877639 
L 71.633681 227.274716 
L 57.601351 225.397768 
L 57.601351 225.397768 
" style="fill:none;stroke:#00ffff;stroke-linecap:square;stroke-width:0.2;"/>
   </g>
   <g id="line2d_198">
    <path clip-path="url(#pc340f12af7)" d="M 414.72 300.808858 
L 408.087426 298.641637 
L 391.323761 293.35116 
L 374.960941 288.431656 
L 357.942116 283.583127 
L 341.178351 279.059787 
L 323.940784 274.64622 
L 305.427651 270.13846 
L 285.42027 265.498505 
L 263.99149 260.759257 
L 241.323484 255.975552 
L 217.962859 251.276337 
L 194.383342 246.762501 
L 170.183997 242.358534 
L 146.166565 238.220975 
L 122.29457 234.336554 
L 96.308285 230.343044 
L 70.941111 226.706534 
L 57.601272 224.902723 
L 57.601272 224.902723 
" style="fill:none;stroke:#00ffff;stroke-linecap:square;stroke-width:0.2;"/>
   </g>
   <g id="line2d_199">
    <path clip-path="url(#pc340f12af7)" d="M 414.72 300.808858 
L 408.12387 298.648504 
L 391.323764 293.333604 
L 374.924502 288.390223 
L 357.869235 283.516777 
L 341.105471 278.97722 
L 323.758574 274.517105 
L 305.136112 269.961464 
L 285.019398 265.271827 
L 263.481283 260.481381 
L 240.740383 255.653213 
L 217.343304 250.916411 
L 193.763774 246.371806 
L 169.564413 241.93603 
L 145.546962 237.766782 
L 121.674947 233.850793 
L 95.688637 229.822856 
L 70.321435 226.152683 
L 57.601195 224.414215 
L 57.601195 224.414215 
" style="fill:none;stroke:#00ffff;stroke-linecap:square;stroke-width:0.2;"/>
   </g>
   <g id="line2d_200">
    <path clip-path="url(#pc340f12af7)" d="M 414.72 300.808858 
L 408.12387 298.643617 
L 391.323766 293.316049 
L 374.888063 288.348741 
L 357.759911 283.440181 
L 341.032591 278.894623 
L 323.612808 274.397019 
L 304.881015 269.792995 
L 284.65497 265.053286 
L 263.043964 260.219329 
L 240.230169 255.346248 
L 216.796636 250.571579 
L 193.18065 245.989163 
L 168.944828 241.515262 
L 144.92736 237.314907 
L 121.055324 233.36793 
L 95.068988 229.306199 
L 69.665311 225.597863 
L 57.601118 223.931949 
L 57.601118 223.931949 
" style="fill:none;stroke:#00ffff;stroke-linecap:square;stroke-width:0.2;"/>
   </g>
   <g id="line2d_201">
    <path clip-path="url(#pc340f12af7)" d="M 414.72 300.808858 
L 408.123871 298.63873 
L 391.287326 293.287197 
L 374.815181 288.29649 
L 357.650587 283.36342 
L 340.923268 278.802308 
L 323.394156 274.258423 
L 304.553033 269.606812 
L 284.217654 264.817839 
L 262.533757 259.941311 
L 239.683511 255.031957 
L 216.213524 250.220185 
L 192.597525 245.607688 
L 168.361688 241.102714 
L 144.344202 236.87146 
L 120.472146 232.893705 
L 94.485786 228.798412 
L 69.082082 225.057212 
L 57.601043 223.455649 
L 57.601043 223.455649 
" style="fill:none;stroke:#00ffff;stroke-linecap:square;stroke-width:0.2;"/>
   </g>
   <g id="line2d_202">
    <path clip-path="url(#pc340f12af7)" d="M 414.72 300.808858 
L 408.123872 298.633844 
L 391.287328 293.269617 
L 374.778742 288.254878 
L 357.577706 283.296719 
L 340.850388 278.719609 
L 323.211947 274.128851 
L 304.261493 269.429148 
L 283.816782 264.590511 
L 262.023549 259.66315 
L 239.100409 254.710169 
L 215.593967 249.86204 
L 191.941511 245.213326 
L 167.705658 240.678513 
L 143.651707 236.411294 
L 119.743183 232.398374 
L 93.720349 228.266012 
L 68.316615 224.494327 
L 57.600968 222.985055 
L 57.600968 222.985055 
" style="fill:none;stroke:#00ffff;stroke-linecap:square;stroke-width:0.2;"/>
   </g>
   <g id="line2d_203">
    <path clip-path="url(#pc340f12af7)" d="M 414.72 300.808858 
L 408.123873 298.628957 
L 391.250888 293.240684 
L 374.70586 288.202436 
L 357.504825 283.229923 
L 340.741064 278.627116 
L 323.029738 273.999122 
L 303.969953 269.251252 
L 283.41591 264.362947 
L 261.549786 259.392928 
L 238.590194 254.40393 
L 215.047299 249.519105 
L 191.39483 244.840906 
L 167.122517 240.269022 
L 143.068549 235.971894 
L 119.160005 231.929185 
L 93.137146 227.764342 
L 67.733386 223.960897 
L 57.600894 222.519926 
L 57.600894 222.519926 
" style="fill:none;stroke:#00ffff;stroke-linecap:square;stroke-width:0.2;"/>
   </g>
   <g id="line2d_204">
    <path clip-path="url(#pc340f12af7)" d="M 414.72 300.808858 
L 408.123873 298.624071 
L 391.25089 293.223079 
L 374.669421 288.160693 
L 357.431944 283.163032 
L 340.668184 278.54431 
L 322.847528 273.869234 
L 303.678414 269.073122 
L 283.051481 264.143656 
L 261.112465 259.130761 
L 238.079979 254.097913 
L 214.50063 249.176748 
L 190.811704 244.46245 
L 166.539376 239.860968 
L 142.48539 235.534416 
L 118.576826 231.462401 
L 92.553943 227.265604 
L 67.150156 223.430914 
L 57.600821 222.060031 
L 57.600821 222.060031 
" style="fill:none;stroke:#00ffff;stroke-linecap:square;stroke-width:0.2;"/>
   </g>
   <g id="line2d_205">
    <path clip-path="url(#pc340f12af7)" d="M 414.72 300.808858 
L 408.123874 298.619185 
L 391.21445 293.194066 
L 374.596539 288.10806 
L 357.322621 283.085723 
L 340.522418 278.441804 
L 322.592433 273.720438 
L 303.313987 268.87685 
L 282.577722 263.898524 
L 260.565814 258.844016 
L 237.496876 253.776439 
L 213.881072 248.81998 
L 190.192133 244.077758 
L 165.919789 239.447496 
L 141.865785 235.092331 
L 117.957201 230.991817 
L 91.934293 226.763944 
L 66.530479 222.898864 
L 57.600749 221.605156 
L 57.600749 221.605156 
" style="fill:none;stroke:#00ffff;stroke-linecap:square;stroke-width:0.2;"/>
   </g>
   <g id="line2d_206">
    <path clip-path="url(#pc340f12af7)" d="M 414.72 300.808858 
L 408.123875 298.614299 
L 391.214452 293.176435 
L 374.5601 288.066186 
L 357.24974 283.018612 
L 340.413095 278.348984 
L 322.410224 273.59015 
L 303.022448 268.698157 
L 282.176849 263.670165 
L 260.092049 258.573436 
L 236.98666 253.470691 
L 213.370846 248.486067 
L 189.645451 243.708138 
L 165.373092 239.048835 
L 141.319071 234.664808 
L 117.410467 230.535551 
L 91.387536 226.276339 
L 65.983696 222.380617 
L 57.600678 221.155099 
L 57.600678 221.155099 
" style="fill:none;stroke:#00ffff;stroke-linecap:square;stroke-width:0.2;"/>
   </g>
   <g id="line2d_207">
    <path clip-path="url(#pc340f12af7)" d="M 414.72 300.808858 
L 408.123876 298.609413 
L 391.178012 293.147342 
L 374.487218 288.013361 
L 357.176859 282.951408 
L 340.267329 278.246151 
L 322.155128 273.440801 
L 302.658021 268.50116 
L 281.70309 263.424263 
L 259.545397 258.286183 
L 236.367112 253.141353 
L 212.714843 248.122462 
L 188.989434 243.31775 
L 164.680613 238.624036 
L 140.590127 234.206453 
L 116.681502 230.050593 
L 90.658543 225.762369 
L 65.254674 221.838269 
L 57.600607 220.709667 
L 57.600607 220.709667 
" style="fill:none;stroke:#00ffff;stroke-linecap:square;stroke-width:0.2;"/>
   </g>
   <g id="line2d_208">
    <path clip-path="url(#pc340f12af7)" d="M 414.72 300.808858 
L 408.123876 298.604528 
L 391.178014 293.129685 
L 374.450779 287.971355 
L 357.140421 282.894534 
L 340.158005 278.153073 
L 321.972919 273.310107 
L 302.402924 268.330962 
L 281.375104 263.212645 
L 259.14452 258.031856 
L 235.929784 252.851629 
L 212.241062 247.796997 
L 188.515641 242.964156 
L 164.206806 238.241491 
L 140.116304 233.795142 
L 116.207661 229.610685 
L 90.18468 225.291285 
L 64.744339 221.331232 
L 57.600537 220.268681 
L 57.600537 220.268681 
" style="fill:none;stroke:#00ffff;stroke-linecap:square;stroke-width:0.2;"/>
   </g>
   <g id="line2d_209">
    <path clip-path="url(#pc340f12af7)" d="M 414.72 300.808858 
L 408.123877 298.599643 
L 391.178017 293.112031 
L 374.41434 287.929298 
L 357.06754 282.827179 
L 340.012239 278.049912 
L 321.717823 273.1602 
L 302.038498 268.133267 
L 280.937788 262.974749 
L 258.634311 257.752475 
L 235.383123 252.53818 
L 211.694391 247.45679 
L 187.932513 242.589602 
L 163.623663 237.839436 
L 139.533143 233.365758 
L 115.588033 229.147875 
L 89.528581 224.79334 
L 64.088212 220.804993 
L 57.600468 219.831969 
L 57.600468 219.831969 
" style="fill:none;stroke:#00ffff;stroke-linecap:square;stroke-width:0.2;"/>
   </g>
   <g id="line2d_210">
    <path clip-path="url(#pc340f12af7)" d="M 414.72 300.808858 
L 408.123878 298.594757 
L 391.141576 293.08283 
L 374.341458 287.876198 
L 356.994659 282.759732 
L 339.83003 277.936565 
L 321.462728 273.009977 
L 301.674071 267.935164 
L 280.464028 262.727729 
L 258.087658 257.464445 
L 234.800019 252.21668 
L 211.074831 247.101554 
L 187.31294 242.20833 
L 163.004073 237.431394 
L 138.913535 232.93111 
L 114.968405 228.686729 
L 88.908928 224.303302 
L 63.468533 220.286699 
L 57.600399 219.399369 
L 57.600399 219.399369 
" style="fill:none;stroke:#00ffff;stroke-linecap:square;stroke-width:0.2;"/>
   </g>
   <g id="line2d_211">
    <path clip-path="url(#pc340f12af7)" d="M 414.72 300.808858 
L 408.123879 298.589872 
L 391.141579 293.06515 
L 374.305019 287.83401 
L 356.958221 282.702713 
L 339.684264 277.833006 
L 321.207632 272.859439 
L 301.346088 267.745833 
L 280.063155 262.497858 
L 257.650336 257.20136 
L 234.326246 251.919278 
L 210.564604 246.769615 
L 186.802701 241.849661 
L 162.49382 237.045261 
L 138.403265 232.517692 
L 114.458117 228.246143 
L 88.398616 223.833101 
L 62.958196 219.787539 
L 57.600331 218.970731 
L 57.600331 218.970731 
" style="fill:none;stroke:#00ffff;stroke-linecap:square;stroke-width:0.2;"/>
   </g>
   <g id="line2d_212">
    <path clip-path="url(#pc340f12af7)" d="M 414.72 300.808858 
L 408.160322 298.597121 
L 391.141581 293.047471 
L 374.232137 287.780716 
L 356.88534 282.635118 
L 339.465611 277.709124 
L 320.916093 272.698955 
L 300.945218 267.537727 
L 279.589394 262.250017 
L 256.957908 256.877459 
L 239.209744 252.820588 
L 215.521036 247.60809 
L 191.759185 242.609623 
L 167.450363 237.72528 
L 143.359874 233.118701 
L 119.414796 228.768771 
L 93.35538 224.270578 
L 67.915049 220.142035 
L 57.600264 218.545907 
L 57.600264 218.545907 
" style="fill:none;stroke:#00ffff;stroke-linecap:square;stroke-width:0.2;"/>
   </g>
   <g id="line2d_213">
    <path clip-path="url(#pc340f12af7)" d="M 414.72 300.808858 
L 408.160323 298.592263 
L 391.141584 293.029794 
L 374.195698 287.738394 
L 356.848902 282.578014 
L 339.319845 277.605131 
L 320.660998 272.547747 
L 300.580791 267.33839 
L 279.115634 262.001722 
L 256.374811 256.579305 
L 232.103156 251.039717 
L 208.305037 245.841847 
L 184.50665 240.873785 
L 159.942604 235.97609 
L 134.612829 231.183097 
L 108.225668 226.434257 
L 73.673737 220.651133 
L 57.600197 218.12476 
L 57.600197 218.12476 
" style="fill:none;stroke:#00ffff;stroke-linecap:square;stroke-width:0.2;"/>
   </g>
   <g id="line2d_214">
    <path clip-path="url(#pc340f12af7)" d="M 414.72 300.808858 
L 408.160323 298.587406 
L 391.105143 293.000459 
L 374.122817 287.684907 
L 356.812464 282.520883 
L 339.137636 277.49082 
L 320.405902 272.396222 
L 300.252807 267.147932 
L 278.71476 261.77079 
L 255.937488 256.315675 
L 230.936943 250.585962 
L 207.102363 245.361001 
L 183.26751 240.366265 
L 158.739884 235.456592 
L 134.97726 230.932854 
L 108.480754 226.126163 
L 75.313825 220.519957 
L 57.600131 217.70716 
L 57.600131 217.70716 
" style="fill:none;stroke:#00ffff;stroke-linecap:square;stroke-width:0.2;"/>
   </g>
   <g id="line2d_215">
    <path clip-path="url(#pc340f12af7)" d="M 414.72 300.808858 
L 408.160324 298.582548 
L 391.105146 292.982756 
L 374.086378 287.642452 
L 356.739584 282.453083 
L 338.99187 277.386427 
L 320.150806 272.244378 
L 299.88838 266.947803 
L 278.277443 261.530597 
L 255.500166 256.05182 
L 231.738713 250.574145 
L 207.904136 245.311143 
L 184.069287 240.278364 
L 159.50522 235.322124 
L 133.847404 230.406873 
L 107.64244 225.632108 
L 72.507295 219.671088 
L 57.600065 217.292982 
L 57.600065 217.292982 
" style="fill:none;stroke:#00ffff;stroke-linecap:square;stroke-width:0.2;"/>
   </g>
   <g id="line2d_216">
    <path clip-path="url(#pc340f12af7)" d="M 414.72 300.808858 
L 408.160325 298.577691 
L 391.068706 292.953341 
L 374.013496 287.58877 
L 356.703146 282.395864 
L 338.882547 277.292055 
L 319.968597 272.111754 
L 299.633283 266.775355 
L 277.949456 261.316972 
L 255.099287 255.796187 
L 232.358262 250.524352 
L 208.523687 245.225368 
L 184.688839 240.156582 
L 160.088328 235.155648 
L 135.341664 230.373804 
L 108.772249 225.482112 
L 78.156631 220.21024 
L 57.6 216.882109 
L 57.6 216.882109 
" style="fill:none;stroke:#00ffff;stroke-linecap:square;stroke-width:0.2;"/>
   </g>
   <g id="line2d_217">
    <path clip-path="url(#pc340f12af7)" d="M 414.719023 307.017956 
L 404.077866 303.169746 
L 393.473116 299.570919 
L 382.904775 296.219044 
L 372.372848 293.111698 
L 361.877335 290.24647 
L 351.418239 287.620952 
L 340.995563 285.232749 
L 330.572867 283.072315 
L 320.186594 281.14601 
L 309.800305 279.445884 
L 299.450445 277.976714 
L 289.100572 276.732139 
L 278.787131 275.715358 
L 268.473683 274.921594 
L 258.160228 274.350846 
L 247.84677 274.003116 
L 237.533309 273.878404 
L 227.256291 273.975969 
L 216.942832 274.296503 
L 206.629377 274.840054 
L 196.315928 275.606622 
L 186.002486 276.596208 
L 175.689055 277.80881 
L 165.339193 279.249897 
L 154.989345 280.915579 
L 144.60307 282.812909 
L 134.216814 284.936418 
L 123.794135 287.294748 
L 113.371479 289.880846 
L 102.912406 292.70495 
L 92.416917 295.769456 
L 81.885015 299.07677 
L 71.316702 302.629306 
L 60.711982 306.429485 
L 57.61439 307.584 
L 57.61439 307.584 
" style="fill:none;stroke:#008000;stroke-linecap:square;stroke-width:0.2;"/>
   </g>
   <g id="line2d_218">
    <path clip-path="url(#pc340f12af7)" d="M 414.719023 307.017956 
L 404.077866 303.169746 
L 393.473116 299.570919 
L 382.904775 296.219044 
L 372.372848 293.111698 
L 361.877335 290.24647 
L 351.418239 287.620952 
L 340.995563 285.232749 
L 330.572867 283.072315 
L 320.186594 281.14601 
L 309.800305 279.445884 
L 299.450445 277.976714 
L 289.100572 276.732139 
L 278.787131 275.715358 
L 268.473683 274.921594 
L 258.160228 274.350846 
L 247.84677 274.003116 
L 237.533309 273.878404 
L 227.256291 273.975969 
L 216.942832 274.296503 
L 206.629377 274.840054 
L 196.315928 275.606622 
L 186.002486 276.596208 
L 175.689055 277.80881 
L 165.339193 279.249897 
L 154.989345 280.915579 
L 144.60307 282.812909 
L 134.216814 284.936418 
L 123.794135 287.294748 
L 113.371479 289.880846 
L 102.912406 292.70495 
L 92.416917 295.769456 
L 81.885015 299.07677 
L 71.316702 302.629306 
L 60.711982 306.429485 
L 57.61439 307.584 
L 57.61439 307.584 
" style="fill:none;stroke:#0000ff;stroke-linecap:square;stroke-width:0.2;"/>
   </g>
   <g id="patch_3">
    <path d="M 57.6 307.584 
L 57.6 41.472 
" style="fill:none;stroke:#000000;stroke-linecap:square;stroke-linejoin:miter;stroke-width:0.2;"/>
   </g>
   <g id="patch_4">
    <path d="M 414.72 307.584 
L 414.72 41.472 
" style="fill:none;stroke:#000000;stroke-linecap:square;stroke-linejoin:miter;stroke-width:0.2;"/>
   </g>
   <g id="patch_5">
    <path d="M 57.6 307.584 
L 414.72 307.584 
" style="fill:none;stroke:#000000;stroke-linecap:square;stroke-linejoin:miter;stroke-width:0.2;"/>
   </g>
   <g id="patch_6">
    <path d="M 57.6 41.472 
L 414.72 41.472 
" style="fill:none;stroke:#000000;stroke-linecap:square;stroke-linejoin:miter;stroke-width:0.2;"/>
   </g>
  </g>
 </g>
 <defs>
  <clipPath id="pc340f12af7">
   <rect height="266.112" width="357.12" x="57.6" y="41.472"/>
  </clipPath>
 </defs>
</svg>
