<?xml version="1.0" encoding="utf-8" standalone="no"?>
<!DOCTYPE svg PUBLIC "-//W3C//DTD SVG 1.1//EN"
  "http://www.w3.org/Graphics/SVG/1.1/DTD/svg11.dtd">
<!-- Created with matplotlib (http://matplotlib.org/) -->
<svg height="345pt" version="1.1" viewBox="0 0 460 345" width="460pt" xmlns="http://www.w3.org/2000/svg" xmlns:xlink="http://www.w3.org/1999/xlink">
 <defs>
  <style type="text/css">
*{stroke-linecap:butt;stroke-linejoin:round;}
  </style>
 </defs>
 <g id="figure_1">
  <g id="patch_1">
   <path d="M 0 345.6 
L 460.8 345.6 
L 460.8 0 
L 0 0 
z
" style="fill:#ffffff;"/>
  </g>
  <g id="axes_1">
   <g id="patch_2">
    <path d="M 57.6 307.584 
L 414.72 307.584 
L 414.72 41.472 
L 57.6 41.472 
z
" style="fill:#ffffff;"/>
   </g>
   <g id="matplotlib.axis_1">
    <g id="xtick_1">
     <g id="line2d_1">
      <defs>
       <path d="M 0 0 
L 0 -1 
" id="mfdb3dd435b" style="stroke:#000000;stroke-width:0.2;"/>
      </defs>
      <g>
       <use style="stroke:#000000;stroke-width:0.2;" x="121.924007" xlink:href="#mfdb3dd435b" y="307.584"/>
      </g>
     </g>
     <g id="text_1">
      <!-- 80000 -->
      <defs>
       <path d="M 31.78125 34.625 
Q 24.75 34.625 20.71875 30.859375 
Q 16.703125 27.09375 16.703125 20.515625 
Q 16.703125 13.921875 20.71875 10.15625 
Q 24.75 6.390625 31.78125 6.390625 
Q 38.8125 6.390625 42.859375 10.171875 
Q 46.921875 13.96875 46.921875 20.515625 
Q 46.921875 27.09375 42.890625 30.859375 
Q 38.875 34.625 31.78125 34.625 
z
M 21.921875 38.8125 
Q 15.578125 40.375 12.03125 44.71875 
Q 8.5 49.078125 8.5 55.328125 
Q 8.5 64.0625 14.71875 69.140625 
Q 20.953125 74.21875 31.78125 74.21875 
Q 42.671875 74.21875 48.875 69.140625 
Q 55.078125 64.0625 55.078125 55.328125 
Q 55.078125 49.078125 51.53125 44.71875 
Q 48 40.375 41.703125 38.8125 
Q 48.828125 37.15625 52.796875 32.3125 
Q 56.78125 27.484375 56.78125 20.515625 
Q 56.78125 9.90625 50.3125 4.234375 
Q 43.84375 -1.421875 31.78125 -1.421875 
Q 19.734375 -1.421875 13.25 4.234375 
Q 6.78125 9.90625 6.78125 20.515625 
Q 6.78125 27.484375 10.78125 32.3125 
Q 14.796875 37.15625 21.921875 38.8125 
z
M 18.3125 54.390625 
Q 18.3125 48.734375 21.84375 45.5625 
Q 25.390625 42.390625 31.78125 42.390625 
Q 38.140625 42.390625 41.71875 45.5625 
Q 45.3125 48.734375 45.3125 54.390625 
Q 45.3125 60.0625 41.71875 63.234375 
Q 38.140625 66.40625 31.78125 66.40625 
Q 25.390625 66.40625 21.84375 63.234375 
Q 18.3125 60.0625 18.3125 54.390625 
z
" id="DejaVuSans-38"/>
       <path d="M 31.78125 66.40625 
Q 24.171875 66.40625 20.328125 58.90625 
Q 16.5 51.421875 16.5 36.375 
Q 16.5 21.390625 20.328125 13.890625 
Q 24.171875 6.390625 31.78125 6.390625 
Q 39.453125 6.390625 43.28125 13.890625 
Q 47.125 21.390625 47.125 36.375 
Q 47.125 51.421875 43.28125 58.90625 
Q 39.453125 66.40625 31.78125 66.40625 
z
M 31.78125 74.21875 
Q 44.046875 74.21875 50.515625 64.515625 
Q 56.984375 54.828125 56.984375 36.375 
Q 56.984375 17.96875 50.515625 8.265625 
Q 44.046875 -1.421875 31.78125 -1.421875 
Q 19.53125 -1.421875 13.0625 8.265625 
Q 6.59375 17.96875 6.59375 36.375 
Q 6.59375 54.828125 13.0625 64.515625 
Q 19.53125 74.21875 31.78125 74.21875 
z
" id="DejaVuSans-30"/>
      </defs>
      <g transform="translate(113.970882 305.383219)scale(0.05 -0.05)">
       <use xlink:href="#DejaVuSans-38"/>
       <use x="63.623047" xlink:href="#DejaVuSans-30"/>
       <use x="127.246094" xlink:href="#DejaVuSans-30"/>
       <use x="190.869141" xlink:href="#DejaVuSans-30"/>
       <use x="254.492188" xlink:href="#DejaVuSans-30"/>
      </g>
     </g>
    </g>
    <g id="xtick_2">
     <g id="line2d_2">
      <g>
       <use style="stroke:#000000;stroke-width:0.2;" x="195.123006" xlink:href="#mfdb3dd435b" y="307.584"/>
      </g>
     </g>
     <g id="text_2">
      <!-- 60000 -->
      <defs>
       <path d="M 33.015625 40.375 
Q 26.375 40.375 22.484375 35.828125 
Q 18.609375 31.296875 18.609375 23.390625 
Q 18.609375 15.53125 22.484375 10.953125 
Q 26.375 6.390625 33.015625 6.390625 
Q 39.65625 6.390625 43.53125 10.953125 
Q 47.40625 15.53125 47.40625 23.390625 
Q 47.40625 31.296875 43.53125 35.828125 
Q 39.65625 40.375 33.015625 40.375 
z
M 52.59375 71.296875 
L 52.59375 62.3125 
Q 48.875 64.0625 45.09375 64.984375 
Q 41.3125 65.921875 37.59375 65.921875 
Q 27.828125 65.921875 22.671875 59.328125 
Q 17.53125 52.734375 16.796875 39.40625 
Q 19.671875 43.65625 24.015625 45.921875 
Q 28.375 48.1875 33.59375 48.1875 
Q 44.578125 48.1875 50.953125 41.515625 
Q 57.328125 34.859375 57.328125 23.390625 
Q 57.328125 12.15625 50.6875 5.359375 
Q 44.046875 -1.421875 33.015625 -1.421875 
Q 20.359375 -1.421875 13.671875 8.265625 
Q 6.984375 17.96875 6.984375 36.375 
Q 6.984375 53.65625 15.1875 63.9375 
Q 23.390625 74.21875 37.203125 74.21875 
Q 40.921875 74.21875 44.703125 73.484375 
Q 48.484375 72.75 52.59375 71.296875 
z
" id="DejaVuSans-36"/>
      </defs>
      <g transform="translate(187.169881 305.383219)scale(0.05 -0.05)">
       <use xlink:href="#DejaVuSans-36"/>
       <use x="63.623047" xlink:href="#DejaVuSans-30"/>
       <use x="127.246094" xlink:href="#DejaVuSans-30"/>
       <use x="190.869141" xlink:href="#DejaVuSans-30"/>
       <use x="254.492188" xlink:href="#DejaVuSans-30"/>
      </g>
     </g>
    </g>
    <g id="xtick_3">
     <g id="line2d_3">
      <g>
       <use style="stroke:#000000;stroke-width:0.2;" x="268.322004" xlink:href="#mfdb3dd435b" y="307.584"/>
      </g>
     </g>
     <g id="text_3">
      <!-- 40000 -->
      <defs>
       <path d="M 37.796875 64.3125 
L 12.890625 25.390625 
L 37.796875 25.390625 
z
M 35.203125 72.90625 
L 47.609375 72.90625 
L 47.609375 25.390625 
L 58.015625 25.390625 
L 58.015625 17.1875 
L 47.609375 17.1875 
L 47.609375 0 
L 37.796875 0 
L 37.796875 17.1875 
L 4.890625 17.1875 
L 4.890625 26.703125 
z
" id="DejaVuSans-34"/>
      </defs>
      <g transform="translate(260.368879 305.383219)scale(0.05 -0.05)">
       <use xlink:href="#DejaVuSans-34"/>
       <use x="63.623047" xlink:href="#DejaVuSans-30"/>
       <use x="127.246094" xlink:href="#DejaVuSans-30"/>
       <use x="190.869141" xlink:href="#DejaVuSans-30"/>
       <use x="254.492188" xlink:href="#DejaVuSans-30"/>
      </g>
     </g>
    </g>
    <g id="xtick_4">
     <g id="line2d_4">
      <g>
       <use style="stroke:#000000;stroke-width:0.2;" x="341.521002" xlink:href="#mfdb3dd435b" y="307.584"/>
      </g>
     </g>
     <g id="text_4">
      <!-- 20000 -->
      <defs>
       <path d="M 19.1875 8.296875 
L 53.609375 8.296875 
L 53.609375 0 
L 7.328125 0 
L 7.328125 8.296875 
Q 12.9375 14.109375 22.625 23.890625 
Q 32.328125 33.6875 34.8125 36.53125 
Q 39.546875 41.84375 41.421875 45.53125 
Q 43.3125 49.21875 43.3125 52.78125 
Q 43.3125 58.59375 39.234375 62.25 
Q 35.15625 65.921875 28.609375 65.921875 
Q 23.96875 65.921875 18.8125 64.3125 
Q 13.671875 62.703125 7.8125 59.421875 
L 7.8125 69.390625 
Q 13.765625 71.78125 18.9375 73 
Q 24.125 74.21875 28.421875 74.21875 
Q 39.75 74.21875 46.484375 68.546875 
Q 53.21875 62.890625 53.21875 53.421875 
Q 53.21875 48.921875 51.53125 44.890625 
Q 49.859375 40.875 45.40625 35.40625 
Q 44.1875 33.984375 37.640625 27.21875 
Q 31.109375 20.453125 19.1875 8.296875 
z
" id="DejaVuSans-32"/>
      </defs>
      <g transform="translate(333.567877 305.383219)scale(0.05 -0.05)">
       <use xlink:href="#DejaVuSans-32"/>
       <use x="63.623047" xlink:href="#DejaVuSans-30"/>
       <use x="127.246094" xlink:href="#DejaVuSans-30"/>
       <use x="190.869141" xlink:href="#DejaVuSans-30"/>
       <use x="254.492188" xlink:href="#DejaVuSans-30"/>
      </g>
     </g>
    </g>
    <g id="xtick_5">
     <g id="line2d_5">
      <defs>
       <path d="M 0 0 
L 0 -0.5 
" id="m1b07a2c044" style="stroke:#000000;stroke-width:0.2;"/>
      </defs>
      <g>
       <use style="stroke:#000000;stroke-width:0.2;" x="414.72" xlink:href="#m1b07a2c044" y="307.584"/>
      </g>
     </g>
    </g>
    <g id="xtick_6">
     <g id="line2d_6">
      <g>
       <use style="stroke:#000000;stroke-width:0.2;" x="411.06005" xlink:href="#m1b07a2c044" y="307.584"/>
      </g>
     </g>
    </g>
    <g id="xtick_7">
     <g id="line2d_7">
      <g>
       <use style="stroke:#000000;stroke-width:0.2;" x="407.4001" xlink:href="#m1b07a2c044" y="307.584"/>
      </g>
     </g>
    </g>
    <g id="xtick_8">
     <g id="line2d_8">
      <g>
       <use style="stroke:#000000;stroke-width:0.2;" x="403.74015" xlink:href="#m1b07a2c044" y="307.584"/>
      </g>
     </g>
    </g>
    <g id="xtick_9">
     <g id="line2d_9">
      <g>
       <use style="stroke:#000000;stroke-width:0.2;" x="400.0802" xlink:href="#m1b07a2c044" y="307.584"/>
      </g>
     </g>
    </g>
    <g id="xtick_10">
     <g id="line2d_10">
      <g>
       <use style="stroke:#000000;stroke-width:0.2;" x="396.42025" xlink:href="#m1b07a2c044" y="307.584"/>
      </g>
     </g>
    </g>
    <g id="xtick_11">
     <g id="line2d_11">
      <g>
       <use style="stroke:#000000;stroke-width:0.2;" x="392.760301" xlink:href="#m1b07a2c044" y="307.584"/>
      </g>
     </g>
    </g>
    <g id="xtick_12">
     <g id="line2d_12">
      <g>
       <use style="stroke:#000000;stroke-width:0.2;" x="389.100351" xlink:href="#m1b07a2c044" y="307.584"/>
      </g>
     </g>
    </g>
    <g id="xtick_13">
     <g id="line2d_13">
      <g>
       <use style="stroke:#000000;stroke-width:0.2;" x="385.440401" xlink:href="#m1b07a2c044" y="307.584"/>
      </g>
     </g>
    </g>
    <g id="xtick_14">
     <g id="line2d_14">
      <g>
       <use style="stroke:#000000;stroke-width:0.2;" x="381.780451" xlink:href="#m1b07a2c044" y="307.584"/>
      </g>
     </g>
    </g>
    <g id="xtick_15">
     <g id="line2d_15">
      <g>
       <use style="stroke:#000000;stroke-width:0.2;" x="378.120501" xlink:href="#m1b07a2c044" y="307.584"/>
      </g>
     </g>
    </g>
    <g id="xtick_16">
     <g id="line2d_16">
      <g>
       <use style="stroke:#000000;stroke-width:0.2;" x="374.460551" xlink:href="#m1b07a2c044" y="307.584"/>
      </g>
     </g>
    </g>
    <g id="xtick_17">
     <g id="line2d_17">
      <g>
       <use style="stroke:#000000;stroke-width:0.2;" x="370.800601" xlink:href="#m1b07a2c044" y="307.584"/>
      </g>
     </g>
    </g>
    <g id="xtick_18">
     <g id="line2d_18">
      <g>
       <use style="stroke:#000000;stroke-width:0.2;" x="367.140651" xlink:href="#m1b07a2c044" y="307.584"/>
      </g>
     </g>
    </g>
    <g id="xtick_19">
     <g id="line2d_19">
      <g>
       <use style="stroke:#000000;stroke-width:0.2;" x="363.480701" xlink:href="#m1b07a2c044" y="307.584"/>
      </g>
     </g>
    </g>
    <g id="xtick_20">
     <g id="line2d_20">
      <g>
       <use style="stroke:#000000;stroke-width:0.2;" x="359.820751" xlink:href="#m1b07a2c044" y="307.584"/>
      </g>
     </g>
    </g>
    <g id="xtick_21">
     <g id="line2d_21">
      <g>
       <use style="stroke:#000000;stroke-width:0.2;" x="356.160801" xlink:href="#m1b07a2c044" y="307.584"/>
      </g>
     </g>
    </g>
    <g id="xtick_22">
     <g id="line2d_22">
      <g>
       <use style="stroke:#000000;stroke-width:0.2;" x="352.500852" xlink:href="#m1b07a2c044" y="307.584"/>
      </g>
     </g>
    </g>
    <g id="xtick_23">
     <g id="line2d_23">
      <g>
       <use style="stroke:#000000;stroke-width:0.2;" x="348.840902" xlink:href="#m1b07a2c044" y="307.584"/>
      </g>
     </g>
    </g>
    <g id="xtick_24">
     <g id="line2d_24">
      <g>
       <use style="stroke:#000000;stroke-width:0.2;" x="345.180952" xlink:href="#m1b07a2c044" y="307.584"/>
      </g>
     </g>
    </g>
    <g id="xtick_25">
     <g id="line2d_25">
      <g>
       <use style="stroke:#000000;stroke-width:0.2;" x="341.521002" xlink:href="#m1b07a2c044" y="307.584"/>
      </g>
     </g>
    </g>
    <g id="xtick_26">
     <g id="line2d_26">
      <g>
       <use style="stroke:#000000;stroke-width:0.2;" x="337.861052" xlink:href="#m1b07a2c044" y="307.584"/>
      </g>
     </g>
    </g>
    <g id="xtick_27">
     <g id="line2d_27">
      <g>
       <use style="stroke:#000000;stroke-width:0.2;" x="334.201102" xlink:href="#m1b07a2c044" y="307.584"/>
      </g>
     </g>
    </g>
    <g id="xtick_28">
     <g id="line2d_28">
      <g>
       <use style="stroke:#000000;stroke-width:0.2;" x="330.541152" xlink:href="#m1b07a2c044" y="307.584"/>
      </g>
     </g>
    </g>
    <g id="xtick_29">
     <g id="line2d_29">
      <g>
       <use style="stroke:#000000;stroke-width:0.2;" x="326.881202" xlink:href="#m1b07a2c044" y="307.584"/>
      </g>
     </g>
    </g>
    <g id="xtick_30">
     <g id="line2d_30">
      <g>
       <use style="stroke:#000000;stroke-width:0.2;" x="323.221252" xlink:href="#m1b07a2c044" y="307.584"/>
      </g>
     </g>
    </g>
    <g id="xtick_31">
     <g id="line2d_31">
      <g>
       <use style="stroke:#000000;stroke-width:0.2;" x="319.561302" xlink:href="#m1b07a2c044" y="307.584"/>
      </g>
     </g>
    </g>
    <g id="xtick_32">
     <g id="line2d_32">
      <g>
       <use style="stroke:#000000;stroke-width:0.2;" x="315.901353" xlink:href="#m1b07a2c044" y="307.584"/>
      </g>
     </g>
    </g>
    <g id="xtick_33">
     <g id="line2d_33">
      <g>
       <use style="stroke:#000000;stroke-width:0.2;" x="312.241403" xlink:href="#m1b07a2c044" y="307.584"/>
      </g>
     </g>
    </g>
    <g id="xtick_34">
     <g id="line2d_34">
      <g>
       <use style="stroke:#000000;stroke-width:0.2;" x="308.581453" xlink:href="#m1b07a2c044" y="307.584"/>
      </g>
     </g>
    </g>
    <g id="xtick_35">
     <g id="line2d_35">
      <g>
       <use style="stroke:#000000;stroke-width:0.2;" x="304.921503" xlink:href="#m1b07a2c044" y="307.584"/>
      </g>
     </g>
    </g>
    <g id="xtick_36">
     <g id="line2d_36">
      <g>
       <use style="stroke:#000000;stroke-width:0.2;" x="301.261553" xlink:href="#m1b07a2c044" y="307.584"/>
      </g>
     </g>
    </g>
    <g id="xtick_37">
     <g id="line2d_37">
      <g>
       <use style="stroke:#000000;stroke-width:0.2;" x="297.601603" xlink:href="#m1b07a2c044" y="307.584"/>
      </g>
     </g>
    </g>
    <g id="xtick_38">
     <g id="line2d_38">
      <g>
       <use style="stroke:#000000;stroke-width:0.2;" x="293.941653" xlink:href="#m1b07a2c044" y="307.584"/>
      </g>
     </g>
    </g>
    <g id="xtick_39">
     <g id="line2d_39">
      <g>
       <use style="stroke:#000000;stroke-width:0.2;" x="290.281703" xlink:href="#m1b07a2c044" y="307.584"/>
      </g>
     </g>
    </g>
    <g id="xtick_40">
     <g id="line2d_40">
      <g>
       <use style="stroke:#000000;stroke-width:0.2;" x="286.621753" xlink:href="#m1b07a2c044" y="307.584"/>
      </g>
     </g>
    </g>
    <g id="xtick_41">
     <g id="line2d_41">
      <g>
       <use style="stroke:#000000;stroke-width:0.2;" x="282.961803" xlink:href="#m1b07a2c044" y="307.584"/>
      </g>
     </g>
    </g>
    <g id="xtick_42">
     <g id="line2d_42">
      <g>
       <use style="stroke:#000000;stroke-width:0.2;" x="279.301853" xlink:href="#m1b07a2c044" y="307.584"/>
      </g>
     </g>
    </g>
    <g id="xtick_43">
     <g id="line2d_43">
      <g>
       <use style="stroke:#000000;stroke-width:0.2;" x="275.641904" xlink:href="#m1b07a2c044" y="307.584"/>
      </g>
     </g>
    </g>
    <g id="xtick_44">
     <g id="line2d_44">
      <g>
       <use style="stroke:#000000;stroke-width:0.2;" x="271.981954" xlink:href="#m1b07a2c044" y="307.584"/>
      </g>
     </g>
    </g>
    <g id="xtick_45">
     <g id="line2d_45">
      <g>
       <use style="stroke:#000000;stroke-width:0.2;" x="268.322004" xlink:href="#m1b07a2c044" y="307.584"/>
      </g>
     </g>
    </g>
    <g id="xtick_46">
     <g id="line2d_46">
      <g>
       <use style="stroke:#000000;stroke-width:0.2;" x="264.662054" xlink:href="#m1b07a2c044" y="307.584"/>
      </g>
     </g>
    </g>
    <g id="xtick_47">
     <g id="line2d_47">
      <g>
       <use style="stroke:#000000;stroke-width:0.2;" x="261.002104" xlink:href="#m1b07a2c044" y="307.584"/>
      </g>
     </g>
    </g>
    <g id="xtick_48">
     <g id="line2d_48">
      <g>
       <use style="stroke:#000000;stroke-width:0.2;" x="257.342154" xlink:href="#m1b07a2c044" y="307.584"/>
      </g>
     </g>
    </g>
    <g id="xtick_49">
     <g id="line2d_49">
      <g>
       <use style="stroke:#000000;stroke-width:0.2;" x="253.682204" xlink:href="#m1b07a2c044" y="307.584"/>
      </g>
     </g>
    </g>
    <g id="xtick_50">
     <g id="line2d_50">
      <g>
       <use style="stroke:#000000;stroke-width:0.2;" x="250.022254" xlink:href="#m1b07a2c044" y="307.584"/>
      </g>
     </g>
    </g>
    <g id="xtick_51">
     <g id="line2d_51">
      <g>
       <use style="stroke:#000000;stroke-width:0.2;" x="246.362304" xlink:href="#m1b07a2c044" y="307.584"/>
      </g>
     </g>
    </g>
    <g id="xtick_52">
     <g id="line2d_52">
      <g>
       <use style="stroke:#000000;stroke-width:0.2;" x="242.702354" xlink:href="#m1b07a2c044" y="307.584"/>
      </g>
     </g>
    </g>
    <g id="xtick_53">
     <g id="line2d_53">
      <g>
       <use style="stroke:#000000;stroke-width:0.2;" x="239.042404" xlink:href="#m1b07a2c044" y="307.584"/>
      </g>
     </g>
    </g>
    <g id="xtick_54">
     <g id="line2d_54">
      <g>
       <use style="stroke:#000000;stroke-width:0.2;" x="235.382455" xlink:href="#m1b07a2c044" y="307.584"/>
      </g>
     </g>
    </g>
    <g id="xtick_55">
     <g id="line2d_55">
      <g>
       <use style="stroke:#000000;stroke-width:0.2;" x="231.722505" xlink:href="#m1b07a2c044" y="307.584"/>
      </g>
     </g>
    </g>
    <g id="xtick_56">
     <g id="line2d_56">
      <g>
       <use style="stroke:#000000;stroke-width:0.2;" x="228.062555" xlink:href="#m1b07a2c044" y="307.584"/>
      </g>
     </g>
    </g>
    <g id="xtick_57">
     <g id="line2d_57">
      <g>
       <use style="stroke:#000000;stroke-width:0.2;" x="224.402605" xlink:href="#m1b07a2c044" y="307.584"/>
      </g>
     </g>
    </g>
    <g id="xtick_58">
     <g id="line2d_58">
      <g>
       <use style="stroke:#000000;stroke-width:0.2;" x="220.742655" xlink:href="#m1b07a2c044" y="307.584"/>
      </g>
     </g>
    </g>
    <g id="xtick_59">
     <g id="line2d_59">
      <g>
       <use style="stroke:#000000;stroke-width:0.2;" x="217.082705" xlink:href="#m1b07a2c044" y="307.584"/>
      </g>
     </g>
    </g>
    <g id="xtick_60">
     <g id="line2d_60">
      <g>
       <use style="stroke:#000000;stroke-width:0.2;" x="213.422755" xlink:href="#m1b07a2c044" y="307.584"/>
      </g>
     </g>
    </g>
    <g id="xtick_61">
     <g id="line2d_61">
      <g>
       <use style="stroke:#000000;stroke-width:0.2;" x="209.762805" xlink:href="#m1b07a2c044" y="307.584"/>
      </g>
     </g>
    </g>
    <g id="xtick_62">
     <g id="line2d_62">
      <g>
       <use style="stroke:#000000;stroke-width:0.2;" x="206.102855" xlink:href="#m1b07a2c044" y="307.584"/>
      </g>
     </g>
    </g>
    <g id="xtick_63">
     <g id="line2d_63">
      <g>
       <use style="stroke:#000000;stroke-width:0.2;" x="202.442905" xlink:href="#m1b07a2c044" y="307.584"/>
      </g>
     </g>
    </g>
    <g id="xtick_64">
     <g id="line2d_64">
      <g>
       <use style="stroke:#000000;stroke-width:0.2;" x="198.782955" xlink:href="#m1b07a2c044" y="307.584"/>
      </g>
     </g>
    </g>
    <g id="xtick_65">
     <g id="line2d_65">
      <g>
       <use style="stroke:#000000;stroke-width:0.2;" x="195.123006" xlink:href="#m1b07a2c044" y="307.584"/>
      </g>
     </g>
    </g>
    <g id="xtick_66">
     <g id="line2d_66">
      <g>
       <use style="stroke:#000000;stroke-width:0.2;" x="191.463056" xlink:href="#m1b07a2c044" y="307.584"/>
      </g>
     </g>
    </g>
    <g id="xtick_67">
     <g id="line2d_67">
      <g>
       <use style="stroke:#000000;stroke-width:0.2;" x="187.803106" xlink:href="#m1b07a2c044" y="307.584"/>
      </g>
     </g>
    </g>
    <g id="xtick_68">
     <g id="line2d_68">
      <g>
       <use style="stroke:#000000;stroke-width:0.2;" x="184.143156" xlink:href="#m1b07a2c044" y="307.584"/>
      </g>
     </g>
    </g>
    <g id="xtick_69">
     <g id="line2d_69">
      <g>
       <use style="stroke:#000000;stroke-width:0.2;" x="180.483206" xlink:href="#m1b07a2c044" y="307.584"/>
      </g>
     </g>
    </g>
    <g id="xtick_70">
     <g id="line2d_70">
      <g>
       <use style="stroke:#000000;stroke-width:0.2;" x="176.823256" xlink:href="#m1b07a2c044" y="307.584"/>
      </g>
     </g>
    </g>
    <g id="xtick_71">
     <g id="line2d_71">
      <g>
       <use style="stroke:#000000;stroke-width:0.2;" x="173.163306" xlink:href="#m1b07a2c044" y="307.584"/>
      </g>
     </g>
    </g>
    <g id="xtick_72">
     <g id="line2d_72">
      <g>
       <use style="stroke:#000000;stroke-width:0.2;" x="169.503356" xlink:href="#m1b07a2c044" y="307.584"/>
      </g>
     </g>
    </g>
    <g id="xtick_73">
     <g id="line2d_73">
      <g>
       <use style="stroke:#000000;stroke-width:0.2;" x="165.843406" xlink:href="#m1b07a2c044" y="307.584"/>
      </g>
     </g>
    </g>
    <g id="xtick_74">
     <g id="line2d_74">
      <g>
       <use style="stroke:#000000;stroke-width:0.2;" x="162.183456" xlink:href="#m1b07a2c044" y="307.584"/>
      </g>
     </g>
    </g>
    <g id="xtick_75">
     <g id="line2d_75">
      <g>
       <use style="stroke:#000000;stroke-width:0.2;" x="158.523506" xlink:href="#m1b07a2c044" y="307.584"/>
      </g>
     </g>
    </g>
    <g id="xtick_76">
     <g id="line2d_76">
      <g>
       <use style="stroke:#000000;stroke-width:0.2;" x="154.863557" xlink:href="#m1b07a2c044" y="307.584"/>
      </g>
     </g>
    </g>
    <g id="xtick_77">
     <g id="line2d_77">
      <g>
       <use style="stroke:#000000;stroke-width:0.2;" x="151.203607" xlink:href="#m1b07a2c044" y="307.584"/>
      </g>
     </g>
    </g>
    <g id="xtick_78">
     <g id="line2d_78">
      <g>
       <use style="stroke:#000000;stroke-width:0.2;" x="147.543657" xlink:href="#m1b07a2c044" y="307.584"/>
      </g>
     </g>
    </g>
    <g id="xtick_79">
     <g id="line2d_79">
      <g>
       <use style="stroke:#000000;stroke-width:0.2;" x="143.883707" xlink:href="#m1b07a2c044" y="307.584"/>
      </g>
     </g>
    </g>
    <g id="xtick_80">
     <g id="line2d_80">
      <g>
       <use style="stroke:#000000;stroke-width:0.2;" x="140.223757" xlink:href="#m1b07a2c044" y="307.584"/>
      </g>
     </g>
    </g>
    <g id="xtick_81">
     <g id="line2d_81">
      <g>
       <use style="stroke:#000000;stroke-width:0.2;" x="136.563807" xlink:href="#m1b07a2c044" y="307.584"/>
      </g>
     </g>
    </g>
    <g id="xtick_82">
     <g id="line2d_82">
      <g>
       <use style="stroke:#000000;stroke-width:0.2;" x="132.903857" xlink:href="#m1b07a2c044" y="307.584"/>
      </g>
     </g>
    </g>
    <g id="xtick_83">
     <g id="line2d_83">
      <g>
       <use style="stroke:#000000;stroke-width:0.2;" x="129.243907" xlink:href="#m1b07a2c044" y="307.584"/>
      </g>
     </g>
    </g>
    <g id="xtick_84">
     <g id="line2d_84">
      <g>
       <use style="stroke:#000000;stroke-width:0.2;" x="125.583957" xlink:href="#m1b07a2c044" y="307.584"/>
      </g>
     </g>
    </g>
    <g id="xtick_85">
     <g id="line2d_85">
      <g>
       <use style="stroke:#000000;stroke-width:0.2;" x="121.924007" xlink:href="#m1b07a2c044" y="307.584"/>
      </g>
     </g>
    </g>
    <g id="xtick_86">
     <g id="line2d_86">
      <g>
       <use style="stroke:#000000;stroke-width:0.2;" x="118.264058" xlink:href="#m1b07a2c044" y="307.584"/>
      </g>
     </g>
    </g>
    <g id="xtick_87">
     <g id="line2d_87">
      <g>
       <use style="stroke:#000000;stroke-width:0.2;" x="114.604108" xlink:href="#m1b07a2c044" y="307.584"/>
      </g>
     </g>
    </g>
    <g id="xtick_88">
     <g id="line2d_88">
      <g>
       <use style="stroke:#000000;stroke-width:0.2;" x="110.944158" xlink:href="#m1b07a2c044" y="307.584"/>
      </g>
     </g>
    </g>
    <g id="xtick_89">
     <g id="line2d_89">
      <g>
       <use style="stroke:#000000;stroke-width:0.2;" x="107.284208" xlink:href="#m1b07a2c044" y="307.584"/>
      </g>
     </g>
    </g>
    <g id="xtick_90">
     <g id="line2d_90">
      <g>
       <use style="stroke:#000000;stroke-width:0.2;" x="103.624258" xlink:href="#m1b07a2c044" y="307.584"/>
      </g>
     </g>
    </g>
    <g id="xtick_91">
     <g id="line2d_91">
      <g>
       <use style="stroke:#000000;stroke-width:0.2;" x="99.964308" xlink:href="#m1b07a2c044" y="307.584"/>
      </g>
     </g>
    </g>
    <g id="xtick_92">
     <g id="line2d_92">
      <g>
       <use style="stroke:#000000;stroke-width:0.2;" x="96.304358" xlink:href="#m1b07a2c044" y="307.584"/>
      </g>
     </g>
    </g>
    <g id="xtick_93">
     <g id="line2d_93">
      <g>
       <use style="stroke:#000000;stroke-width:0.2;" x="92.644408" xlink:href="#m1b07a2c044" y="307.584"/>
      </g>
     </g>
    </g>
    <g id="xtick_94">
     <g id="line2d_94">
      <g>
       <use style="stroke:#000000;stroke-width:0.2;" x="88.984458" xlink:href="#m1b07a2c044" y="307.584"/>
      </g>
     </g>
    </g>
    <g id="xtick_95">
     <g id="line2d_95">
      <g>
       <use style="stroke:#000000;stroke-width:0.2;" x="85.324508" xlink:href="#m1b07a2c044" y="307.584"/>
      </g>
     </g>
    </g>
    <g id="xtick_96">
     <g id="line2d_96">
      <g>
       <use style="stroke:#000000;stroke-width:0.2;" x="81.664558" xlink:href="#m1b07a2c044" y="307.584"/>
      </g>
     </g>
    </g>
    <g id="xtick_97">
     <g id="line2d_97">
      <g>
       <use style="stroke:#000000;stroke-width:0.2;" x="78.004609" xlink:href="#m1b07a2c044" y="307.584"/>
      </g>
     </g>
    </g>
    <g id="xtick_98">
     <g id="line2d_98">
      <g>
       <use style="stroke:#000000;stroke-width:0.2;" x="74.344659" xlink:href="#m1b07a2c044" y="307.584"/>
      </g>
     </g>
    </g>
    <g id="xtick_99">
     <g id="line2d_99">
      <g>
       <use style="stroke:#000000;stroke-width:0.2;" x="70.684709" xlink:href="#m1b07a2c044" y="307.584"/>
      </g>
     </g>
    </g>
    <g id="xtick_100">
     <g id="line2d_100">
      <g>
       <use style="stroke:#000000;stroke-width:0.2;" x="67.024759" xlink:href="#m1b07a2c044" y="307.584"/>
      </g>
     </g>
    </g>
    <g id="xtick_101">
     <g id="line2d_101">
      <g>
       <use style="stroke:#000000;stroke-width:0.2;" x="63.364809" xlink:href="#m1b07a2c044" y="307.584"/>
      </g>
     </g>
    </g>
    <g id="xtick_102">
     <g id="line2d_102">
      <g>
       <use style="stroke:#000000;stroke-width:0.2;" x="59.704859" xlink:href="#m1b07a2c044" y="307.584"/>
      </g>
     </g>
    </g>
   </g>
   <g id="matplotlib.axis_2">
    <g id="ytick_1">
     <g id="line2d_103">
      <defs>
       <path d="M 0 0 
L 1 0 
" id="m5080a8a17a" style="stroke:#000000;stroke-width:0.2;"/>
      </defs>
      <g>
       <use style="stroke:#000000;stroke-width:0.2;" x="57.6" xlink:href="#m5080a8a17a" y="267.6672"/>
      </g>
     </g>
     <g id="text_5">
      <!-- 100 -->
      <defs>
       <path d="M 12.40625 8.296875 
L 28.515625 8.296875 
L 28.515625 63.921875 
L 10.984375 60.40625 
L 10.984375 69.390625 
L 28.421875 72.90625 
L 38.28125 72.90625 
L 38.28125 8.296875 
L 54.390625 8.296875 
L 54.390625 0 
L 12.40625 0 
z
" id="DejaVuSans-31"/>
      </defs>
      <g transform="translate(60.05625 269.566809)scale(0.05 -0.05)">
       <use xlink:href="#DejaVuSans-31"/>
       <use x="63.623047" xlink:href="#DejaVuSans-30"/>
       <use x="127.246094" xlink:href="#DejaVuSans-30"/>
      </g>
     </g>
    </g>
    <g id="ytick_2">
     <g id="line2d_104">
      <g>
       <use style="stroke:#000000;stroke-width:0.2;" x="57.6" xlink:href="#m5080a8a17a" y="241.056"/>
      </g>
     </g>
     <g id="text_6">
      <!-- 200 -->
      <g transform="translate(60.05625 242.955609)scale(0.05 -0.05)">
       <use xlink:href="#DejaVuSans-32"/>
       <use x="63.623047" xlink:href="#DejaVuSans-30"/>
       <use x="127.246094" xlink:href="#DejaVuSans-30"/>
      </g>
     </g>
    </g>
    <g id="ytick_3">
     <g id="line2d_105">
      <g>
       <use style="stroke:#000000;stroke-width:0.2;" x="57.6" xlink:href="#m5080a8a17a" y="214.4448"/>
      </g>
     </g>
     <g id="text_7">
      <!-- 300 -->
      <defs>
       <path d="M 40.578125 39.3125 
Q 47.65625 37.796875 51.625 33 
Q 55.609375 28.21875 55.609375 21.1875 
Q 55.609375 10.40625 48.1875 4.484375 
Q 40.765625 -1.421875 27.09375 -1.421875 
Q 22.515625 -1.421875 17.65625 -0.515625 
Q 12.796875 0.390625 7.625 2.203125 
L 7.625 11.71875 
Q 11.71875 9.328125 16.59375 8.109375 
Q 21.484375 6.890625 26.8125 6.890625 
Q 36.078125 6.890625 40.9375 10.546875 
Q 45.796875 14.203125 45.796875 21.1875 
Q 45.796875 27.640625 41.28125 31.265625 
Q 36.765625 34.90625 28.71875 34.90625 
L 20.21875 34.90625 
L 20.21875 43.015625 
L 29.109375 43.015625 
Q 36.375 43.015625 40.234375 45.921875 
Q 44.09375 48.828125 44.09375 54.296875 
Q 44.09375 59.90625 40.109375 62.90625 
Q 36.140625 65.921875 28.71875 65.921875 
Q 24.65625 65.921875 20.015625 65.03125 
Q 15.375 64.15625 9.8125 62.3125 
L 9.8125 71.09375 
Q 15.4375 72.65625 20.34375 73.4375 
Q 25.25 74.21875 29.59375 74.21875 
Q 40.828125 74.21875 47.359375 69.109375 
Q 53.90625 64.015625 53.90625 55.328125 
Q 53.90625 49.265625 50.4375 45.09375 
Q 46.96875 40.921875 40.578125 39.3125 
z
" id="DejaVuSans-33"/>
      </defs>
      <g transform="translate(60.05625 216.344409)scale(0.05 -0.05)">
       <use xlink:href="#DejaVuSans-33"/>
       <use x="63.623047" xlink:href="#DejaVuSans-30"/>
       <use x="127.246094" xlink:href="#DejaVuSans-30"/>
      </g>
     </g>
    </g>
    <g id="ytick_4">
     <g id="line2d_106">
      <g>
       <use style="stroke:#000000;stroke-width:0.2;" x="57.6" xlink:href="#m5080a8a17a" y="187.8336"/>
      </g>
     </g>
     <g id="text_8">
      <!-- 400 -->
      <g transform="translate(60.05625 189.733209)scale(0.05 -0.05)">
       <use xlink:href="#DejaVuSans-34"/>
       <use x="63.623047" xlink:href="#DejaVuSans-30"/>
       <use x="127.246094" xlink:href="#DejaVuSans-30"/>
      </g>
     </g>
    </g>
    <g id="ytick_5">
     <g id="line2d_107">
      <g>
       <use style="stroke:#000000;stroke-width:0.2;" x="57.6" xlink:href="#m5080a8a17a" y="161.2224"/>
      </g>
     </g>
     <g id="text_9">
      <!-- 500 -->
      <defs>
       <path d="M 10.796875 72.90625 
L 49.515625 72.90625 
L 49.515625 64.59375 
L 19.828125 64.59375 
L 19.828125 46.734375 
Q 21.96875 47.46875 24.109375 47.828125 
Q 26.265625 48.1875 28.421875 48.1875 
Q 40.625 48.1875 47.75 41.5 
Q 54.890625 34.8125 54.890625 23.390625 
Q 54.890625 11.625 47.5625 5.09375 
Q 40.234375 -1.421875 26.90625 -1.421875 
Q 22.3125 -1.421875 17.546875 -0.640625 
Q 12.796875 0.140625 7.71875 1.703125 
L 7.71875 11.625 
Q 12.109375 9.234375 16.796875 8.0625 
Q 21.484375 6.890625 26.703125 6.890625 
Q 35.15625 6.890625 40.078125 11.328125 
Q 45.015625 15.765625 45.015625 23.390625 
Q 45.015625 31 40.078125 35.4375 
Q 35.15625 39.890625 26.703125 39.890625 
Q 22.75 39.890625 18.8125 39.015625 
Q 14.890625 38.140625 10.796875 36.28125 
z
" id="DejaVuSans-35"/>
      </defs>
      <g transform="translate(60.05625 163.122009)scale(0.05 -0.05)">
       <use xlink:href="#DejaVuSans-35"/>
       <use x="63.623047" xlink:href="#DejaVuSans-30"/>
       <use x="127.246094" xlink:href="#DejaVuSans-30"/>
      </g>
     </g>
    </g>
    <g id="ytick_6">
     <g id="line2d_108">
      <g>
       <use style="stroke:#000000;stroke-width:0.2;" x="57.6" xlink:href="#m5080a8a17a" y="134.6112"/>
      </g>
     </g>
     <g id="text_10">
      <!-- 600 -->
      <g transform="translate(60.05625 136.510809)scale(0.05 -0.05)">
       <use xlink:href="#DejaVuSans-36"/>
       <use x="63.623047" xlink:href="#DejaVuSans-30"/>
       <use x="127.246094" xlink:href="#DejaVuSans-30"/>
      </g>
     </g>
    </g>
    <g id="ytick_7">
     <g id="line2d_109">
      <g>
       <use style="stroke:#000000;stroke-width:0.2;" x="57.6" xlink:href="#m5080a8a17a" y="108"/>
      </g>
     </g>
     <g id="text_11">
      <!-- 700 -->
      <defs>
       <path d="M 8.203125 72.90625 
L 55.078125 72.90625 
L 55.078125 68.703125 
L 28.609375 0 
L 18.3125 0 
L 43.21875 64.59375 
L 8.203125 64.59375 
z
" id="DejaVuSans-37"/>
      </defs>
      <g transform="translate(60.05625 109.899609)scale(0.05 -0.05)">
       <use xlink:href="#DejaVuSans-37"/>
       <use x="63.623047" xlink:href="#DejaVuSans-30"/>
       <use x="127.246094" xlink:href="#DejaVuSans-30"/>
      </g>
     </g>
    </g>
    <g id="ytick_8">
     <g id="line2d_110">
      <g>
       <use style="stroke:#000000;stroke-width:0.2;" x="57.6" xlink:href="#m5080a8a17a" y="81.3888"/>
      </g>
     </g>
     <g id="text_12">
      <!-- 800 -->
      <g transform="translate(60.05625 83.288409)scale(0.05 -0.05)">
       <use xlink:href="#DejaVuSans-38"/>
       <use x="63.623047" xlink:href="#DejaVuSans-30"/>
       <use x="127.246094" xlink:href="#DejaVuSans-30"/>
      </g>
     </g>
    </g>
    <g id="ytick_9">
     <g id="line2d_111">
      <g>
       <use style="stroke:#000000;stroke-width:0.2;" x="57.6" xlink:href="#m5080a8a17a" y="54.7776"/>
      </g>
     </g>
     <g id="text_13">
      <!-- 900 -->
      <defs>
       <path d="M 10.984375 1.515625 
L 10.984375 10.5 
Q 14.703125 8.734375 18.5 7.8125 
Q 22.3125 6.890625 25.984375 6.890625 
Q 35.75 6.890625 40.890625 13.453125 
Q 46.046875 20.015625 46.78125 33.40625 
Q 43.953125 29.203125 39.59375 26.953125 
Q 35.25 24.703125 29.984375 24.703125 
Q 19.046875 24.703125 12.671875 31.3125 
Q 6.296875 37.9375 6.296875 49.421875 
Q 6.296875 60.640625 12.9375 67.421875 
Q 19.578125 74.21875 30.609375 74.21875 
Q 43.265625 74.21875 49.921875 64.515625 
Q 56.59375 54.828125 56.59375 36.375 
Q 56.59375 19.140625 48.40625 8.859375 
Q 40.234375 -1.421875 26.421875 -1.421875 
Q 22.703125 -1.421875 18.890625 -0.6875 
Q 15.09375 0.046875 10.984375 1.515625 
z
M 30.609375 32.421875 
Q 37.25 32.421875 41.125 36.953125 
Q 45.015625 41.5 45.015625 49.421875 
Q 45.015625 57.28125 41.125 61.84375 
Q 37.25 66.40625 30.609375 66.40625 
Q 23.96875 66.40625 20.09375 61.84375 
Q 16.21875 57.28125 16.21875 49.421875 
Q 16.21875 41.5 20.09375 36.953125 
Q 23.96875 32.421875 30.609375 32.421875 
z
" id="DejaVuSans-39"/>
      </defs>
      <g transform="translate(60.05625 56.677209)scale(0.05 -0.05)">
       <use xlink:href="#DejaVuSans-39"/>
       <use x="63.623047" xlink:href="#DejaVuSans-30"/>
       <use x="127.246094" xlink:href="#DejaVuSans-30"/>
      </g>
     </g>
    </g>
   </g>
   <g id="line2d_112">
    <path clip-path="url(#pffbece8fa8)" d="M 414.72 293.480064 
L 401.324583 294.277443 
L 401.324583 294.277443 
" style="fill:none;stroke:#0000ff;stroke-linecap:square;stroke-width:0.2;"/>
   </g>
   <g id="line2d_113">
    <path clip-path="url(#pffbece8fa8)" d="M 414.72 293.480064 
L 399.201812 294.276828 
L 399.201812 294.276828 
" style="fill:none;stroke:#0000ff;stroke-linecap:square;stroke-width:0.2;"/>
   </g>
   <g id="line2d_114">
    <path clip-path="url(#pffbece8fa8)" d="M 414.72 293.480064 
L 396.347051 294.277066 
L 396.347051 294.277066 
" style="fill:none;stroke:#0000ff;stroke-linecap:square;stroke-width:0.2;"/>
   </g>
   <g id="line2d_115">
    <path clip-path="url(#pffbece8fa8)" d="M 414.72 293.480064 
L 395.395464 294.153499 
L 392.394306 294.277998 
L 392.394306 294.277998 
" style="fill:none;stroke:#0000ff;stroke-linecap:square;stroke-width:0.2;"/>
   </g>
   <g id="line2d_116">
    <path clip-path="url(#pffbece8fa8)" d="M 414.72 293.480064 
L 395.395464 293.983189 
L 386.831182 294.277145 
L 386.831182 294.277145 
" style="fill:none;stroke:#0000ff;stroke-linecap:square;stroke-width:0.2;"/>
   </g>
   <g id="line2d_117">
    <path clip-path="url(#pffbece8fa8)" d="M 414.72 293.480064 
L 395.395464 293.812878 
L 378.742692 294.277722 
L 378.742692 294.277722 
" style="fill:none;stroke:#0000ff;stroke-linecap:square;stroke-width:0.2;"/>
   </g>
   <g id="line2d_118">
    <path clip-path="url(#pffbece8fa8)" d="M 414.72 293.480064 
L 395.395464 293.642567 
L 376.070929 294.027016 
L 367.21385 294.277401 
L 367.21385 294.277401 
" style="fill:none;stroke:#0000ff;stroke-linecap:square;stroke-width:0.2;"/>
   </g>
   <g id="line2d_119">
    <path clip-path="url(#pffbece8fa8)" d="M 414.72 293.480064 
L 395.395464 293.472256 
L 376.070929 293.686388 
L 356.746393 294.122467 
L 351.549265 294.27762 
L 351.549265 294.27762 
" style="fill:none;stroke:#0000ff;stroke-linecap:square;stroke-width:0.2;"/>
   </g>
   <g id="line2d_120">
    <path clip-path="url(#pffbece8fa8)" d="M 414.72 293.480064 
L 395.395464 293.301945 
L 376.070929 293.345759 
L 356.746393 293.611506 
L 337.421858 294.099199 
L 331.931933 294.278233 
L 331.931933 294.278233 
" style="fill:none;stroke:#0000ff;stroke-linecap:square;stroke-width:0.2;"/>
   </g>
   <g id="line2d_121">
    <path clip-path="url(#pffbece8fa8)" d="M 414.72 293.480064 
L 395.395464 293.131634 
L 376.070929 293.00513 
L 356.746393 293.100545 
L 337.421858 293.417884 
L 318.097322 293.95716 
L 309.276843 294.277081 
L 309.276843 294.277081 
" style="fill:none;stroke:#0000ff;stroke-linecap:square;stroke-width:0.2;"/>
   </g>
   <g id="line2d_122">
    <path clip-path="url(#pffbece8fa8)" d="M 414.72 293.480064 
L 395.395464 292.961324 
L 376.070929 292.664501 
L 356.746393 292.589584 
L 337.421858 292.736569 
L 318.097322 293.105462 
L 298.772787 293.696279 
L 284.462383 294.276832 
L 284.462383 294.276832 
" style="fill:none;stroke:#0000ff;stroke-linecap:square;stroke-width:0.2;"/>
   </g>
   <g id="line2d_123">
    <path clip-path="url(#pffbece8fa8)" d="M 414.72 293.480064 
L 395.358865 292.789918 
L 376.034329 292.323198 
L 356.709794 292.078368 
L 337.385258 292.05542 
L 318.060723 292.25435 
L 298.736187 292.675169 
L 279.411652 293.317894 
L 260.050517 294.184399 
L 258.220542 294.277824 
L 258.220542 294.277824 
" style="fill:none;stroke:#0000ff;stroke-linecap:square;stroke-width:0.2;"/>
   </g>
   <g id="line2d_124">
    <path clip-path="url(#pffbece8fa8)" d="M 414.72 293.480064 
L 395.358865 292.619285 
L 375.99773 291.98125 
L 356.636595 291.565934 
L 337.312059 291.373471 
L 317.987524 291.40286 
L 298.662988 291.6541 
L 279.338453 292.127204 
L 259.977318 292.823716 
L 240.616183 293.742982 
L 231.100313 294.276453 
L 231.100313 294.276453 
" style="fill:none;stroke:#0000ff;stroke-linecap:square;stroke-width:0.2;"/>
   </g>
   <g id="line2d_125">
    <path clip-path="url(#pffbece8fa8)" d="M 414.72 293.480064 
L 395.358865 292.448651 
L 375.99773 291.639976 
L 356.636595 291.054005 
L 337.27546 290.690711 
L 317.914325 290.550081 
L 298.589789 290.631743 
L 279.265254 290.935225 
L 259.904119 291.461744 
L 240.542984 292.21096 
L 230.404923 292.692116 
L 230.404923 292.692116 
" style="fill:none;stroke:#008000;stroke-linecap:square;stroke-width:0.2;"/>
   </g>
   <g id="line2d_126">
    <path clip-path="url(#pffbece8fa8)" d="M 414.72 293.480064 
L 395.358865 292.278018 
L 375.99773 291.298702 
L 356.636595 290.542075 
L 337.27546 290.008105 
L 317.914325 289.69677 
L 298.55319 289.608055 
L 279.192055 289.741958 
L 259.83092 290.098484 
L 240.469785 290.677648 
L 230.221925 291.074316 
L 230.221925 291.074316 
" style="fill:none;stroke:#008000;stroke-linecap:square;stroke-width:0.2;"/>
   </g>
   <g id="line2d_127">
    <path clip-path="url(#pffbece8fa8)" d="M 414.72 293.480064 
L 395.358865 292.107384 
L 375.99773 290.957428 
L 356.636595 290.030146 
L 337.27546 289.325499 
L 317.914325 288.843458 
L 298.55319 288.584002 
L 279.192055 288.54712 
L 259.83092 288.73281 
L 240.469785 289.14108 
L 230.038928 289.453303 
L 230.038928 289.453303 
" style="fill:none;stroke:#008000;stroke-linecap:square;stroke-width:0.2;"/>
   </g>
   <g id="line2d_128">
    <path clip-path="url(#pffbece8fa8)" d="M 414.72 293.480064 
L 395.358865 291.936751 
L 375.99773 290.616153 
L 356.636595 289.518216 
L 337.27546 288.642893 
L 317.914325 287.990146 
L 298.55319 287.559948 
L 279.192055 287.352281 
L 259.83092 287.367136 
L 240.469785 287.604513 
L 229.89253 287.828189 
L 229.89253 287.828189 
" style="fill:none;stroke:#008000;stroke-linecap:square;stroke-width:0.2;"/>
   </g>
   <g id="line2d_129">
    <path clip-path="url(#pffbece8fa8)" d="M 414.72 293.480064 
L 395.322265 291.763088 
L 375.96113 290.272271 
L 356.599995 289.0041 
L 337.23886 287.95852 
L 317.877725 287.135488 
L 298.51659 286.534969 
L 279.155455 286.156938 
L 259.79432 286.001377 
L 240.433185 286.068282 
L 229.782731 286.199934 
L 229.782731 286.199934 
" style="fill:none;stroke:#008000;stroke-linecap:square;stroke-width:0.2;"/>
   </g>
   <g id="line2d_130">
    <path clip-path="url(#pffbece8fa8)" d="M 414.72 293.480064 
L 395.322265 291.592132 
L 375.924531 289.927744 
L 356.563396 288.489338 
L 337.202261 287.273502 
L 317.841126 286.280186 
L 298.479991 285.509345 
L 279.118856 284.960949 
L 259.757721 284.634974 
L 240.396586 284.531405 
L 229.709532 284.5695 
L 229.709532 284.5695 
" style="fill:none;stroke:#008000;stroke-linecap:square;stroke-width:0.2;"/>
   </g>
   <g id="line2d_131">
    <path clip-path="url(#pffbece8fa8)" d="M 414.72 293.480064 
L 395.322265 291.421175 
L 375.924531 289.585824 
L 356.526796 287.973932 
L 337.165661 286.58784 
L 317.804526 285.424238 
L 298.443391 284.483076 
L 279.082256 283.764315 
L 259.721121 283.267924 
L 240.359986 282.993883 
L 229.636333 282.937776 
L 229.636333 282.937776 
" style="fill:none;stroke:#008000;stroke-linecap:square;stroke-width:0.2;"/>
   </g>
   <g id="line2d_132">
    <path clip-path="url(#pffbece8fa8)" d="M 414.72 293.480064 
L 395.322265 291.250219 
L 375.924531 289.243904 
L 356.526796 287.461034 
L 337.129062 285.901533 
L 317.767927 284.567645 
L 298.406792 283.456162 
L 279.045657 282.567036 
L 259.684522 281.90023 
L 240.323387 281.455715 
L 229.599734 281.305159 
L 229.599734 281.305159 
" style="fill:none;stroke:#008000;stroke-linecap:square;stroke-width:0.2;"/>
   </g>
   <g id="line2d_133">
    <path clip-path="url(#pffbece8fa8)" d="M 414.72 293.480064 
L 395.285666 291.074944 
L 375.887931 288.898087 
L 356.490197 286.944661 
L 337.092462 285.214581 
L 317.694728 283.707775 
L 298.296993 282.424179 
L 278.935858 281.365528 
L 259.574723 280.529146 
L 240.213588 279.914997 
L 229.526535 279.671177 
L 229.526535 279.671177 
" style="fill:none;stroke:#008000;stroke-linecap:square;stroke-width:0.2;"/>
   </g>
   <g id="line2d_134">
    <path clip-path="url(#pffbece8fa8)" d="M 414.72 293.480064 
L 395.285666 290.903665 
L 375.851332 288.551626 
L 356.453597 286.427643 
L 337.055863 284.526985 
L 317.658128 282.849571 
L 298.260394 281.39533 
L 278.862659 280.164201 
L 259.501524 279.157823 
L 240.140389 278.37362 
L 229.453336 278.035906 
L 229.453336 278.035906 
" style="fill:none;stroke:#008000;stroke-linecap:square;stroke-width:0.2;"/>
   </g>
   <g id="line2d_135">
    <path clip-path="url(#pffbece8fa8)" d="M 414.72 293.480064 
L 395.285666 290.732386 
L 375.851332 288.209061 
L 356.416998 285.90998 
L 337.019263 283.838743 
L 317.621529 281.990722 
L 298.223794 280.365837 
L 278.82606 278.96402 
L 259.428325 277.785211 
L 240.030591 276.82936 
L 229.380137 276.399344 
L 229.380137 276.399344 
" style="fill:none;stroke:#008000;stroke-linecap:square;stroke-width:0.2;"/>
   </g>
   <g id="line2d_136">
    <path clip-path="url(#pffbece8fa8)" d="M 414.72 293.480064 
L 395.249066 290.555821 
L 375.814732 287.861632 
L 356.380398 285.391673 
L 336.946064 283.145838 
L 317.54833 281.12763 
L 298.150595 279.332521 
L 278.752861 277.760437 
L 259.355126 276.41131 
L 239.957392 275.285082 
L 229.306938 274.761492 
L 229.306938 274.761492 
" style="fill:none;stroke:#008000;stroke-linecap:square;stroke-width:0.2;"/>
   </g>
   <g id="line2d_137">
    <path clip-path="url(#pffbece8fa8)" d="M 414.72 293.480064 
L 395.249066 290.38422 
L 375.778133 287.513559 
L 356.343799 284.872721 
L 336.909465 282.455985 
L 317.475131 280.263249 
L 298.040797 278.29442 
L 278.643062 276.552488 
L 259.245328 275.033463 
L 239.847593 273.737279 
L 229.233739 273.122351 
L 229.233739 273.122351 
" style="fill:none;stroke:#008000;stroke-linecap:square;stroke-width:0.2;"/>
   </g>
   <g id="line2d_138">
    <path clip-path="url(#pffbece8fa8)" d="M 414.72 293.480064 
L 395.249066 290.212618 
L 375.778133 287.170348 
L 356.307199 284.353124 
L 336.872865 281.765487 
L 317.438531 279.401821 
L 298.004197 277.262025 
L 278.569863 275.346006 
L 259.172129 273.656661 
L 239.774394 272.1901 
L 229.16054 271.481919 
L 229.16054 271.481919 
" style="fill:none;stroke:#008000;stroke-linecap:square;stroke-width:0.2;"/>
   </g>
   <g id="line2d_139">
    <path clip-path="url(#pffbece8fa8)" d="M 414.72 293.480064 
L 395.212467 290.034763 
L 375.741533 286.821307 
L 356.2706 283.832882 
L 336.799666 281.069361 
L 317.365332 278.535186 
L 297.930998 276.224844 
L 278.496664 274.138235 
L 259.06233 272.275272 
L 239.627996 270.635875 
L 229.087341 269.840197 
L 229.087341 269.840197 
" style="fill:none;stroke:#008000;stroke-linecap:square;stroke-width:0.2;"/>
   </g>
   <g id="line2d_140">
    <path clip-path="url(#pffbece8fa8)" d="M 414.72 293.480064 
L 395.212467 289.862839 
L 375.704934 286.471622 
L 356.234 283.311996 
L 336.763067 280.377251 
L 317.292133 277.667262 
L 297.8212 275.181913 
L 278.386866 272.925136 
L 258.952532 270.891952 
L 239.518198 269.082275 
L 228.977542 268.194215 
L 228.977542 268.194215 
" style="fill:none;stroke:#008000;stroke-linecap:square;stroke-width:0.2;"/>
   </g>
   <g id="line2d_141">
    <path clip-path="url(#pffbece8fa8)" d="M 414.72 293.480064 
L 395.175867 289.684017 
L 375.668334 286.121292 
L 356.160801 282.784416 
L 336.653268 279.673245 
L 317.182335 276.792847 
L 297.711401 274.137052 
L 278.240468 271.705745 
L 258.806134 269.502761 
L 239.3718 267.523225 
L 222.023637 265.94487 
L 222.023637 265.94487 
" style="fill:none;stroke:#008000;stroke-linecap:square;stroke-width:0.2;"/>
   </g>
   <g id="line2d_142">
    <path clip-path="url(#pffbece8fa8)" d="M 414.72 293.480064 
L 395.175867 289.51177 
L 375.631735 285.770318 
L 356.124202 282.261918 
L 336.616669 278.979201 
L 317.109136 275.922026 
L 297.638202 273.095363 
L 278.167269 270.493144 
L 258.696335 268.115257 
L 239.262001 265.96544 
L 221.80404 264.224641 
L 221.80404 264.224641 
" style="fill:none;stroke:#008000;stroke-linecap:square;stroke-width:0.2;"/>
   </g>
   <g id="line2d_143">
    <path clip-path="url(#pffbece8fa8)" d="M 414.72 293.480064 
L 395.139268 289.331981 
L 375.595135 285.418699 
L 356.051003 281.732084 
L 336.54347 278.278245 
L 317.035937 275.049917 
L 297.528404 272.046962 
L 278.05747 269.274251 
L 258.586537 266.725822 
L 239.115603 264.401564 
L 221.438045 262.485451 
L 221.438045 262.485451 
" style="fill:none;stroke:#008000;stroke-linecap:square;stroke-width:0.2;"/>
   </g>
   <g id="line2d_144">
    <path clip-path="url(#pffbece8fa8)" d="M 414.72 293.480064 
L 395.139268 289.159411 
L 375.558536 285.066436 
L 356.014403 281.207975 
L 336.470271 277.576 
L 316.962738 274.176519 
L 297.455205 271.002374 
L 277.947672 268.053428 
L 258.476738 265.334454 
L 239.005805 262.839594 
L 221.145249 260.748059 
L 221.145249 260.748059 
" style="fill:none;stroke:#008000;stroke-linecap:square;stroke-width:0.2;"/>
   </g>
   <g id="line2d_145">
    <path clip-path="url(#pffbece8fa8)" d="M 414.72 293.480064 
L 395.102668 288.978655 
L 375.521936 284.713528 
L 355.941204 280.675887 
L 336.397072 276.872467 
L 316.852939 273.295346 
L 297.308807 269.944369 
L 277.801274 266.825032 
L 258.293741 263.930715 
L 238.786208 261.261295 
L 220.925652 259.014366 
L 220.925652 259.014366 
" style="fill:none;stroke:#008000;stroke-linecap:square;stroke-width:0.2;"/>
   </g>
   <g id="line2d_146">
    <path clip-path="url(#pffbece8fa8)" d="M 414.72 293.480064 
L 395.102668 288.805762 
L 375.485337 284.359975 
L 355.904605 280.150166 
L 336.323873 276.167646 
L 316.77974 272.41905 
L 297.235608 268.896561 
L 277.691475 265.600026 
L 258.183942 262.534844 
L 238.676409 259.694497 
L 220.742655 257.281552 
L 220.742655 257.281552 
" style="fill:none;stroke:#008000;stroke-linecap:square;stroke-width:0.2;"/>
   </g>
   <g id="line2d_147">
    <path clip-path="url(#pffbece8fa8)" d="M 414.72 293.480064 
L 395.066069 288.624039 
L 375.448737 284.005778 
L 355.831406 279.615823 
L 336.250674 275.461538 
L 316.669942 271.534338 
L 297.125809 267.840759 
L 277.581677 264.373089 
L 258.037544 261.13118 
L 238.530011 258.120328 
L 220.486458 255.535425 
L 220.486458 255.535425 
" style="fill:none;stroke:#008000;stroke-linecap:square;stroke-width:0.2;"/>
   </g>
   <g id="line2d_148">
    <path clip-path="url(#pffbece8fa8)" d="M 414.72 293.480064 
L 395.066069 288.450823 
L 375.412138 283.650936 
L 355.794806 279.088491 
L 336.177475 274.754141 
L 316.596743 270.655144 
L 297.016011 266.783026 
L 277.435279 263.137619 
L 257.891146 259.724944 
L 238.347014 256.537828 
L 219.974065 253.747269 
L 219.974065 253.747269 
" style="fill:none;stroke:#008000;stroke-linecap:square;stroke-width:0.2;"/>
   </g>
   <g id="line2d_149">
    <path clip-path="url(#pffbece8fa8)" d="M 414.72 293.480064 
L 395.029469 288.268133 
L 375.375538 283.295449 
L 355.721607 278.551894 
L 336.104276 274.045456 
L 316.486944 269.766892 
L 296.906212 265.723363 
L 277.32548 261.906499 
L 257.744748 258.316135 
L 238.200616 254.958193 
L 218.656483 251.825606 
L 216.75331 251.532595 
L 216.75331 251.532595 
" style="fill:none;stroke:#008000;stroke-linecap:square;stroke-width:0.2;"/>
   </g>
   <g id="line2d_150">
    <path clip-path="url(#pffbece8fa8)" d="M 414.72 293.480064 
L 395.029469 288.094594 
L 375.338939 282.939317 
L 355.685008 278.02295 
L 336.031077 273.335483 
L 316.413745 268.884801 
L 296.796414 264.66177 
L 277.179082 260.666206 
L 257.59835 256.904754 
L 238.017618 253.369587 
L 218.473486 250.066526 
L 216.423914 249.733183 
L 216.423914 249.733183 
" style="fill:none;stroke:#008000;stroke-linecap:square;stroke-width:0.2;"/>
   </g>
   <g id="line2d_151">
    <path clip-path="url(#pffbece8fa8)" d="M 414.72 293.480064 
L 394.99287 287.910937 
L 375.26574 282.572851 
L 355.575209 277.474836 
L 335.921278 272.615385 
L 316.267347 267.984598 
L 296.613416 263.582273 
L 276.996085 259.415779 
L 257.378753 255.476525 
L 237.798021 251.771054 
L 218.217289 248.291646 
L 216.204317 247.946758 
L 216.204317 247.946758 
" style="fill:none;stroke:#008000;stroke-linecap:square;stroke-width:0.2;"/>
   </g>
   <g id="line2d_152">
    <path clip-path="url(#pffbece8fa8)" d="M 414.72 293.480064 
L 394.956271 287.726635 
L 375.229141 282.215109 
L 355.502011 276.934375 
L 335.81148 271.893358 
L 316.120949 267.081825 
L 296.467018 262.507872 
L 276.813087 258.162142 
L 257.195756 254.051902 
L 237.578424 250.16867 
L 217.997692 246.518888 
L 216.02132 246.163049 
L 216.02132 246.163049 
" style="fill:none;stroke:#008000;stroke-linecap:square;stroke-width:0.2;"/>
   </g>
   <g id="line2d_153">
    <path clip-path="url(#pffbece8fa8)" d="M 414.72 293.480064 
L 394.956271 287.55245 
L 375.192541 281.856722 
L 355.465411 276.402531 
L 335.738281 271.178878 
L 316.047751 266.194584 
L 296.35722 261.439525 
L 276.703289 256.921694 
L 257.049358 252.631844 
L 237.432026 248.577141 
L 217.814695 244.749207 
L 215.838322 244.376125 
L 215.838322 244.376125 
" style="fill:none;stroke:#008000;stroke-linecap:square;stroke-width:0.2;"/>
   </g>
   <g id="line2d_154">
    <path clip-path="url(#pffbece8fa8)" d="M 414.72 293.480064 
L 394.919671 287.367181 
L 375.155942 281.49769 
L 355.392212 275.859816 
L 335.665082 270.463111 
L 315.937952 265.296682 
L 296.247422 260.369248 
L 276.556891 255.670795 
L 256.90296 251.209214 
L 237.249029 246.975365 
L 217.631697 242.976313 
L 215.655325 242.585987 
L 215.655325 242.585987 
" style="fill:none;stroke:#008000;stroke-linecap:square;stroke-width:0.2;"/>
   </g>
   <g id="line2d_155">
    <path clip-path="url(#pffbece8fa8)" d="M 414.72 293.480064 
L 394.883072 287.181268 
L 375.082743 281.127037 
L 355.282414 275.305266 
L 335.518684 269.725817 
L 315.791554 264.387157 
L 296.064424 259.278508 
L 276.373894 254.408484 
L 256.683363 249.76718 
L 237.029432 245.362385 
L 217.375501 241.185068 
L 215.472327 240.792634 
L 215.472327 240.792634 
" style="fill:none;stroke:#008000;stroke-linecap:square;stroke-width:0.2;"/>
   </g>
   <g id="line2d_156">
    <path clip-path="url(#pffbece8fa8)" d="M 414.72 293.480064 
L 394.883072 287.006437 
L 375.046143 280.766393 
L 355.245814 274.770522 
L 335.445485 269.00683 
L 315.681756 263.485075 
L 295.918026 258.194143 
L 276.190896 253.142962 
L 256.463766 248.321297 
L 236.773236 243.737246 
L 217.082705 239.38145 
L 215.362529 239.01176 
L 215.362529 239.01176 
" style="fill:none;stroke:#008000;stroke-linecap:square;stroke-width:0.2;"/>
   </g>
   <g id="line2d_157">
    <path clip-path="url(#pffbece8fa8)" d="M 414.72 293.480064 
L 394.846472 286.819557 
L 374.972944 280.393486 
L 355.136016 274.212754 
L 335.335687 268.275796 
L 315.535358 262.57073 
L 295.771628 257.107208 
L 276.007899 251.87423 
L 256.280769 246.880617 
L 236.553639 242.116246 
L 216.863108 237.589113 
L 215.216131 237.220784 
L 215.216131 237.220784 
" style="fill:none;stroke:#008000;stroke-linecap:square;stroke-width:0.2;"/>
   </g>
   <g id="line2d_158">
    <path clip-path="url(#pffbece8fa8)" d="M 414.72 293.480064 
L 394.809873 286.632031 
L 374.936345 280.031231 
L 355.062817 273.664566 
L 335.225888 267.542831 
L 315.425559 261.664466 
L 295.62523 256.017701 
L 275.861501 250.612084 
L 256.097771 245.436725 
L 236.370641 240.500342 
L 216.643511 235.792923 
L 215.106332 235.43572 
L 215.106332 235.43572 
" style="fill:none;stroke:#008000;stroke-linecap:square;stroke-width:0.2;"/>
   </g>
   <g id="line2d_159">
    <path clip-path="url(#pffbece8fa8)" d="M 414.72 293.480064 
L 394.773273 286.443861 
L 374.863146 279.65607 
L 354.989618 273.115091 
L 335.11609 266.807938 
L 315.279161 260.745301 
L 295.442233 254.915081 
L 275.641904 249.327134 
L 255.841575 243.970242 
L 236.077845 238.853432 
L 216.350715 233.975202 
L 214.996534 233.648723 
L 214.996534 233.648723 
" style="fill:none;stroke:#008000;stroke-linecap:square;stroke-width:0.2;"/>
   </g>
   <g id="line2d_160">
    <path clip-path="url(#pffbece8fa8)" d="M 414.72 293.480064 
L 394.773273 286.268062 
L 374.826546 279.292204 
L 354.916419 272.564327 
L 335.006291 266.071114 
L 315.132763 259.823565 
L 295.295835 253.820112 
L 275.458906 248.04877 
L 255.658577 242.519288 
L 235.858248 237.220562 
L 216.094519 232.161513 
L 214.886735 231.859791 
L 214.886735 231.859791 
" style="fill:none;stroke:#008000;stroke-linecap:square;stroke-width:0.2;"/>
   </g>
   <g id="line2d_161">
    <path clip-path="url(#pffbece8fa8)" d="M 414.72 293.480064 
L 394.736674 286.078925 
L 374.753347 278.914789 
L 354.80662 271.999803 
L 334.896493 265.33236 
L 314.986365 258.899259 
L 295.112837 252.711391 
L 275.275909 246.767195 
L 255.43898 241.054796 
L 235.638651 235.583841 
L 215.838322 230.343336 
L 214.776937 230.068924 
L 214.776937 230.068924 
" style="fill:none;stroke:#008000;stroke-linecap:square;stroke-width:0.2;"/>
   </g>
   <g id="line2d_162">
    <path clip-path="url(#pffbece8fa8)" d="M 414.72 293.480064 
L 394.700074 285.889143 
L 374.716748 278.549311 
L 354.733421 271.446142 
L 334.786694 264.591677 
L 314.876567 257.984313 
L 294.966439 251.610961 
L 275.092911 245.48241 
L 255.219383 239.586455 
L 235.382455 233.933051 
L 215.582126 228.520669 
L 214.667138 228.276124 
L 214.667138 228.276124 
" style="fill:none;stroke:#008000;stroke-linecap:square;stroke-width:0.2;"/>
   </g>
   <g id="line2d_163">
    <path clip-path="url(#pffbece8fa8)" d="M 414.72 293.480064 
L 394.663475 285.698717 
L 374.643549 278.169642 
L 354.660222 270.891194 
L 334.676896 263.849064 
L 314.730169 257.055186 
L 294.783442 250.49614 
L 274.873314 244.183022 
L 254.999786 238.114264 
L 235.126258 232.277774 
L 215.28933 226.683404 
L 214.55734 226.481388 
L 214.55734 226.481388 
" style="fill:none;stroke:#008000;stroke-linecap:square;stroke-width:0.2;"/>
   </g>
   <g id="line2d_164">
    <path clip-path="url(#pffbece8fa8)" d="M 414.72 293.480064 
L 394.626875 285.507646 
L 374.57035 277.788684 
L 354.550424 270.321522 
L 334.530498 263.09152 
L 314.547171 256.110919 
L 294.600444 249.378109 
L 274.653717 242.879787 
L 254.74359 236.626943 
L 234.870062 230.61801 
L 214.996534 224.841014 
L 214.447541 224.684719 
L 214.447541 224.684719 
" style="fill:none;stroke:#008000;stroke-linecap:square;stroke-width:0.2;"/>
   </g>
   <g id="line2d_165">
    <path clip-path="url(#pffbece8fa8)" d="M 414.72 293.480064 
L 394.590276 285.31593 
L 374.497151 277.406439 
L 354.440625 269.749922 
L 334.420699 262.344727 
L 314.400773 255.176331 
L 294.417447 248.256868 
L 274.47072 241.584731 
L 254.523993 235.146734 
L 234.613865 228.953759 
L 214.703738 222.993501 
L 214.374342 222.896849 
L 214.374342 222.896849 
" style="fill:none;stroke:#008000;stroke-linecap:square;stroke-width:0.2;"/>
   </g>
   <g id="line2d_166">
    <path clip-path="url(#pffbece8fa8)" d="M 414.72 293.480064 
L 394.590276 285.138517 
L 374.460551 277.037417 
L 354.367426 269.190467 
L 334.310901 261.596004 
L 314.254375 254.239174 
L 294.234449 247.132417 
L 274.251123 240.274118 
L 254.267796 233.65076 
L 234.321069 227.273532 
L 214.410942 221.140863 
L 214.301143 221.107688 
L 214.301143 221.107688 
" style="fill:none;stroke:#008000;stroke-linecap:square;stroke-width:0.2;"/>
   </g>
   <g id="line2d_167">
    <path clip-path="url(#pffbece8fa8)" d="M 414.72 293.480064 
L 394.553676 284.945834 
L 374.387352 276.652917 
L 354.257628 268.615328 
L 334.164503 260.83139 
L 314.107977 253.299445 
L 294.051452 246.004756 
L 274.031526 238.959657 
L 254.048199 232.162534 
L 234.064873 225.599988 
L 214.191345 219.305856 
L 214.191345 219.305856 
" style="fill:none;stroke:#008000;stroke-linecap:square;stroke-width:0.2;"/>
   </g>
   <g id="line2d_168">
    <path clip-path="url(#pffbece8fa8)" d="M 414.72 293.480064 
L 394.517077 284.752507 
L 374.350753 276.282284 
L 354.184429 268.052976 
L 334.054704 260.078487 
L 313.961579 252.357146 
L 293.868454 244.873886 
L 273.811929 237.641347 
L 253.792003 230.657906 
L 233.772077 223.909835 
L 214.044947 217.490391 
L 214.044947 217.490391 
" style="fill:none;stroke:#008000;stroke-linecap:square;stroke-width:0.2;"/>
   </g>
   <g id="line2d_169">
    <path clip-path="url(#pffbece8fa8)" d="M 414.72 293.480064 
L 394.480477 284.558534 
L 374.277554 275.89553 
L 354.07463 267.474298 
L 333.908306 259.309053 
L 313.778582 251.39811 
L 293.685457 243.739805 
L 273.592332 236.319189 
L 253.535806 229.148792 
L 233.51588 222.226997 
L 213.898549 215.672349 
L 213.898549 215.672349 
" style="fill:none;stroke:#008000;stroke-linecap:square;stroke-width:0.2;"/>
   </g>
   <g id="line2d_170">
    <path clip-path="url(#pffbece8fa8)" d="M 414.72 293.480064 
L 394.443878 284.363918 
L 374.204355 275.507488 
L 354.001431 266.909049 
L 333.798508 258.55197 
L 313.632184 250.450351 
L 293.502459 242.602515 
L 273.372735 234.993182 
L 253.27961 227.635193 
L 233.223084 220.526916 
L 213.752151 213.851732 
L 213.752151 213.851732 
" style="fill:none;stroke:#008000;stroke-linecap:square;stroke-width:0.2;"/>
   </g>
   <g id="line2d_171">
    <path clip-path="url(#pffbece8fa8)" d="M 414.72 293.480064 
L 394.407278 284.168656 
L 374.131156 275.118159 
L 353.891633 266.326833 
L 333.65211 257.777715 
L 313.449186 249.485215 
L 293.282862 241.447643 
L 273.153138 233.663327 
L 253.023413 226.117107 
L 232.930288 218.821712 
L 213.605753 212.028538 
L 213.605753 212.028538 
" style="fill:none;stroke:#008000;stroke-linecap:square;stroke-width:0.2;"/>
   </g>
   <g id="line2d_172">
    <path clip-path="url(#pffbece8fa8)" d="M 414.72 293.480064 
L 394.370679 283.97275 
L 374.057957 274.727542 
L 353.781834 265.742687 
L 333.505712 257.000891 
L 313.266189 248.516871 
L 293.063265 240.288925 
L 272.896941 232.315369 
L 252.730617 224.580714 
L 232.600893 217.097997 
L 213.312957 210.150859 
L 213.312957 210.150859 
" style="fill:none;stroke:#008000;stroke-linecap:square;stroke-width:0.2;"/>
   </g>
   <g id="line2d_173">
    <path clip-path="url(#pffbece8fa8)" d="M 414.72 293.480064 
L 394.334079 283.776199 
L 373.984758 274.335637 
L 353.672036 265.156612 
L 333.395913 256.237377 
L 313.119791 247.56076 
L 292.880268 239.141366 
L 272.677344 230.977499 
L 252.474421 223.053339 
L 232.308097 215.382231 
L 212.178372 207.962525 
L 205.956457 205.717111 
L 205.956457 205.717111 
" style="fill:none;stroke:#008000;stroke-linecap:square;stroke-width:0.2;"/>
   </g>
   <g id="line2d_174">
    <path clip-path="url(#pffbece8fa8)" d="M 414.72 293.480064 
L 394.29748 283.579004 
L 373.911559 273.942444 
L 353.562237 264.568607 
L 333.249515 255.455732 
L 312.936793 246.586316 
L 292.660671 237.975272 
L 272.421148 229.620889 
L 252.218224 221.521478 
L 232.015301 213.661342 
L 211.848977 206.053712 
L 205.151268 203.57964 
L 205.151268 203.57964 
" style="fill:none;stroke:#008000;stroke-linecap:square;stroke-width:0.2;"/>
   </g>
   <g id="line2d_175">
    <path clip-path="url(#pffbece8fa8)" d="M 414.72 293.480064 
L 394.26088 283.381164 
L 373.83836 273.547964 
L 353.452439 263.978673 
L 333.103117 254.671517 
L 312.753796 245.608663 
L 292.441074 236.80533 
L 272.164951 228.259796 
L 251.925428 219.970358 
L 231.685905 211.920992 
L 211.482982 204.125233 
L 204.785273 201.593423 
L 204.785273 201.593423 
" style="fill:none;stroke:#008000;stroke-linecap:square;stroke-width:0.2;"/>
   </g>
   <g id="line2d_176">
    <path clip-path="url(#pffbece8fa8)" d="M 414.72 293.480064 
L 394.224281 283.182679 
L 373.765161 273.152196 
L 353.34264 263.386809 
L 332.956719 253.884733 
L 312.570798 244.627801 
L 292.221477 235.63154 
L 271.908755 226.894218 
L 251.632632 218.414117 
L 231.35651 210.174885 
L 211.116987 202.190364 
L 204.053283 199.460063 
L 204.053283 199.460063 
" style="fill:none;stroke:#008000;stroke-linecap:square;stroke-width:0.2;"/>
   </g>
   <g id="line2d_177">
    <path clip-path="url(#pffbece8fa8)" d="M 414.72 293.480064 
L 394.187681 282.98355 
L 373.691962 272.75514 
L 353.232842 262.793015 
L 332.810321 253.095378 
L 312.387801 243.643729 
L 292.00188 234.453904 
L 271.652558 225.524155 
L 251.339836 216.852755 
L 231.027114 208.423022 
L 210.750992 200.249104 
L 202.8089 197.112851 
L 202.8089 197.112851 
" style="fill:none;stroke:#008000;stroke-linecap:square;stroke-width:0.2;"/>
   </g>
   <g id="line2d_178">
    <path clip-path="url(#pffbece8fa8)" d="M 414.72 293.480064 
L 394.151082 282.783776 
L 373.618763 272.356796 
L 353.123043 262.197292 
L 332.663923 252.303453 
L 312.204803 242.656448 
L 291.782283 233.27242 
L 271.396362 224.149608 
L 251.04704 215.286272 
L 230.734318 206.680691 
L 210.421596 198.316307 
L 202.625903 195.170157 
L 202.625903 195.170157 
" style="fill:none;stroke:#008000;stroke-linecap:square;stroke-width:0.2;"/>
   </g>
   <g id="line2d_179">
    <path clip-path="url(#pffbece8fa8)" d="M 414.72 293.480064 
L 394.114482 282.583357 
L 373.545564 271.957164 
L 353.013245 261.59964 
L 332.517525 251.508958 
L 312.021806 241.665958 
L 291.562686 232.087088 
L 271.140165 222.770576 
L 250.754244 213.714668 
L 230.404923 204.917632 
L 210.055601 196.362581 
L 202.516104 193.254261 
L 202.516104 193.254261 
" style="fill:none;stroke:#008000;stroke-linecap:square;stroke-width:0.2;"/>
   </g>
   <g id="line2d_180">
    <path clip-path="url(#pffbece8fa8)" d="M 414.72 293.480064 
L 394.077883 282.382293 
L 373.472365 271.556244 
L 352.903446 261.000057 
L 332.371127 250.711893 
L 311.838808 240.672258 
L 291.343089 230.897909 
L 270.883969 221.387059 
L 250.461448 212.137944 
L 230.075527 203.148816 
L 209.689606 194.402463 
L 202.369706 191.3211 
L 202.369706 191.3211 
" style="fill:none;stroke:#008000;stroke-linecap:square;stroke-width:0.2;"/>
   </g>
   <g id="line2d_181">
    <path clip-path="url(#pffbece8fa8)" d="M 414.72 293.480064 
L 394.041283 282.180585 
L 373.399166 271.154037 
L 352.793648 260.398545 
L 332.224729 249.912258 
L 311.655811 239.675349 
L 291.123492 229.704882 
L 270.627772 219.999057 
L 250.168652 210.556098 
L 229.746132 201.374244 
L 209.323611 192.435955 
L 202.259908 189.40101 
L 202.259908 189.40101 
" style="fill:none;stroke:#008000;stroke-linecap:square;stroke-width:0.2;"/>
   </g>
   <g id="line2d_182">
    <path clip-path="url(#pffbece8fa8)" d="M 414.72 293.480064 
L 394.004684 281.978232 
L 373.325967 270.750541 
L 352.683849 259.795104 
L 332.078331 249.110053 
L 311.472813 238.67523 
L 290.903895 228.508007 
L 270.371576 218.606571 
L 249.875856 208.969131 
L 229.416736 199.593915 
L 208.957616 190.463055 
L 202.186709 187.494956 
L 202.186709 187.494956 
" style="fill:none;stroke:#008000;stroke-linecap:square;stroke-width:0.2;"/>
   </g>
   <g id="line2d_183">
    <path clip-path="url(#pffbece8fa8)" d="M 414.72 293.480064 
L 393.968084 281.775235 
L 373.252768 270.345758 
L 352.574051 259.189732 
L 331.931933 248.305277 
L 311.289816 237.671902 
L 290.684298 227.307284 
L 270.115379 217.209599 
L 249.58306 207.377043 
L 229.087341 197.80783 
L 208.591621 188.483763 
L 202.07691 185.571315 
L 202.07691 185.571315 
" style="fill:none;stroke:#008000;stroke-linecap:square;stroke-width:0.2;"/>
   </g>
   <g id="line2d_184">
    <path clip-path="url(#pffbece8fa8)" d="M 414.72 293.480064 
L 393.931485 281.571593 
L 373.179569 269.939687 
L 352.464252 258.582431 
L 331.748936 247.478536 
L 311.070219 236.646415 
L 290.428101 226.084208 
L 269.822583 215.790079 
L 249.253665 205.76221 
L 228.721346 195.998803 
L 208.189027 186.481333 
L 201.930512 183.629125 
L 201.930512 183.629125 
" style="fill:none;stroke:#008000;stroke-linecap:square;stroke-width:0.2;"/>
   </g>
   <g id="line2d_185">
    <path clip-path="url(#pffbece8fa8)" d="M 414.72 293.480064 
L 393.894885 281.367306 
L 373.10637 269.532327 
L 352.354454 257.9732 
L 331.602538 246.6683 
L 310.887221 235.636348 
L 290.208504 224.875472 
L 269.566387 214.38382 
L 248.960869 204.159562 
L 228.39195 194.200887 
L 207.823032 184.488942 
L 201.747515 181.667424 
L 201.747515 181.667424 
" style="fill:none;stroke:#008000;stroke-linecap:square;stroke-width:0.2;"/>
   </g>
   <g id="line2d_186">
    <path clip-path="url(#pffbece8fa8)" d="M 414.72 293.480064 
L 393.858286 281.162374 
L 373.033171 269.12368 
L 352.208056 257.341557 
L 331.41954 245.835461 
L 310.667624 234.603486 
L 289.952308 223.643746 
L 269.273591 212.954377 
L 248.631473 202.533536 
L 227.989356 192.361582 
L 207.383838 182.455406 
L 201.527918 179.685253 
L 201.527918 179.685253 
" style="fill:none;stroke:#008000;stroke-linecap:square;stroke-width:0.2;"/>
   </g>
   <g id="line2d_187">
    <path clip-path="url(#pffbece8fa8)" d="M 414.72 293.480064 
L 393.821686 280.956798 
L 372.923372 268.692492 
L 352.061658 256.707345 
L 331.236543 244.999413 
L 310.448027 233.566776 
L 289.696111 222.407537 
L 268.980795 211.519815 
L 248.302078 200.901755 
L 227.623361 190.533389 
L 206.981243 180.431909 
L 201.38152 177.734369 
L 201.38152 177.734369 
" style="fill:none;stroke:#008000;stroke-linecap:square;stroke-width:0.2;"/>
   </g>
   <g id="line2d_188">
    <path clip-path="url(#pffbece8fa8)" d="M 414.72 293.480064 
L 393.748487 280.72855 
L 372.813574 268.259375 
L 351.91526 256.070563 
L 331.053545 244.160156 
L 310.22843 232.526221 
L 289.439915 221.166844 
L 268.687999 210.080134 
L 247.936083 199.245333 
L 227.220766 188.680361 
L 206.542049 178.383384 
L 201.235122 175.780906 
L 201.235122 175.780906 
" style="fill:none;stroke:#008000;stroke-linecap:square;stroke-width:0.2;"/>
   </g>
   <g id="line2d_189">
    <path clip-path="url(#pffbece8fa8)" d="M 414.72 293.480064 
L 393.711888 280.521362 
L 372.740375 267.846222 
L 351.805461 255.452652 
L 330.907147 243.33868 
L 310.045433 231.502359 
L 289.220318 219.941761 
L 268.431802 208.654981 
L 247.643287 197.62093 
L 226.891371 186.857835 
L 206.176054 176.363847 
L 201.088724 173.824865 
L 201.088724 173.824865 
" style="fill:none;stroke:#008000;stroke-linecap:square;stroke-width:0.2;"/>
   </g>
   <g id="line2d_190">
    <path clip-path="url(#pffbece8fa8)" d="M 414.72 293.480064 
L 393.675288 280.31353 
L 372.667176 267.431781 
L 351.695663 254.832811 
L 330.760749 242.514633 
L 309.862435 230.475287 
L 289.000721 218.71283 
L 268.139006 207.205377 
L 247.313891 195.971886 
L 226.525376 185.010474 
L 205.77346 174.319281 
L 200.942326 171.866246 
L 200.942326 171.866246 
" style="fill:none;stroke:#008000;stroke-linecap:square;stroke-width:0.2;"/>
   </g>
   <g id="line2d_191">
    <path clip-path="url(#pffbece8fa8)" d="M 414.72 293.480064 
L 393.638689 280.105052 
L 372.593977 267.016052 
L 351.585864 254.21104 
L 330.614351 241.688016 
L 309.679438 229.445005 
L 288.744524 217.45932 
L 267.84621 205.750653 
L 246.984496 194.317086 
L 226.159381 183.156724 
L 205.370865 172.267692 
L 200.795928 169.905049 
L 200.795928 169.905049 
" style="fill:none;stroke:#008000;stroke-linecap:square;stroke-width:0.2;"/>
   </g>
   <g id="line2d_192">
    <path clip-path="url(#pffbece8fa8)" d="M 414.72 293.480064 
L 393.602089 279.89593 
L 372.520778 266.599034 
L 351.476066 253.587339 
L 330.467953 240.858829 
L 309.459841 228.390016 
L 288.488328 216.201327 
L 267.553414 204.290809 
L 246.6551 192.656531 
L 225.793386 181.296584 
L 204.968271 170.20908 
L 200.64953 167.941273 
L 200.64953 167.941273 
" style="fill:none;stroke:#008000;stroke-linecap:square;stroke-width:0.2;"/>
   </g>
   <g id="line2d_193">
    <path clip-path="url(#pffbece8fa8)" d="M 414.72 293.480064 
L 393.56549 279.686164 
L 372.447579 266.180729 
L 351.329668 252.938986 
L 330.248356 239.982536 
L 309.203644 227.309366 
L 288.195532 214.917486 
L 267.224019 202.804931 
L 246.289105 190.969753 
L 225.390791 179.410032 
L 204.529077 168.123865 
L 200.503132 165.974919 
L 200.503132 165.974919 
" style="fill:none;stroke:#008000;stroke-linecap:square;stroke-width:0.2;"/>
   </g>
   <g id="line2d_194">
    <path clip-path="url(#pffbece8fa8)" d="M 414.72 293.480064 
L 393.492291 279.451795 
L 372.301181 265.71414 
L 351.14667 252.265024 
L 330.028759 239.102397 
L 308.947448 226.224233 
L 287.902736 213.628528 
L 266.894623 201.313299 
L 245.92311 189.276589 
L 224.988197 177.51646 
L 204.053283 166.011105 
L 200.393333 164.025801 
L 200.393333 164.025801 
" style="fill:none;stroke:#008000;stroke-linecap:square;stroke-width:0.2;"/>
   </g>
   <g id="line2d_195">
    <path clip-path="url(#pffbece8fa8)" d="M 414.72 293.480064 
L 393.455691 279.240417 
L 372.227982 265.292616 
L 351.036872 251.634572 
L 329.882361 238.264219 
L 308.76445 225.179517 
L 287.683139 212.378445 
L 266.638427 199.859009 
L 245.630314 187.619235 
L 224.622202 175.63652 
L 203.650689 163.930477 
L 200.210336 162.034476 
L 200.210336 162.034476 
" style="fill:none;stroke:#008000;stroke-linecap:square;stroke-width:0.2;"/>
   </g>
   <g id="line2d_196">
    <path clip-path="url(#pffbece8fa8)" d="M 414.72 293.480064 
L 393.419092 279.028394 
L 372.154783 264.869804 
L 350.927073 251.00219 
L 329.735963 237.423471 
L 308.581453 224.13159 
L 287.463542 211.124515 
L 266.345631 198.378368 
L 245.264319 185.913927 
L 224.219607 173.729222 
L 203.211495 161.822303 
L 200.063938 160.060387 
L 200.063938 160.060387 
" style="fill:none;stroke:#008000;stroke-linecap:square;stroke-width:0.2;"/>
   </g>
   <g id="line2d_197">
    <path clip-path="url(#pffbece8fa8)" d="M 414.72 293.480064 
L 393.382492 278.815726 
L 372.081584 264.445704 
L 350.817275 250.367878 
L 329.589565 236.580152 
L 308.398455 223.080454 
L 287.207345 209.844101 
L 266.052835 196.892607 
L 244.934924 184.223963 
L 223.853612 171.836186 
L 202.8089 159.727312 
L 199.91754 158.083718 
L 199.91754 158.083718 
" style="fill:none;stroke:#008000;stroke-linecap:square;stroke-width:0.2;"/>
   </g>
   <g id="line2d_198">
    <path clip-path="url(#pffbece8fa8)" d="M 414.72 293.480064 
L 393.345893 278.602414 
L 372.008385 264.020316 
L 350.707476 249.731636 
L 329.406568 235.7104 
L 308.142259 221.979295 
L 286.914549 208.536253 
L 265.723439 195.379227 
L 244.568929 182.506196 
L 223.451018 169.915162 
L 202.369706 157.604146 
L 199.734542 156.083377 
L 199.734542 156.083377 
" style="fill:none;stroke:#008000;stroke-linecap:square;stroke-width:0.2;"/>
   </g>
   <g id="line2d_199">
    <path clip-path="url(#pffbece8fa8)" d="M 414.72 293.480064 
L 393.272694 278.362891 
L 371.861987 263.543437 
L 350.487879 249.019544 
L 329.150371 234.789078 
L 307.849463 220.849931 
L 286.585154 207.200019 
L 265.357444 193.837281 
L 244.166334 180.759681 
L 223.011824 167.965205 
L 201.893913 155.451863 
L 193.915222 150.791343 
L 193.915222 150.791343 
" style="fill:none;stroke:#008000;stroke-linecap:square;stroke-width:0.2;"/>
   </g>
   <g id="line2d_200">
    <path clip-path="url(#pffbece8fa8)" d="M 414.72 293.480064 
L 393.236094 278.147967 
L 371.788788 263.114831 
L 350.378081 248.378481 
L 329.003973 233.936768 
L 307.666465 219.787569 
L 286.365557 205.928784 
L 265.101248 192.358338 
L 243.873538 179.074178 
L 222.645829 166.052051 
L 201.454719 153.313076 
L 193.768824 148.756966 
L 193.768824 148.756966 
" style="fill:none;stroke:#008000;stroke-linecap:square;stroke-width:0.2;"/>
   </g>
   <g id="line2d_201">
    <path clip-path="url(#pffbece8fa8)" d="M 414.72 293.480064 
L 393.199495 277.932398 
L 371.715589 262.684936 
L 350.268282 247.735487 
L 328.857575 233.081887 
L 307.483468 218.721997 
L 286.14596 204.6537 
L 264.808452 190.85146 
L 243.507543 177.337564 
L 222.243234 164.109964 
L 201.015525 151.166634 
L 193.622426 146.720009 
L 193.622426 146.720009 
" style="fill:none;stroke:#008000;stroke-linecap:square;stroke-width:0.2;"/>
   </g>
   <g id="line2d_202">
    <path clip-path="url(#pffbece8fa8)" d="M 414.72 293.480064 
L 393.162895 277.716185 
L 371.64239 262.253753 
L 350.158484 247.090564 
L 328.711177 232.224436 
L 307.263871 217.628536 
L 285.853164 203.326328 
L 264.479056 189.315699 
L 243.141548 175.594563 
L 221.84064 162.160856 
L 200.576331 149.012539 
L 193.439429 144.658218 
L 193.439429 144.658218 
" style="fill:none;stroke:#008000;stroke-linecap:square;stroke-width:0.2;"/>
   </g>
   <g id="line2d_203">
    <path clip-path="url(#pffbece8fa8)" d="M 414.72 293.480064 
L 393.126296 277.499326 
L 371.532591 261.794898 
L 349.975486 246.391871 
L 328.454981 231.288044 
L 306.971075 216.481238 
L 285.523768 201.969301 
L 264.113061 187.750106 
L 242.738954 173.82155 
L 221.401446 160.181556 
L 200.100537 146.82807 
L 193.256431 142.593208 
L 193.256431 142.593208 
" style="fill:none;stroke:#008000;stroke-linecap:square;stroke-width:0.2;"/>
   </g>
   <g id="line2d_204">
    <path clip-path="url(#pffbece8fa8)" d="M 414.72 293.480064 
L 393.053097 277.254649 
L 371.422793 261.334113 
L 349.829088 245.716208 
L 328.271983 230.398717 
L 306.751478 215.379446 
L 285.267572 200.656226 
L 263.820265 186.226916 
L 242.409558 172.089396 
L 220.998851 158.21809 
L 199.624744 144.635318 
L 178.287236 131.339028 
L 156.986328 118.327193 
L 135.722019 105.597806 
L 114.494309 93.148886 
L 93.303199 80.978474 
L 72.112089 69.064276 
L 56.081509 60.221318 
L 56.081509 60.221318 
" style="fill:none;stroke:#00ffff;stroke-linecap:square;stroke-width:0.2;"/>
   </g>
   <g id="line2d_205">
    <path clip-path="url(#pffbece8fa8)" d="M 414.72 293.480064 
L 393.016497 277.036179 
L 371.349594 260.898423 
L 349.71929 245.064533 
L 328.125585 229.532274 
L 306.56848 214.299437 
L 285.047975 199.363837 
L 263.527469 184.698604 
L 242.043563 170.327231 
L 220.596257 156.247603 
L 199.18555 142.457631 
L 177.811443 128.955248 
L 156.473935 115.738412 
L 135.173026 102.805103 
L 113.908717 90.153326 
L 92.644408 77.759998 
L 71.416699 65.645162 
L 56.081509 57.052748 
L 56.081509 57.052748 
" style="fill:none;stroke:#00ffff;stroke-linecap:square;stroke-width:0.2;"/>
   </g>
   <g id="line2d_206">
    <path clip-path="url(#pffbece8fa8)" d="M 414.72 293.480064 
L 392.979898 276.817064 
L 371.276395 260.461445 
L 349.609491 244.410928 
L 327.942588 228.636848 
L 306.312284 213.164319 
L 284.718579 197.991135 
L 263.161474 183.115117 
L 241.640969 168.534108 
L 220.157063 154.24598 
L 198.709756 140.248628 
L 177.29905 126.539971 
L 155.924942 113.117952 
L 134.550835 99.958227 
L 113.213327 87.08199 
L 91.912418 74.487247 
L 70.648109 62.172027 
L 56.081509 53.884172 
L 56.081509 53.884172 
" style="fill:none;stroke:#00ffff;stroke-linecap:square;stroke-width:0.2;"/>
   </g>
   <g id="line2d_207">
    <path clip-path="url(#pffbece8fa8)" d="M 414.72 293.480064 
L 392.906699 276.569166 
L 371.129997 259.967845 
L 349.389894 243.673799 
L 327.686391 227.684751 
L 306.019488 211.998453 
L 284.389184 196.612683 
L 262.795479 181.525244 
L 241.238374 166.733966 
L 219.717869 152.236706 
L 198.233963 138.031342 
L 176.750057 124.092259 
L 155.302751 110.441807 
L 133.892044 97.077932 
L 112.517936 83.998604 
L 91.180428 71.201816 
L 69.87952 58.685584 
L 56.081509 50.715589 
L 56.081509 50.715589 
" style="fill:none;stroke:#00ffff;stroke-linecap:square;stroke-width:0.2;"/>
   </g>
   <g id="line2d_208">
    <path clip-path="url(#pffbece8fa8)" d="M 414.72 293.480064 
L 392.870099 276.34844 
L 371.056798 259.527649 
L 349.280096 243.015372 
L 327.539993 226.809316 
L 305.83649 210.907217 
L 284.169587 195.306836 
L 262.539283 180.00596 
L 240.945578 165.002404 
L 219.351874 150.269265 
L 197.794769 135.83006 
L 176.274264 121.682674 
L 154.790358 107.825013 
L 133.343051 94.255009 
L 111.932344 80.970618 
L 90.558237 67.969819 
L 69.184129 55.22902 
L 56.081509 47.547 
L 56.081509 47.547 
" style="fill:none;stroke:#00ffff;stroke-linecap:square;stroke-width:0.2;"/>
   </g>
   <g id="line2d_209">
    <path clip-path="url(#pffbece8fa8)" d="M 414.72 293.480064 
L 392.8335 276.127068 
L 370.983599 259.086164 
L 349.170297 242.355014 
L 327.393595 225.93131 
L 305.653493 209.81277 
L 283.91339 193.970701 
L 262.209887 178.430237 
L 240.542984 163.18917 
L 218.91268 148.245317 
L 197.318976 133.596522 
L 175.761871 119.240653 
L 154.241365 105.175603 
L 132.757459 91.399288 
L 111.273553 77.886855 
L 89.826247 64.659956 
L 68.41554 51.716576 
L 56.081509 44.378405 
L 56.081509 44.378405 
" style="fill:none;stroke:#00ffff;stroke-linecap:square;stroke-width:0.2;"/>
   </g>
   <g id="line2d_210">
    <path clip-path="url(#pffbece8fa8)" d="M 414.72 293.480064 
L 392.7969 275.905052 
L 370.9104 258.64339 
L 349.023899 241.664569 
L 327.173998 224.995358 
L 305.360697 208.633452 
L 283.583995 192.576573 
L 261.843892 176.822469 
L 240.140389 161.368916 
L 218.473486 146.213717 
L 196.843182 131.3547 
L 175.249478 116.789717 
L 153.655773 102.49264 
L 132.098668 88.486279 
L 110.578163 74.768555 
L 89.094257 61.337413 
L 67.64695 48.190822 
L 56.081509 41.209803 
L 56.081509 41.209803 
" style="fill:none;stroke:#00ffff;stroke-linecap:square;stroke-width:0.2;"/>
   </g>
   <g id="line2d_211">
    <path clip-path="url(#pffbece8fa8)" d="M 414.72 293.480064 
L 392.723701 275.652966 
L 370.764002 258.14143 
L 348.840902 240.943078 
L 326.954401 224.055559 
L 305.1045 207.476552 
L 283.291199 191.203762 
L 261.514497 175.23492 
L 239.774394 159.567788 
L 218.034292 144.174466 
L 196.330789 129.079367 
L 174.663886 114.280323 
L 153.033582 99.775189 
L 131.439877 85.561847 
L 109.882772 71.638204 
L 88.362267 58.002189 
L 66.878361 44.651757 
L 56.081509 38.041195 
L 56.081509 38.041195 
" style="fill:none;stroke:#00ffff;stroke-linecap:square;stroke-width:0.2;"/>
   </g>
   <g id="line2d_212">
    <path clip-path="url(#pffbece8fa8)" d="M 414.72 294.2784 
L 230.697719 294.186857 
L 230.551321 294.013015 
L 230.148726 290.742941 
L 229.782731 286.232781 
L 229.526535 280.336778 
L 228.831144 267.012505 
L 228.099154 268.700215 
L 227.293965 276.189862 
L 227.037769 277.419533 
L 226.342378 281.815299 
L 225.829985 283.362056 
L 225.46399 285.944632 
L 225.134595 287.502372 
L 224.475804 289.247244 
L 224.219607 288.76583 
L 223.926811 287.374057 
L 223.121622 280.774364 
L 222.353033 270.931342 
L 221.913839 265.149628 
L 221.584443 263.144857 
L 221.291647 261.813271 
L 220.998851 259.766077 
L 220.449859 255.453721 
L 220.157063 254.364895 
L 219.900866 253.705112 
L 219.827667 253.896459 
L 219.571471 254.845556 
L 219.278675 257.02219 
L 218.766282 260.135737 
L 218.546685 260.468664 
L 218.363687 260.352156 
L 218.18069 259.79195 
L 217.704896 257.287178 
L 217.119305 253.370697 
L 216.350715 249.342579 
L 215.98472 246.045392 
L 215.069733 235.024783 
L 213.605753 212.312738 
L 213.203158 209.693059 
L 212.983561 209.1031 
L 212.654166 208.40329 
L 212.617566 208.431344 
L 212.068574 209.513519 
L 211.482982 208.563206 
L 211.263385 208.343916 
L 211.190186 208.33214 
L 210.824191 209.119252 
L 210.641193 209.062474 
L 210.494795 209.086222 
L 210.238599 209.267259 
L 210.019002 209.304884 
L 209.836004 209.575409 
L 209.470009 210.845008 
L 208.847818 214.061718 
L 208.372024 214.746156 
L 208.042629 214.460765 
L 207.457037 213.350214 
L 206.834845 210.851312 
L 205.919858 205.672292 
L 205.407465 204.041633 
L 205.261067 203.8985 
L 205.04147 203.100462 
L 204.529077 200.837396 
L 204.30948 200.284526 
L 203.833686 199.260498 
L 203.760487 199.275225 
L 203.54089 199.550295 
L 203.504291 199.524514 
L 203.321293 199.348419 
L 202.882099 197.800771 
L 202.552704 194.166805 
L 202.07691 185.864368 
L 201.784114 182.117867 
L 201.418119 178.448406 
L 200.466532 165.511235 
L 199.844341 157.310716 
L 199.441746 154.464093 
L 199.222149 154.071845 
L 199.18555 154.158911 
L 198.929353 155.849824 
L 198.233963 163.194613 
L 196.806583 180.658188 
L 196.440588 182.640478 
L 196.184391 183.080378 
L 196.111192 182.929054 
L 195.854996 181.733166 
L 195.5622 178.783172 
L 195.269404 174.432956 
L 194.720411 163.16391 
L 194.317817 156.421912 
L 193.219832 142.4898 
L 192.963635 141.076739 
L 192.780638 140.754572 
L 192.670839 140.852899 
L 192.231645 145.145482 
L 191.682653 153.492744 
L 190.914063 163.983116 
L 189.816078 177.88925 
L 188.864491 195.159004 
L 187.180914 226.312036 
L 187.034516 226.84593 
L 186.997917 226.709931 
L 185.899932 206.861284 
L 185.021544 200.304697 
L 184.326153 198.140232 
L 184.033357 197.926585 
L 183.923559 198.018613 
L 183.447765 199.915205 
L 182.935372 203.651661 
L 182.459579 208.21404 
L 181.764188 215.252659 
L 181.581191 214.447309 
L 179.568218 199.34439 
L 179.348621 198.612722 
L 179.275422 198.646805 
L 179.019226 198.641999 
L 178.909427 198.72413 
L 178.543432 200.338416 
L 177.884642 203.019139 
L 177.628445 203.495035 
L 177.079453 203.747259 
L 176.786657 204.068014 
L 176.676858 203.978258 
L 176.201065 203.279698 
L 175.83507 202.665323 
L 175.652072 202.644756 
L 175.176279 201.967009 
L 174.883483 201.720789 
L 174.663886 200.819196 
L 174.297891 198.260027 
L 173.529301 190.707337 
L 172.833911 184.083481 
L 172.467916 182.650985 
L 172.394717 182.524354 
L 172.321518 182.585849 
L 172.13852 182.792411 
L 171.918923 184.135095 
L 171.369931 192.418835 
L 170.418344 207.107118 
L 169.064162 222.732296 
L 168.917764 222.821616 
L 168.807966 222.456083 
L 168.332172 218.493121 
L 167.636782 213.638713 
L 167.270787 212.959158 
L 167.124389 213.08888 
L 166.794993 213.550245 
L 166.575396 214.356004 
L 166.2826 216.142224 
L 165.843406 219.745671 
L 165.294414 223.941397 
L 165.257814 223.908533 
L 165.184615 223.716716 
L 164.416026 217.907049 
L 164.08663 217.518257 
L 163.940232 217.570033 
L 163.793834 218.166667 
L 163.501038 220.243435 
L 162.952046 225.993022 
L 162.256655 234.611401 
L 161.524665 243.608039 
L 161.341668 244.108841 
L 161.231869 244.047799 
L 161.012272 243.388926 
L 160.609678 241.811114 
L 160.390081 241.533388 
L 160.353481 241.56059 
L 159.804489 242.272112 
L 159.328695 243.271092 
L 159.218897 243.527877 
L 158.889501 244.818701 
L 158.743103 245.957725 
L 157.901315 252.579578 
L 157.681718 252.974893 
L 157.462121 253.032254 
L 157.315723 253.098873 
L 156.437335 251.364793 
L 156.400736 251.434737 
L 155.961542 252.150452 
L 155.924942 252.11817 
L 155.815144 252.025566 
L 155.595547 252.768667 
L 155.302751 253.729895 
L 155.156353 253.654148 
L 155.046554 253.48917 
L 155.009955 253.551438 
L 154.717159 254.157694 
L 154.241365 255.755444 
L 154.204766 255.726869 
L 153.802171 255.694522 
L 153.582574 255.870623 
L 153.436176 256.082066 
L 153.362977 255.789302 
L 152.850584 253.16999 
L 152.667587 253.302091 
L 152.594388 253.433889 
L 152.484589 254.032238 
L 152.228393 257.390159 
L 151.716 265.786247 
L 151.642801 266.107873 
L 151.606201 265.874467 
L 151.496403 265.537812 
L 151.459803 265.546781 
L 151.313405 265.815715 
L 151.057209 268.230582 
L 151.020609 268.730981 
L 150.98401 268.6421 
L 150.691214 265.813732 
L 150.325219 265.008119 
L 150.105622 265.151193 
L 149.666428 268.80774 
L 149.593229 268.633323 
L 149.52003 268.749802 
L 149.446831 268.943314 
L 149.410231 268.763448 
L 149.007637 264.917965 
L 148.971037 264.942093 
L 148.824639 265.361852 
L 148.422045 267.460283 
L 147.799853 273.178497 
L 147.726654 272.857801 
L 147.177662 266.192047 
L 146.409072 257.258832 
L 146.116276 256.191301 
L 145.969878 256.223008 
L 145.750281 257.301985 
L 145.384286 261.218054 
L 144.981692 265.585896 
L 144.871893 266.329477 
L 144.798694 266.30336 
L 144.579097 266.113389 
L 144.3961 266.076046 
L 144.249702 266.266541 
L 144.139903 266.877894 
L 143.737309 270.53212 
L 143.334714 273.275173 
L 142.712523 276.744832 
L 142.090331 280.168493 
L 141.211943 282.385085 
L 140.992346 282.605181 
L 140.662951 282.931133 
L 140.443354 282.686606 
L 139.894361 281.507327 
L 139.821162 281.525747 
L 139.674764 281.669426 
L 139.638165 281.640671 
L 139.418568 281.819117 
L 138.430382 285.791216 
L 138.137586 286.767338 
L 137.332397 288.122081 
L 136.710205 289.898238 
L 136.088014 290.261127 
L 135.685419 289.754127 
L 135.356024 288.912529 
L 135.026628 287.479002 
L 134.990029 287.499392 
L 134.807031 287.528098 
L 134.294638 286.158922 
L 134.14824 285.759963 
L 134.111641 285.820016 
L 134.038442 285.859057 
L 134.001842 285.819041 
L 133.379651 285.276225 
L 133.196653 285.322192 
L 132.977056 285.727918 
L 132.611061 286.353501 
L 132.281666 286.183052 
L 131.805872 285.984319 
L 131.732673 285.995559 
L 131.696074 285.951018 
L 131.549676 285.675833 
L 130.854285 282.486326 
L 130.48829 279.177623 
L 129.683101 272.358172 
L 129.353706 270.348178 
L 129.097509 269.221923 
L 128.475318 268.441079 
L 128.255721 267.665647 
L 127.377333 267.373512 
L 126.974738 267.964719 
L 126.86494 268.419488 
L 126.09635 272.528971 
L 125.876753 275.141313 
L 125.620557 280.995926 
L 125.181363 293.294444 
L 124.888567 294.2784 
L 56.081509 294.2784 
L 56.081509 294.2784 
" style="fill:none;stroke:#008000;stroke-linecap:square;stroke-width:0.2;"/>
   </g>
   <g id="line2d_213">
    <path clip-path="url(#pffbece8fa8)" d="M 414.72 294.2784 
L 56.081509 294.2784 
L 56.081509 294.2784 
" style="fill:none;stroke:#0000ff;stroke-linecap:square;stroke-width:0.2;"/>
   </g>
   <g id="patch_3">
    <path d="M 57.6 307.584 
L 57.6 41.472 
" style="fill:none;stroke:#000000;stroke-linecap:square;stroke-linejoin:miter;stroke-width:0.2;"/>
   </g>
   <g id="patch_4">
    <path d="M 414.72 307.584 
L 414.72 41.472 
" style="fill:none;stroke:#000000;stroke-linecap:square;stroke-linejoin:miter;stroke-width:0.2;"/>
   </g>
   <g id="patch_5">
    <path d="M 57.6 307.584 
L 414.72 307.584 
" style="fill:none;stroke:#000000;stroke-linecap:square;stroke-linejoin:miter;stroke-width:0.2;"/>
   </g>
   <g id="patch_6">
    <path d="M 57.6 41.472 
L 414.72 41.472 
" style="fill:none;stroke:#000000;stroke-linecap:square;stroke-linejoin:miter;stroke-width:0.2;"/>
   </g>
  </g>
 </g>
 <defs>
  <clipPath id="pffbece8fa8">
   <rect height="266.112" width="357.12" x="57.6" y="41.472"/>
  </clipPath>
 </defs>
</svg>
